<svg viewBox="0 0 330 200" xmlns="http://www.w3.org/2000/svg"><g><g><g><g><g><line x1="40" y1="177" x2="35" y2="177" style="visibility: inherit;" fill="rgb(0, 0, 0)" stroke="rgb(204, 204, 204)" stroke-width="1px"></line><line x1="40" y1="162.25" x2="35" y2="162.25" style="visibility: inherit;" fill="rgb(0, 0, 0)" stroke="rgb(204, 204, 204)" stroke-width="1px"></line><line x1="40" y1="147.5" x2="35" y2="147.5" style="visibility: inherit;" fill="rgb(0, 0, 0)" stroke="rgb(204, 204, 204)" stroke-width="1px"></line><line x1="40" y1="132.75" x2="35" y2="132.75" style="visibility: inherit;" fill="rgb(0, 0, 0)" stroke="rgb(204, 204, 204)" stroke-width="1px"></line><line x1="40" y1="118" x2="35" y2="118" style="visibility: inherit;" fill="rgb(0, 0, 0)" stroke="rgb(204, 204, 204)" stroke-width="1px"></line><line x1="40" y1="103.24999999999999" x2="35" y2="103.24999999999999" style="visibility: inherit;" fill="rgb(0, 0, 0)" stroke="rgb(204, 204, 204)" stroke-width="1px"></line><line x1="40" y1="88.5" x2="35" y2="88.5" style="visibility: inherit;" fill="rgb(0, 0, 0)" stroke="rgb(204, 204, 204)" stroke-width="1px"></line><line x1="40" y1="73.75" x2="35" y2="73.75" style="visibility: inherit;" fill="rgb(0, 0, 0)" stroke="rgb(204, 204, 204)" stroke-width="1px"></line><line x1="40" y1="58.999999999999986" x2="35" y2="58.999999999999986" style="visibility: inherit;" fill="rgb(0, 0, 0)" stroke="rgb(204, 204, 204)" stroke-width="1px"></line><line x1="40" y1="44.25" x2="35" y2="44.25" style="visibility: inherit;" fill="rgb(0, 0, 0)" stroke="rgb(204, 204, 204)" stroke-width="1px"></line><line x1="40" y1="29.499999999999993" x2="35" y2="29.499999999999993" style="visibility: inherit;" fill="rgb(0, 0, 0)" stroke="rgb(204, 204, 204)" stroke-width="1px"></line><line x1="40" y1="14.749999999999988" x2="35" y2="14.749999999999988" style="visibility: inherit;" fill="rgb(0, 0, 0)" stroke="rgb(204, 204, 204)" stroke-width="1px"></line><line x1="40" y1="0" x2="35" y2="0" style="visibility: inherit;" fill="rgb(0, 0, 0)" stroke="rgb(204, 204, 204)" stroke-width="1px"></line></g><g transform="translate(30, 0)"><text x="0" y="177" dx="0em" dy="0.3em" style="text-anchor: end; visibility: hidden; font-family: Roboto, sans-serif; font-size: 12px; font-weight: 200;" fill="rgb(255, 255, 255)" stroke="none" stroke-width="1px">0</text><text x="0" y="162.25" dx="0em" dy="0.3em" style="text-anchor: end; visibility: inherit; font-family: Roboto, sans-serif; font-size: 12px; font-weight: 200;" fill="rgb(255, 255, 255)" stroke="none" stroke-width="1px">0.1</text><text x="0" y="147.5" dx="0em" dy="0.3em" style="text-anchor: end; visibility: hidden; font-family: Roboto, sans-serif; font-size: 12px; font-weight: 200;" fill="rgb(255, 255, 255)" stroke="none" stroke-width="1px">0.2</text><text x="0" y="132.75" dx="0em" dy="0.3em" style="text-anchor: end; visibility: inherit; font-family: Roboto, sans-serif; font-size: 12px; font-weight: 200;" fill="rgb(255, 255, 255)" stroke="none" stroke-width="1px">0.3</text><text x="0" y="118" dx="0em" dy="0.3em" style="text-anchor: end; visibility: hidden; font-family: Roboto, sans-serif; font-size: 12px; font-weight: 200;" fill="rgb(255, 255, 255)" stroke="none" stroke-width="1px">0.4</text><text x="0" y="103.24999999999999" dx="0em" dy="0.3em" style="text-anchor: end; visibility: inherit; font-family: Roboto, sans-serif; font-size: 12px; font-weight: 200;" fill="rgb(255, 255, 255)" stroke="none" stroke-width="1px">0.5</text><text x="0" y="88.5" dx="0em" dy="0.3em" style="text-anchor: end; visibility: hidden; font-family: Roboto, sans-serif; font-size: 12px; font-weight: 200;" fill="rgb(255, 255, 255)" stroke="none" stroke-width="1px">0.6</text><text x="0" y="73.75" dx="0em" dy="0.3em" style="text-anchor: end; visibility: inherit; font-family: Roboto, sans-serif; font-size: 12px; font-weight: 200;" fill="rgb(255, 255, 255)" stroke="none" stroke-width="1px">0.7</text><text x="0" y="58.999999999999986" dx="0em" dy="0.3em" style="text-anchor: end; visibility: hidden; font-family: Roboto, sans-serif; font-size: 12px; font-weight: 200;" fill="rgb(255, 255, 255)" stroke="none" stroke-width="1px">0.8</text><text x="0" y="44.25" dx="0em" dy="0.3em" style="text-anchor: end; visibility: inherit; font-family: Roboto, sans-serif; font-size: 12px; font-weight: 200;" fill="rgb(255, 255, 255)" stroke="none" stroke-width="1px">0.9</text><text x="0" y="29.499999999999993" dx="0em" dy="0.3em" style="text-anchor: end; visibility: hidden; font-family: Roboto, sans-serif; font-size: 12px; font-weight: 200;" fill="rgb(255, 255, 255)" stroke="none" stroke-width="1px">1</text><text x="0" y="14.749999999999988" dx="0em" dy="0.3em" style="text-anchor: end; visibility: inherit; font-family: Roboto, sans-serif; font-size: 12px; font-weight: 200;" fill="rgb(255, 255, 255)" stroke="none" stroke-width="1px">1.1</text><text x="0" y="0" dx="0em" dy="0.3em" style="text-anchor: end; visibility: hidden; font-family: Roboto, sans-serif; font-size: 12px; font-weight: 200;" fill="rgb(255, 255, 255)" stroke="none" stroke-width="1px">1.2</text></g><line x1="40" y1="0" x2="40" y2="177" fill="rgb(0, 0, 0)" stroke="rgb(204, 204, 204)" stroke-width="1px"></line></g></g><g transform="translate(40, 0)" clip-path="url(#clip_0)"><clipPath id="clip_0"><rect width="290" height="177"></rect></clipPath><g><g><g><line x1="0" y1="0" x2="0" y2="177" fill="rgb(0, 0, 0)" stroke="rgb(189, 189, 189)" stroke-width="1px" opacity="0.25"></line><line x1="32.22222222222222" y1="0" x2="32.22222222222222" y2="177" fill="rgb(0, 0, 0)" stroke="rgb(189, 189, 189)" stroke-width="1px" opacity="0.25"></line><line x1="64.44444444444444" y1="0" x2="64.44444444444444" y2="177" fill="rgb(0, 0, 0)" stroke="rgb(189, 189, 189)" stroke-width="1px" opacity="0.25"></line><line x1="96.66666666666666" y1="0" x2="96.66666666666666" y2="177" fill="rgb(0, 0, 0)" stroke="rgb(189, 189, 189)" stroke-width="1px" opacity="0.25"></line><line x1="128.88888888888889" y1="0" x2="128.88888888888889" y2="177" fill="rgb(0, 0, 0)" stroke="rgb(189, 189, 189)" stroke-width="1px" opacity="0.25"></line><line x1="161.11111111111111" y1="0" x2="161.11111111111111" y2="177" fill="rgb(0, 0, 0)" stroke="rgb(189, 189, 189)" stroke-width="1px" opacity="0.25"></line><line x1="193.33333333333331" y1="0" x2="193.33333333333331" y2="177" fill="rgb(0, 0, 0)" stroke="rgb(189, 189, 189)" stroke-width="1px" opacity="0.25"></line><line x1="225.55555555555557" y1="0" x2="225.55555555555557" y2="177" fill="rgb(0, 0, 0)" stroke="rgb(189, 189, 189)" stroke-width="1px" opacity="0.25"></line><line x1="257.77777777777777" y1="0" x2="257.77777777777777" y2="177" fill="rgb(0, 0, 0)" stroke="rgb(189, 189, 189)" stroke-width="1px" opacity="0.25"></line><line x1="290" y1="0" x2="290" y2="177" fill="rgb(0, 0, 0)" stroke="rgb(189, 189, 189)" stroke-width="1px" opacity="0.25"></line></g><g><line x1="0" y1="177" x2="290" y2="177" fill="rgb(0, 0, 0)" stroke="rgb(189, 189, 189)" stroke-width="1px" opacity="0.25"></line><line x1="0" y1="162.25" x2="290" y2="162.25" fill="rgb(0, 0, 0)" stroke="rgb(189, 189, 189)" stroke-width="1px" opacity="0.25"></line><line x1="0" y1="147.5" x2="290" y2="147.5" fill="rgb(0, 0, 0)" stroke="rgb(189, 189, 189)" stroke-width="1px" opacity="0.25"></line><line x1="0" y1="132.75" x2="290" y2="132.75" fill="rgb(0, 0, 0)" stroke="rgb(189, 189, 189)" stroke-width="1px" opacity="0.25"></line><line x1="0" y1="118" x2="290" y2="118" fill="rgb(0, 0, 0)" stroke="rgb(189, 189, 189)" stroke-width="1px" opacity="0.25"></line><line x1="0" y1="103.24999999999999" x2="290" y2="103.24999999999999" fill="rgb(0, 0, 0)" stroke="rgb(189, 189, 189)" stroke-width="1px" opacity="0.25"></line><line x1="0" y1="88.5" x2="290" y2="88.5" fill="rgb(0, 0, 0)" stroke="rgb(189, 189, 189)" stroke-width="1px" opacity="0.25"></line><line x1="0" y1="73.75" x2="290" y2="73.75" fill="rgb(0, 0, 0)" stroke="rgb(189, 189, 189)" stroke-width="1px" opacity="0.25"></line><line x1="0" y1="58.999999999999986" x2="290" y2="58.999999999999986" fill="rgb(0, 0, 0)" stroke="rgb(189, 189, 189)" stroke-width="1px" opacity="0.25"></line><line x1="0" y1="44.25" x2="290" y2="44.25" fill="rgb(0, 0, 0)" stroke="rgb(189, 189, 189)" stroke-width="1px" opacity="0.25"></line><line x1="0" y1="29.499999999999993" x2="290" y2="29.499999999999993" fill="rgb(0, 0, 0)" stroke="rgb(189, 189, 189)" stroke-width="1px" opacity="0.25"></line><line x1="0" y1="14.749999999999988" x2="290" y2="14.749999999999988" fill="rgb(0, 0, 0)" stroke="rgb(189, 189, 189)" stroke-width="1px" opacity="0.25"></line><line x1="0" y1="0" x2="290" y2="0" fill="rgb(0, 0, 0)" stroke="rgb(189, 189, 189)" stroke-width="1px" opacity="0.25"></line></g></g></g><g><g><line x1="0" y1="177" x2="290" y2="177" fill="rgb(0, 0, 0)" stroke="rgb(153, 153, 153)" stroke-width="1.5px"></line></g></g><g><g><line x1="32.22222222222222" y1="0" x2="32.22222222222222" y2="177" fill="rgb(0, 0, 0)" stroke="rgb(153, 153, 153)" stroke-width="1.5px"></line></g></g><g><g><g><g><g><path stroke="rgb(204, 51, 17)" stroke-width="2px" d="M32.51222222222222,89.23212406039238L32.89888888888889,127.62213251367211L32.94722222222222,145.48417222689915L33.12444444444444,155.90581922975423L33.36611111111111,162.74142042472494L33.41444444444445,166.61069800926745L33.736666666666665,169.64231681303824L34.71944444444444,167.8917611514763L34.76777777777778,168.53120230885662L34.91277777777778,170.10427831275413L35.91166666666667,129.1773935505547L35.992222222222225,103.25563571133353L36.33055555555555,82.24169558830485L36.41111111111111,89.33075079727553L36.52388888888889,-43.16138413906414L36.620555555555555,7.197945632724131L37.18444444444444,34.848238819764305L37.21666666666666,23.93577295908145L37.345555555555556,45.21994443008682L37.812777777777775,46.882084517855944L38.135000000000005,58.19122488013878L39.005,70.32766582343682L39.02111111111112,59.73911094960504L39.343333333333334,41.80576598556689L39.63333333333333,50.09690760749318L39.85888888888889,48.167912573345035L40.85777777777778,36.12442398695295L41.29277777777778,34.05179911309436L41.550555555555555,47.22556701787384L41.663333333333334,28.14299924203572L41.67944444444444,3.874472325779832L42.21111111111111,7.550613234395687L42.43666666666667,27.614763997426284L42.565555555555555,35.507080961349075L42.64611111111111,-3.755095865301345L42.678333333333335,10.940758805475141L42.87166666666667,23.098879770778026L43.032777777777774,32.827459548085066L43.72555555555556,34.75437179885602L43.85444444444445,34.32723864070475L43.983333333333334,52.17138907046938L44.40222222222222,56.50965737749388L44.547222222222224,66.81887499063401L44.611666666666665,45.11727535091891L44.64388888888889,34.21780545218572L44.86944444444445,33.61854557214688L44.901666666666664,44.13666732361639L45.01444444444445,52.43323740531192L45.14333333333334,32.508970529581035L45.24,24.655998772763272L45.69111111111111,16.26376313347505L46.867222222222225,38.00167709821165L47.39888888888889,50.32768159054107L47.44722222222222,59.433115821742916L47.721111111111114,66.67636906008218L47.86611111111112,84.31345691026097L47.88222222222222,62.09330652797221L47.97888888888889,39.35076536323717L47.995000000000005,46.690996525205314L48.07555555555555,33.9305973753429L48.36555555555555,52.5712867680255L48.41388888888889,59.48753421920928L48.55888888888889,63.43338241230487L49.34833333333333,25.264488566225765L49.39666666666667,39.96344869631889L49.49333333333333,46.639299412359975L49.59,32.163805067414124L49.67055555555556,27.49634371988419L49.83166666666667,37.81475964064864L49.928333333333335,57.22888690755051L50.00888888888889,27.49228507593441L50.84666666666667,42.00129513928395L50.92722222222222,-16.405087751215117L51.442777777777785,-15.522289926018436L51.65222222222222,12.504047886010344L52.26444444444444,34.31893635718603L52.538333333333334,39.43936036186563L52.86055555555556,-14.526981388585886L53.07,3.445311191644005L53.42444444444445,5.996040274480421L53.47277777777777,27.357537180053843L53.69833333333334,35.49569041125038L53.76277777777778,47.06123714799916L54.53611111111111,39.779757816524715L54.64888888888889,54.55138852532589L55.00333333333334,37.33572505912711L55.196666666666665,43.11419922710376L55.35777777777778,18.010121742492444L55.84111111111111,44.38608380532593L56.01833333333333,37.20220697150429L56.147222222222226,52.080162645732166L56.24388888888889,61.7929126985996L56.75944444444444,71.33170884657676L56.82388888888889,82.22791558390125L57.22666666666667,54.548260533125784L57.48444444444444,52.531141068525045L57.50055555555556,40.52622741817649L57.74222222222222,60.57414111113081L57.806666666666665,42.40881040463167L58.080555555555556,-37.9655682875555L58.77333333333333,-17.71586357476142L59.095555555555556,38.42197873638972L59.32111111111111,44.456042447369704L59.46611111111111,47.611516582179895L59.56277777777778,44.33440753651192L59.64333333333333,62.34762982626277L59.75611111111111,35.999021793004985L59.901111111111106,62.61117240464515L60.12666666666667,66.98881333277123L60.15888888888888,74.01570661786494L60.20722222222222,53.86283881618558L60.352222222222224,58.85490259619937L60.91611111111111,47.62719535286657L61.30277777777778,12.897666284176282L61.64111111111111,19.620636742551667L61.93111111111111,50.19026370122405L62.07611111111111,85.63318967386707L62.28555555555556,92.00433962085619L62.333888888888886,34.331084254615135L62.462777777777774,28.069259073276875L63.10722222222223,46.39521707650399L63.38111111111111,41.840164766051615L63.54222222222222,71.36848210414543L63.590555555555554,87.87369169068512L63.91277777777778,62.27161649031743L64.17055555555555,8.425149626513166L64.46055555555556,48.908363930571L64.65388888888889,42.99893857967132L64.92777777777778,59.82480990845724L65.02444444444444,59.23717281793812L65.41111111111111,78.93612438187156L65.62055555555555,82.01884616461489L65.66888888888889,91.18927322058136L65.685,94.36944145100267L65.8138888888889,101.3898721107063L65.87833333333333,56.55803868581158L65.99111111111111,39.69234023934186L66.78055555555555,45.75431300667274L66.845,43.943092474146766L66.95777777777778,22.51810486841446L67.10277777777777,29.585316918660666L67.45722222222221,52.21316517732708L67.52166666666666,63.76630603875023L67.65055555555556,36.58478193047821L67.77944444444445,60.809210721034866L67.8438888888889,80.20458496414366L68.1661111111111,58.525048880593445L68.24666666666667,65.89223329354313L68.26277777777779,61.33581144886605L68.34333333333333,77.99606049822205L68.53666666666666,73.2920622990515L68.585,66.94105726277745L68.66555555555556,74.02328878519485L68.97166666666666,70.40708683656185L69.22944444444444,92.43037748769835L69.39055555555555,69.52989594004106L69.58388888888888,64.52475103057354L70.00277777777778,88.78805735896188L70.14777777777778,78.38926224225854L70.71166666666667,56.41825638004598L70.72777777777777,65.93252032869134L70.76,70.62788270636246L71.46888888888888,75.58594227268603L71.59777777777778,88.42753498813096L71.74277777777777,100.71744583285202L71.775,107.32341578743666L71.85555555555555,85.32223104919082L72.25833333333334,67.95424036672762L72.27444444444444,71.47152328783902L72.43555555555555,82.8659898775496L72.46777777777777,0.61987254248129L72.54833333333333,-12.59800922139844L72.77388888888889,36.08186105928206L72.87055555555555,50.53432886625159L73.01555555555555,43.9157890845825L73.25722222222223,74.41469975528061L73.3538888888889,96.21646360288224L74.1111111111111,90.67146839934684L74.20777777777778,68.02955758713541L74.48166666666667,92.25956577147757L74.57833333333333,116.09188345721792L75.36777777777777,80.480125162908L75.48055555555555,94.8387771510533L75.5611111111111,93.40502831121988L75.77055555555556,73.7503260420603L76.36666666666666,92.8818983344342L76.59222222222223,71.19750477719934L77.1561111111111,24.74448362498658L78.49333333333334,25.190576121265753L78.63833333333334,-3.6088798731237475L78.78333333333333,50.24252837957921L78.88000000000001,76.66479584015596L79.26666666666667,91.82183023951761L80.02388888888889,108.68085133828112L80.15277777777779,125.0609603273713L80.73277777777778,103.94591281103155L80.99055555555556,49.94009707741177L81.03888888888889,72.57154886348387L81.16777777777779,99.44812674774732L81.21611111111112,117.80542249950174L81.60277777777779,70.34770371599436L81.66722222222222,48.06575959970619L82.15055555555556,49.15967824488917L82.76277777777779,78.61072880286002L83.05277777777779,50.395374240029014L83.14944444444444,34.03576423022041L83.40722222222222,-6.501708404464189L83.69722222222222,37.00057798847993L83.71333333333334,64.80430139437581L84.26111111111112,49.66208422979869L84.42222222222222,81.29394890547489L84.47055555555556,92.82228338528091L84.48666666666666,100.40742928271541L84.5188888888889,123.77140067508847L84.535,124.15885776574034L84.93777777777777,137.91927636143336L85.46944444444445,103.39318065927486L86.1138888888889,39.990670782840596L86.61333333333334,62.7449052229621L87.04833333333335,53.62117895454752L87.1288888888889,57.390302878442924L87.48333333333333,90.94661820937606L87.78944444444444,113.80492776339895L88.03111111111112,56.69336067262676L88.28888888888889,41.25844904555909L88.75611111111112,55.969930510366154L88.80444444444444,66.97622185983909L89.20722222222223,24.336636030904362L89.6261111111111,59.011329856057124L89.9,-55.62373320666604L90.22222222222223,1.3653132175943106L90.51222222222222,36.38646767470484L90.54444444444445,65.90811541040685L90.57666666666667,88.83689784026113L90.67333333333333,23.933455532884405L91.12444444444445,62.637173960266004L91.35,94.58861992338745L92.25222222222223,116.73067089068563L92.31666666666668,131.6578128436069L92.49388888888888,144.29592386179328L92.99333333333333,110.48000164802765L93.12222222222222,79.15299055561955L93.33166666666668,48.71760562411271L93.41222222222223,58.218251486726544L93.67,51.480588436191034L93.75055555555555,66.82948338989304L93.78277777777778,59.41766140463284L93.94388888888888,63.57960430146654L94.00833333333333,-30.851846603385205L94.47555555555556,17.832804627518883L94.66888888888889,19.253680102408563L95.50666666666666,29.700444741475945L95.68388888888889,44.42602722849152L95.95777777777778,55.08663604858935L96.40888888888888,39.86039339425217L96.82777777777778,80.04834158374102L97.02111111111111,58.038173861224834L97.19833333333334,51.28547956163847L97.24666666666666,55.537982330412646L98.165,101.78356969770253L98.24555555555555,129.3628492760149L98.26166666666666,142.9132799197726L98.42277777777778,153.1217963957484L99.5988888888889,75.18972720287414L99.7761111111111,45.40379031647545L99.79222222222222,31.096925927098408L99.82444444444444,32.79816453033434L99.90499999999999,-3.2419344641342995L99.92111111111112,3.8338994945540974L100.32388888888889,32.60204361471266L100.40444444444444,-2.0324845636324245L100.45277777777778,9.298343972895356L100.58166666666666,-13.917134883085632L100.90388888888889,14.450135706615608L100.95222222222222,1.8466056339455612L100.96833333333333,-18.60652817770762L101.21,14.28502300092623L101.56444444444445,36.83544866269257L101.77388888888889,43.43187081828968L101.80611111111111,56.31651279935394L102.01555555555557,50.975180540139405L102.61166666666666,29.312139841112458L102.99833333333333,63.56881578099307L103.11111111111111,32.30786995489345L103.20777777777776,41.06640019654599L103.59444444444445,-68.48541899538421L103.64277777777777,-28.745984053709414L104.59333333333333,21.011710324228833L104.86722222222222,27.048533700907853L104.88333333333334,37.843053235414395L105.20555555555555,46.006822510840145L105.2538888888889,78.09315574424365L105.39888888888889,66.4252286568695L105.97888888888889,89.80187202783904L106.02722222222222,-35.17978910629467L106.285,25.42171272024804L106.78444444444445,52.5098582529145L107.23555555555555,61.81585140366062L107.36444444444444,62.71700284086885L107.42888888888889,45.03246014835371L107.55777777777777,60.47764464331824L107.735,61.11797411509251L108.1538888888889,38.5531306699985L108.23444444444445,54.21880640006505L108.49222222222222,65.68018201241757L108.75,98.21789828687827L108.8788888888889,117.27874654978464L109.02388888888889,58.74703578025073L109.1688888888889,68.49894493740779L109.3461111111111,70.57812343789327L109.36222222222223,71.15522234888785L109.55555555555556,80.18350283653683L109.58777777777777,84.91560940951793L110.2,85.11966772681883L110.39333333333333,104.63099667910582L110.69944444444445,90.81636916091351L111.07000000000001,69.60722672039454L111.39222222222223,14.062682957018515L112.16555555555556,-7.339592426678507L112.31055555555555,21.782683748208918L112.35888888888888,36.41542786252703L112.3911111111111,29.584670793367664L113.21277777777777,83.45796963504151L113.2611111111111,116.65821047980306L113.58333333333333,138.51303452839682L113.61555555555556,152.09210212582488L113.63166666666666,159.42896558227622L113.74444444444445,165.1578872975408L114.03444444444443,103.23251857618685L114.48555555555556,81.22399927532787L114.80777777777779,60.36348920676777L114.93666666666667,50.56589221724075L115.4361111111111,51.02022745471121L115.71000000000001,50.59237042821003L116,39.21186761710974L116.12888888888888,36.520454672896456L116.62833333333333,71.00680146689629L117.06333333333333,67.98144240424284L117.43388888888889,54.099758727820195L117.9011111111111,70.22766211239784L118.07833333333333,73.44799808626348L118.33611111111111,94.07434302547557L118.56166666666667,116.76515894221653L118.89999999999999,101.42654493503206L119.54444444444444,8.909992474630052L119.89888888888889,50.858260618635775L119.97944444444444,51.32992917715831L120.57555555555557,56.7693098927696L120.75277777777777,53.6624762621617L120.84944444444444,51.24991560024594L121.07499999999999,84.31479318167312L121.10722222222222,112.23126240805117L121.62277777777777,133.0405502467473L122.00944444444444,94.64889489109035L122.20277777777777,65.57904988822172L122.235,55.670140017848205L122.33166666666666,42.63343495713532L122.52499999999999,42.53986931196964L122.92777777777778,89.9323990455396L123.3788888888889,74.82799227900068L123.41111111111111,52.194158457915535L123.47555555555554,61.31439000558886L123.71722222222222,58.89791869039556L124.37777777777778,50.500586097927204L124.42611111111111,62.44467672436912L125.28,56.560627131041755L125.32833333333333,73.87244128488115L125.48944444444444,82.63182313026554L125.77944444444445,110.56561627257804L125.79555555555555,132.57499016832674L126.06944444444444,148.50709079138258L126.11777777777777,155.1527992497791L126.66555555555556,54.87749912803823L126.69777777777777,30.757144847306346L126.81055555555555,17.919397973294704L127.24555555555555,-3.7430183271910593L127.39055555555555,11.818948186615344L127.7288888888889,14.466534898983996L128.11555555555555,22.498688773100092L128.1961111111111,21.270525548329655L128.2927777777778,42.26032207815093L128.7277777777778,58.309676876117244L129.05,48.90084994462099L129.13055555555556,66.97946942226271L129.37222222222223,83.84822097048865L129.45277777777778,103.29670953527514L130.14555555555555,87.07786539659155L130.21,64.07898823896203L130.54833333333332,58.489991596216875L130.58055555555555,67.40494355611497L130.83833333333334,80.22431506545838L130.87055555555557,88.39744449753462L130.96722222222223,24.33457558810051L130.99944444444446,27.287643512841083L131.28944444444446,72.64392645106078L131.66,75.64423053828096L131.805,69.75030998806486L132.11111111111111,58.04953818571762L132.28833333333333,79.81115664870856L132.32055555555556,84.00434377092908L132.41722222222222,83.02234697520012L132.62666666666667,88.94900784599349L132.91666666666666,53.660448871300005L133.54500000000002,76.83991245165193L133.91555555555556,106.89791789492799L133.98000000000002,124.44997852349778L133.9961111111111,133.01744433226884L134.10888888888888,86.93158805360018L134.3827777777778,64.83297293179999L134.56,41.087236599885046L134.73722222222221,43.680323884941714L134.85,51.96319741371725L134.94666666666666,44.750476898929215L135.33333333333334,92.66120133678955L136.2838888888889,123.30585642311479L136.86388888888888,82.26830274852219L136.88,29.204873198223723L136.94444444444443,45.7616518938259L137.26666666666665,51.95107667468283L137.2827777777778,73.35443366660054L137.29888888888888,87.24516753609998L137.42777777777778,52.720526291465895L138.13666666666666,33.89742381187446L138.24944444444444,49.92418447024921L138.29777777777778,58.31543604664384L138.6038888888889,87.62587581951844L139.4738888888889,119.57201129424232L139.6188888888889,139.80349153192435L139.6511111111111,150.38666835672615L139.71555555555557,158.8989632531819L139.81222222222223,164.16802389575943L139.86055555555555,162.08142364712896L139.97333333333333,77.18578286583627L140.10222222222222,81.4978584981883L140.15055555555554,68.4858939133241L140.3438888888889,80.74326067460503L140.7788888888889,77.17616067703322L140.84333333333333,46.1832148693547L141.02055555555555,45.86105630770595L141.19777777777776,-17.49221102014026L142.29333333333332,25.694457187564137L142.51888888888888,36.221737131065716L142.64777777777778,78.39952578817997L142.87333333333333,81.60192274257656L142.88944444444445,87.57594443085858L143.30833333333334,111.80782596601885L143.5338888888889,121.40638392170573L143.93666666666667,125.89553516507331L144.4038888888889,143.72255284354202L144.45222222222222,152.0183646113581L144.8711111111111,110.63440145438354L145.1611111111111,103.37234592071437L145.22555555555556,105.31138338822879L145.62833333333333,111.1589523922131L146.04722222222222,131.1017283392385L146.46611111111113,109.57981171562881L146.7077777777778,76.33977586242325L146.83666666666664,92.89822955258349L146.8527777777778,115.77391318874157L147.2072222222222,109.03313148258087L147.27166666666668,73.99552486084673L147.49722222222223,86.05072483267054L148.14166666666668,94.66199068931141L148.28666666666666,104.09811733190655L148.48,86.00161824240944L148.78611111111113,99.15231270560422L148.83444444444444,102.1996045766401L148.97944444444443,115.50463312614725L149.83333333333334,137.08053701668243L150.01055555555553,151.98419851429318L150.30055555555555,160.44072151775393L150.46166666666667,161.77667654213448L150.47777777777776,159.3710929432937L150.76777777777775,138.19823784109522L150.7838888888889,123.73836458013399L151.15444444444447,89.28203027418817L151.2188888888889,96.76501142365672L151.46055555555554,59.93891248335204L151.9438888888889,72.28007970589258L152.0888888888889,71.40960995160256L152.13722222222222,84.97080583454796L152.25,75.46199945856112L152.4111111111111,80.14361331611262L152.45944444444444,89.28694151490562L152.54000000000002,86.92523765951177L152.70111111111112,89.91957698100673L153.08777777777777,111.93176020284812L153.23277777777778,78.60280297458362L153.5388888888889,83.75028103745097L153.8127777777778,70.15216361377307L154.81166666666667,76.24859558876555L155.37555555555556,95.95235267481921L155.64944444444444,105.33987633706164L155.81055555555554,123.85254329634327L155.89111111111112,132.4575059067763L156.06833333333333,69.59222467252953L156.165,52.28143369859064L156.27777777777777,37.02253689590457L156.56777777777776,77.68522970809556L156.64833333333334,94.89099202116739L156.72888888888886,111.98513359165437L157.01888888888888,106.55671953163295L157.1961111111111,124.04179529548733L157.24444444444447,139.73937250197557L157.56666666666666,152.72290911165254L157.69555555555556,161.54700006253944L157.85666666666665,166.96859525752024L158.05,170.15460264842633L158.42055555555555,169.13641082591369L158.50111111111113,169.6585980003867L159.48388888888888,135.37361870681008L159.5,123.60164498373723L160.01555555555558,98.40512492111239L160.70833333333334,120.40493900090999L160.83722222222224,-18.037081345852922L160.9661111111111,20.903022345938254L160.98222222222222,17.345179401062694L161.53,11.17097566260263L161.7072222222222,65.8753550215564L161.90055555555554,57.08706539654744L162.17444444444442,81.75403281917578L163.14111111111112,81.80195029300693L163.52777777777777,85.75172903372193L164.01111111111112,102.18635827442017L164.07555555555558,84.54055194938186L164.3011111111111,97.24903269340994L164.575,39.30672533351422L164.67166666666665,8.129895776738172L165.34833333333336,30.23540164841976L165.60611111111112,82.17732816227534L165.78333333333333,114.12540604792987L165.92833333333334,65.08403467013211L166.0572222222222,60.854669182740274L166.37944444444446,75.81931856229463L166.41166666666666,58.31637456986044L166.45999999999998,89.14318220599135L166.49222222222224,113.06565308441903L166.58888888888887,117.98841984194625L166.91111111111113,103.98609137011832L166.95944444444444,97.22853895111838L167.04,93.23480727722621L167.185,88.59513771802409L168.31277777777777,121.54498733368652L168.635,143.03434388510664L168.65111111111113,155.75052523603904L168.68333333333334,159.64253319496433L168.9088888888889,165.58520110663486L168.97333333333333,168.68341653178163L169.11833333333334,171.15793935808554L169.13444444444443,171.65284690098773L169.215,170.97784602172263L169.29555555555555,170.63866949991635L169.53722222222223,171.67759133825453L170.0366666666667,173.3064552361876L170.23,174.31996179927796L170.34277777777777,174.73785713536685L170.42333333333335,175.04383095598607L170.64888888888888,-0.45621552171476587L170.79388888888892,15.433478414403375L171.21277777777777,44.04257174693762L171.32555555555555,70.22395884611142L171.34166666666667,86.79495825539784L171.48666666666668,71.40366317135548L172.0988888888889,79.50624388040573L172.2277777777778,91.99487101782246L172.2438888888889,88.19262391179134L172.3083333333333,90.25758232980567L172.82388888888892,99.85734617298601L173.58111111111108,111.60573639622781L173.64555555555555,110.66192430944116L173.93555555555554,109.91175193006319L174.01611111111112,120.4638779843719L174.3061111111111,103.10643461256451L174.35444444444445,109.06284058039918L174.69277777777776,103.5109027144047L174.87,123.38039211730552L175.25666666666666,60.63848197639223L175.36944444444447,71.71695672381064L175.64333333333335,84.25535327737416L175.67555555555555,83.11496975746681L175.72388888888887,100.74864107803663L176.06222222222223,87.43209425470924L176.09444444444443,72.31867517150458L176.175,84.08374889562737L176.35222222222222,101.33021802824862L176.54555555555555,78.26855319215133L176.81944444444446,106.46970610602663L177.10944444444445,83.45894830694176L177.2061111111111,78.90200045865998L177.3672222222222,96.07657805181874L177.65722222222223,68.12426819263298L177.67333333333335,49.03978992616175L178.10833333333332,85.43179167577648L178.23722222222221,96.9909159914793L178.3983333333333,102.73214917636761L178.57555555555555,126.35026379231721L178.9138888888889,143.91714116516178L179.20388888888888,155.0677430806009L179.71944444444443,160.99696782841968L179.8322222222222,163.88601261371187L180.67,140.44168750043994L180.70222222222222,112.18456362245254L180.86333333333334,96.64174158905608L180.97611111111112,87.17095039805568L181.4111111111111,78.25559020352837L181.74944444444444,81.22933225817964L181.91055555555556,90.35806331031017L182.16833333333332,78.43659580345448L182.20055555555558,91.07610364911257L182.31333333333333,86.69792776201544L182.82888888888888,96.19871576365458L182.90944444444443,78.06981842360871L183.08666666666664,48.26910930062516L183.16722222222222,43.54339739790668L183.86,81.61562829679913L183.90833333333333,101.87774567286174L184.23055555555558,89.47860173273088L184.32722222222222,104.14999240570066L184.34333333333333,115.12456996400833L184.76222222222222,107.78644175028609L184.875,104.45874922690275L185.89000000000001,111.52246106396605L186.035,92.33725474316175L186.14777777777778,104.40971370958266L186.19611111111112,84.07614162220344L186.3088888888889,87.43122529181113L186.35722222222222,95.82932471747559L186.71166666666667,96.67825011918164L186.8888888888889,98.14868072574865L187.06611111111113,109.82420780006368L187.25944444444443,121.88670352544379L187.27555555555557,132.19159967271085L187.3238888888889,129.05379941801783L187.71055555555554,124.29683607066008L187.80722222222224,128.14903810169895L188.17777777777778,139.42807769803164L188.3388888888889,150.87338522242285L188.46777777777777,130.44653936127887L189.45055555555555,140.91249715924303L189.59555555555556,109.52828800463699L189.74055555555555,74.12400832047477L190.30444444444444,91.47357090276726L190.75555555555556,101.7671263334885L190.80388888888888,91.49563794837802L191.44833333333332,-14.08626071508879L191.83499999999998,35.76291225018409L191.9961111111111,67.909729329719L192.88222222222223,108.16262419326534L193.09166666666667,81.48328961910862L193.55888888888887,79.38759863365924L194.13888888888889,81.7691398739173L194.21944444444443,99.78865312810862L194.23555555555555,96.60781398580149L194.26777777777778,99.37530537346406L194.4933333333333,98.21764664590002L194.68666666666667,90.66365560734059L195.05722222222224,87.31473433282248L195.1538888888889,80.3471630531923L195.39555555555557,92.43336531629421L195.4922222222222,83.78731108373556L195.65333333333334,98.40172368089053L196.04000000000002,126.48672544687803L196.3138888888889,144.19692690211423L196.66833333333335,155.10130285047225L197.1677777777778,113.05951337112624L197.28055555555554,79.07967965658688L197.45777777777778,62.22920184645762L197.71555555555557,56.62812825032301L197.78,30.563351178099065L197.89277777777778,50.42179622884353L197.97333333333333,52.4220052160964L198.65,23.96747431744009L199.23000000000002,66.6887820934586L199.6811111111111,83.90759003015353L199.71333333333334,78.25601678998466L199.72944444444445,87.16982388443468L199.76166666666666,99.56729884115884L199.85833333333335,56.69535877208726L200.00333333333333,88.56166732252132L200.1,113.71880811417397L200.18055555555554,-69.87101143619839L200.64777777777778,-5.960583973058598L200.87333333333333,62.51941672973124L201.05055555555555,33.27479350574188L201.21166666666664,49.98289344315154L201.2761111111111,45.89882550003781L201.29222222222222,44.728091867939554L201.74333333333334,60.67583375702854L201.88833333333335,94.54655244368647L202.01722222222222,49.92916382800539L202.2588888888889,59.77161184222103L202.275,74.03584208053707L202.46833333333333,95.12334209062077L202.96777777777777,107.14943277464755L203.11277777777775,79.23712864891559L203.32222222222222,103.38854571208877L203.38666666666668,121.44038711801481L203.4672222222222,139.27326426842995L203.61222222222221,151.8468793343853L203.74111111111114,158.259654769978L203.8538888888889,153.05619933288162L203.86999999999998,139.52529225397626L204.1438888888889,132.0008918443234L204.6272222222222,110.20206067555611L204.78833333333336,110.09957403894346L205.38444444444443,134.4652863455181L205.52944444444447,150.83765304031908L205.54555555555555,159.65503113459312L205.64222222222222,11.225923448745956L205.89999999999998,38.37725498076951L206.01277777777776,35.67311183092997L206.4638888888889,68.0642295985103L206.48,81.96597104720357L206.625,-21.012980857777094L206.70555555555555,26.099536514706926L206.88277777777776,72.58846226419658L207.02777777777777,75.35394293716936L207.25333333333333,103.21501221150987L207.43055555555557,80.62390395337839L207.86555555555555,79.6298843403727L207.9138888888889,85.75620338797987L208.0588888888889,101.42940261054291L208.46166666666667,128.91197830714734L208.5261111111111,144.63324276076526L208.6711111111111,153.53635119925005L208.89666666666668,161.07243557962812L208.99333333333334,165.69247813190842L209.02555555555554,168.6448679404904L209.57333333333332,131.3900101087957L209.67,121.171080273537L209.76666666666668,108.05803423055896L209.79888888888888,105.56877668457561L209.815,97.65802701567014L209.97611111111112,97.8853077784443L210.05666666666667,98.0655572948017L210.28222222222223,111.03902467710724L210.4272222222222,118.10995701922745L210.685,110.2909504292832L211.08777777777777,117.80095125546612L211.39388888888888,126.39179899281596L211.5388888888889,141.11212830684383L211.82888888888888,151.73966755832313L212.26388888888889,138.401955565006L212.63444444444445,120.47779392015367L212.66666666666666,108.24876957423346L212.68277777777777,108.01319731048858L213.50444444444443,114.15290809137889L213.63333333333335,123.30280828156036L213.68166666666667,127.73181355403639L213.82666666666665,35.65395143274531L214.4388888888889,73.46090504314938L214.93833333333333,93.61038164369128L215.26055555555556,100.23105218453327L215.48611111111111,101.09595252539586L215.56666666666666,109.33082724491281L216.06611111111113,134.61112874227476L216.19500000000002,148.99612413258978L216.22722222222222,157.8409340495564L216.775,-26.75371150286811L216.82333333333335,-4.715049339007248L217.04888888888888,35.797003988819796L217.09722222222223,-10.183640620471575L217.27444444444444,18.71935318627268L217.3711111111111,36.568777851571475L217.8222222222222,66.30229936379781L217.87055555555557,84.4722850879347L217.88666666666666,91.56566402675602L217.98333333333335,102.88376718379196L218.01555555555555,108.43975250492772L218.28944444444443,30.735680297435984L218.41833333333332,37.07902521814207L218.56333333333333,58.61299394920647L218.80499999999998,78.50932235929479L219.06277777777777,97.17566679962341L219.6911111111111,100.71554374127307L219.88444444444445,94.36201369421912L219.91666666666666,81.33238001857536L220.07777777777775,81.58759982701741L220.255,84.22899311373592L220.36777777777777,113.52336021417358L220.48055555555558,131.3748894343017L220.51277777777779,142.80817885006897L220.78666666666666,152.77527292403838L221.09277777777777,135.4294572641448L221.67277777777778,126.82676718652223L221.83388888888888,91.518501842141L222.10777777777776,109.95001160151949L222.20444444444445,103.9619701567125L222.34944444444443,121.29499812500666L222.83277777777778,141.6945553501069L223.20333333333335,153.37752083940026L223.21944444444443,161.75943304339182L223.50944444444443,166.61305107579605L223.96055555555554,170.21662111189053L224.04111111111112,172.0947038977211L224.25055555555554,18.85035471015367L224.47611111111112,38.25697805817836L224.605,60.31218161783168L224.68555555555557,57.87079476476638L224.71777777777777,41.25247354007322L224.73388888888888,38.44213952241277L225.05611111111114,55.704158649551474L225.13666666666666,11.334719887797602L225.36222222222221,43.12371832813297L225.5233333333333,62.97796672991201L225.6038888888889,71.29649951703121L225.71666666666667,53.43970705656271L226.02277777777778,82.71813498489892L226.2161111111111,88.15112599463961L226.78,63.164861063550106L226.92499999999998,81.79181667589556L227.69833333333332,89.60468870653757L227.77888888888887,100.90751317294864L228.02055555555555,112.04326528401629L228.19777777777776,48.43026903922233L228.26222222222222,69.08966544660848L228.52,93.64374486442162L228.72944444444445,114.41671494147633L229.05166666666668,108.53776783646018L229.19666666666666,75.94394218266528L229.32555555555555,97.86094250881982L229.64777777777778,96.65866226318069L229.90555555555557,57.75869821526162L230.22777777777776,87.86329089413613L230.2761111111111,109.33202971107085L230.5338888888889,132.23251120499563L230.79166666666666,146.4949532255637L230.96888888888887,157.139834825999L231.93555555555557,146.01192959833529L232.08055555555555,139.36443112306824L232.09666666666666,138.34897047289033L232.58,149.71766521935353L232.8861111111111,159.3043445309531L232.93444444444444,164.42416830721686L233.2888888888889,20.9744883290719L233.99777777777777,24.997863800036374L234.3361111111111,36.26734907073229L234.4327777777778,40.16614754582912L234.465,51.58788441172521L234.8033333333333,48.32701770395804L235.15777777777777,50.103946542327215L235.625,79.37692960833587L236.3661111111111,92.98638301333831L236.6238888888889,118.81643185163169L236.8172222222222,99.07325164761916L237.76777777777778,88.85312655143008L238.02555555555557,102.58091954333821L238.525,108.08362392153288L238.6538888888889,122.40883542934623L238.99222222222224,141.19726755076388L239.395,152.95417237790667L239.47555555555556,161.30115498758698L239.685,-56.37721635307464L239.89444444444445,6.929922047820145L239.99111111111114,32.233465327958136L240.6677777777778,57.1876407230734L240.6838888888889,60.07902022390599L240.76444444444445,70.35461481922289L241.0061111111111,81.26941570349585L241.94055555555556,114.53158613567382L242.21444444444444,137.18855597540636L242.64944444444444,137.7842978296572L242.66555555555553,125.66524985181653L242.79444444444445,95.97274172751524L242.98777777777778,113.76875741153013L243.0361111111111,123.83460268896252L243.18111111111114,142.79894679648538L243.42277777777775,153.28348262451803L243.48722222222221,158.5879553040428L243.51944444444445,163.7176690127291L243.7611111111111,168.5328263624139L244.05111111111108,170.54358906536567L244.3411111111111,172.29498044115613L244.58277777777778,172.85376657560354L244.7438888888889,173.98660701615293L244.79222222222222,170.32079348774363L244.98555555555555,149.05404333956008L245.00166666666667,148.66124437860827L245.0661111111111,123.58669313557253L245.51722222222222,114.20959604243819L245.9361111111111,95.7116953758024L246.4677777777778,104.57133561537402L246.70944444444447,114.7362879703387L247.28944444444446,129.7932005280223L247.37,113.91837657415665L248.14333333333335,126.37522784724118L248.20777777777778,128.0482093742745L248.53,108.55430931158406L249.30333333333334,124.14500190798965L249.31944444444446,132.13133631339386L249.73833333333332,114.25028661603162L249.78666666666666,56.26249508687511L250.46333333333334,34.63778105156812L250.7211111111111,76.18740466104263L251.28500000000003,59.21042314092109L251.52666666666664,83.72487994384639L251.65555555555554,106.58731973380965L251.73611111111111,130.29409095919803L251.7522222222222,144.1128618465464L252.28388888888887,154.94152844304446L252.5577777777778,129.9590802690661L252.60611111111112,48.59609540112472L252.65444444444444,69.04469981078897L252.86388888888888,2.296123875883775L253.29888888888888,41.6367106757805L253.5888888888889,58.32369809879335L253.70166666666668,98.95383815338299L253.81444444444446,113.44354601723005L254.1688888888889,79.0564767123583L254.50722222222223,91.12898545869129L254.71666666666667,82.9020736539837L255.28055555555557,52.38179938343026L255.6511111111111,81.6789623161963L255.69944444444442,86.94412880306314L255.9088888888889,116.94841497340721L255.97333333333336,137.24069006710604L256.07,151.1806397354266L256.7627777777778,160.70696031209297L256.7788888888889,163.80556218344847L257.085,166.6289491721623L257.1333333333333,47.710053209580934L257.2622222222222,75.16739193446513L257.2783333333333,93.81610197929787L257.2944444444444,104.32201713984158L257.3911111111111,99.5035781780776L257.71333333333337,89.3179903697906L257.74555555555554,81.60934675168622L258.03555555555556,81.05343071479574L258.8411111111111,100.49878299748288L259.06666666666666,115.60237922379605L259.16333333333336,98.90240452354688L259.7111111111111,127.29921839931929L260.37166666666667,93.22913032948567L260.8227777777778,90.05330699789282L261.2577777777778,88.12599906985615L261.3383333333333,93.32518677511604L261.435,100.69747661709067L261.80555555555554,110.65117563700242L262.2083333333333,127.56837219831684L262.4016666666667,81.23460578225456L262.41777777777776,90.84570202411652L262.51444444444445,88.61237645853424L262.65944444444443,93.9504431409172L262.93333333333334,121.08983228489946L263.12666666666667,107.88221042087788L263.2233333333333,87.79334222514102L263.54555555555555,94.08670320057074L263.61,114.65822928812027L263.99666666666667,137.9168329207803L264.0288888888889,151.52251122109325L264.1738888888889,159.73919691197415L264.9794444444444,135.26738661260805L265.3661111111111,108.93526843626142L265.3822222222222,109.74986114763523L265.7366666666667,102.51473633446278L266.30055555555555,109.25286740659466L266.31666666666666,117.94826360701794L266.7033333333333,119.28328660225435L266.73555555555555,121.52527692970969L266.75166666666667,122.57336491976581L267.235,127.75401596805096L267.6377777777778,135.467735663537L267.6861111111111,131.34986198871366L267.71833333333336,139.25519707756655L267.96000000000004,148.99008615140568L268.0566666666667,146.0333372433451L268.37888888888887,130.96585911986034L268.54,136.05269851074698L268.5561111111111,129.8446213292246L268.685,97.45780371947079L268.74944444444446,83.84510535790317L268.8461111111111,100.33296893116112L269.1038888888889,112.0370063071029L269.7966666666667,131.38823338208059L269.99,143.77451625977432L270.1672222222222,114.65454921433017L270.3283333333333,91.37465169017722L270.34444444444443,89.10880826702841L270.4088888888889,88.15987390751319L270.4733333333333,95.28057915255235L270.53777777777776,113.14334035089497L270.81166666666667,126.42685388428501L270.90833333333336,139.95589482279138L270.97277777777776,150.93993051643082L271.005,154.04806920465774L271.40777777777777,133.05615101204484L271.7138888888889,147.82455445868473L271.82666666666665,155.35496026004972L271.84277777777777,161.72222413629663L272.10055555555556,162.57506278759462L272.1488888888889,166.44460130471722L272.6644444444444,132.137513796918L272.68055555555554,118.55266995455766L272.69666666666666,89.74632546440328L273.0833333333333,102.83680789551475L273.3088888888889,120.51330246556604L273.53444444444443,137.86050025986913" style="fill: none;" fill="none"></path></g></g></g></g><g opacity="0.2"><g><g><g><path stroke="rgb(204, 51, 17)" stroke-width="2px" d="M32.51222222222222,89.23212406039238L32.89888888888889,150.65613758563995L32.94722222222222,162.63173035159707L33.12444444444444,168.16167610511184L33.36611111111111,171.66598134487867L33.41444444444445,171.96330184862018L33.736666666666665,173.97758020833135L34.71944444444444,165.3394341915846L34.76777777777778,169.47425381094217L34.91277777777778,172.44011284597218L35.91166666666667,68.15827023983002L35.992222222222225,64.51406401395796L36.33055555555555,50.789399564266205L36.41111111111111,99.95044541358948L36.52388888888889,-241.7438470125199L36.620555555555555,82.70142298936844L37.18444444444444,76.31197792291641L37.21666666666666,7.569844841957079L37.345555555555556,77.14295920729637L37.812777777777775,49.375142723321915L38.135000000000005,75.15431520342825L39.005,88.53192788362502L39.02111111111112,43.85648769140242L39.343333333333334,14.905960977077472L39.63333333333333,62.53356111049651L39.85888888888889,45.27442824840546L40.85777777777778,18.059221923351288L41.29277777777778,30.942864984273896L41.550555555555555,66.98620674014091L41.663333333333334,-0.48084187507632015L41.67944444444444,-32.52831000089647L42.21111111111111,13.06482386589049L42.43666666666667,57.71098774671553L42.565555555555555,47.34555584192276L42.64611111111111,-62.64835941791536L42.678333333333335,32.98454043269157L42.87166666666667,41.33606103062628L43.032777777777774,47.42032912373543L43.72555555555556,37.64474016427992L43.85444444444445,33.68653890490531L43.983333333333334,78.93761467933655L44.40222222222222,63.017059832811356L44.547222222222224,82.28270140290259L44.611666666666665,12.564875900745392L44.64388888888889,17.868600606918328L44.86944444444445,32.719655752182L44.901666666666664,59.91384994983673L45.01444444444445,64.87809252738951L45.14333333333334,2.622570216655718L45.24,12.876541137695305L45.69111111111111,3.675409674644457L46.867222222222225,70.60854804515837L47.39888888888889,68.8166883289814L47.44722222222222,73.09126716852188L47.721111111111114,77.54124891757965L47.86611111111112,110.76908868551254L47.88222222222222,28.76308095455169L47.97888888888889,5.236953616142267L47.995000000000005,57.701343268156045L48.07555555555555,14.789998650550835L48.36555555555555,80.53232085704802L48.41388888888889,69.86190539598465L48.55888888888889,69.35215470194817L49.34833333333333,-31.98885220289233L49.39666666666667,62.0118888914585L49.49333333333333,56.653075486421585L49.59,10.450563549995415L49.67055555555556,20.49515169858931L49.83166666666667,53.292383521795266L49.928333333333335,86.35007780790328L50.00888888888889,-17.11261767148973L50.84666666666667,63.764810234308236L50.92722222222222,-104.01466208696365L50.943333333333335,-146.52237164974215L51.233333333333334,61.35410380363464L51.442777777777785,-14.011385917663587L51.65222222222222,54.54355460405348L52.26444444444444,67.04126906394957L52.538333333333334,47.11999636888504L52.86055555555556,-95.47649401426317L53.07,30.40375006198883L53.42444444444445,9.822133898735046L53.47277777777777,59.39978253841399L53.69833333333334,47.70292025804518L53.76277777777778,64.40955725312233L54.53611111111111,28.85753881931305L54.64888888888889,76.70883458852767L55.00333333333334,11.512229859828937L55.196666666666665,51.78191047906875L55.35777777777778,-19.645994484424605L55.84111111111111,83.95002689957617L56.01833333333333,26.42639172077179L56.147222222222226,74.39709615707397L56.24388888888889,76.3620377779007L56.75944444444444,85.63990306854247L56.82388888888889,98.57222568988799L57.22666666666667,13.028777956962578L57.48444444444444,49.50546187162399L57.50055555555556,22.518856942653642L57.74222222222222,90.64601165056229L57.806666666666665,15.160814344882965L58.080555555555556,-158.5271363258362L58.644444444444446,25.722177743911743L58.77333333333333,-25.553954124450698L59.095555555555556,122.6287422031164L59.32111111111111,53.50713801383972L59.46611111111111,52.34472778439521L59.56277777777778,39.41874396800995L59.64333333333333,89.36746326088904L59.75611111111111,-3.52389025688174L59.901111111111106,102.52939832210541L60.12666666666667,73.55527472496031L60.15888888888888,84.55604654550551L60.20722222222222,23.633537113666534L60.352222222222224,66.34299826622009L60.91611111111111,30.785634487867355L61.30277777777778,-39.19662731885913L61.64111111111111,29.70509243011474L61.93111111111111,96.04470413923262L62.07611111111111,138.79757863283157L62.28555555555556,101.56106454133987L62.333888888888886,-52.17879879474643L62.462777777777774,18.676521301269524L63.10722222222223,73.8841540813446L63.38111111111111,35.00758630037307L63.54222222222222,115.66095811128616L63.590555555555554,112.63150607049465L63.91277777777778,23.868503689765923L64.17055555555555,-72.34455066919327L64.46055555555556,109.6331853866577L64.65388888888889,34.134800553321824L64.92777777777778,85.06361690163612L65.02444444444444,58.355717182159424L65.41111111111111,108.48455172777174L65.62055555555555,86.64292883872986L65.66888888888889,104.94491380453108L65.685,99.13969379663467L65.8138888888889,111.92051810026169L65.87833333333333,-10.689711451530469L65.99111111111111,14.393792569637291L66.78055555555555,54.84727215766906L66.845,41.226261675357804L66.95777777777778,-9.619376540184048L67.10277777777777,40.186134994029985L67.45722222222221,86.15493756532669L67.52166666666666,81.09601733088493L67.65055555555556,-4.187504231929779L67.77944444444445,97.14585390686989L67.8438888888889,109.29764632880688L68.1661111111111,26.005744755268083L68.24666666666667,76.94300991296768L68.26277777777779,54.501178681850426L68.34333333333333,102.98643407225607L68.53666666666666,66.23606500029562L68.585,57.414549708366394L68.66555555555556,84.64663606882095L68.97166666666666,64.98278391361237L69.22944444444444,125.46531346440314L69.39055555555555,35.179173618555055L69.58388888888888,57.017033666372285L70.00277777777778,125.18301685154438L70.14777777777778,62.791069567203515L70.71166666666667,23.461747586727135L70.72777777777777,80.2039162516594L70.76,77.67092627286911L71.46888888888888,83.0230316221714L71.59777777777778,107.68992406129836L71.74277777777777,119.15231209993361L71.775,117.23237071931362L71.85555555555555,52.32045394182204L72.25833333333334,41.90225434303282L72.27444444444444,76.74744766950606L72.43555555555555,99.95768976211548L72.46777777777777,-122.74930346012117L72.54833333333333,-32.424831867218046L72.77388888888889,109.10166648030281L72.87055555555555,72.21303057670593L73.01555555555555,33.98797941207885L73.25722222222223,120.16306576132774L73.3538888888889,128.91910937428474L74.1111111111111,82.35397559404373L74.20777777777778,34.06669136881828L74.48166666666667,128.6045780479908L74.57833333333333,151.8403599858284L75.36777777777777,27.062487721443162L75.48055555555555,116.37675513327122L75.5611111111111,91.2544050514698L75.77055555555556,44.26827263832092L76.36666666666666,121.579256772995L76.59222222222223,38.67091444134711L77.1561111111111,-44.93504810333255L78.49333333333334,25.859714865684502L78.63833333333334,-46.80806386470795L78.78333333333333,131.0196407586336L78.88000000000001,116.29819703102112L79.26666666666667,114.55738183856009L80.02388888888889,133.96938298642635L80.15277777777779,149.63112381100655L80.73277777777778,72.2733415365219L80.99055555555556,-31.068626523017908L81.03888888888889,106.51872654259203L81.16777777777779,139.76299357414246L81.21611111111112,145.34136612713337L81.60277777777779,-0.8388744592666626L81.66722222222222,14.642843425273883L82.15055555555556,50.80055621266365L82.76277777777779,122.78730463981628L83.05277777777779,8.072342395782458L83.14944444444444,9.496349215507507L83.40722222222222,-67.30791735649109L83.69722222222222,102.25400757789612L83.71333333333334,106.5098865032196L84.26111111111112,26.94875848293303L84.42222222222222,128.74174591898918L84.47055555555556,110.11478510499L84.48666666666666,111.78514812886715L84.5188888888889,158.81735776364803L84.535,124.74004340171814L84.93777777777777,158.55990425497293L85.46944444444445,51.60403710603713L86.1138888888889,-55.11309403181076L86.61333333333334,96.87625688314436L87.04833333333335,39.93558955192566L87.1288888888889,63.04398876428604L87.48333333333333,141.28109120577574L87.78944444444444,148.0923920944333L88.03111111111112,-28.973989963531494L88.28888888888889,18.106081604957573L88.75611111111112,78.03715270757675L88.80444444444444,83.48565888404846L89.20722222222223,-39.62274271249774L89.6261111111111,111.02337059378624L89.9,-227.5763278007508L90.22222222222223,86.84888285398482L90.51222222222222,88.91819936037064L90.54444444444445,110.19058701395988L90.57666666666667,123.23007148504257L90.67333333333333,-73.4217079281807L91.12444444444445,120.69275160133839L91.35,142.51578886806965L92.25222222222223,149.94374734163284L92.31666666666668,154.0485257729888L92.49388888888888,163.2530903890729L92.99333333333333,59.75611832737922L93.12222222222222,32.16247391700743L93.33166666666668,3.064528226852417L93.41222222222223,72.46922028064728L93.67,41.37409386038779L93.75055555555555,89.85282582044601L93.78277777777778,48.29992842674255L93.94388888888888,69.82251864671706L94.00833333333333,-172.49902296066284L94.47555555555556,90.85978147387505L94.66888888888889,21.384993314743028L95.50666666666666,45.37059170007706L95.68388888888889,66.51440095901488L95.95777777777778,71.0775492787361L96.40888888888888,17.021029412746415L96.82777777777778,140.33026386797428L97.02111111111111,25.02292227745056L97.19833333333334,41.15643811225891L97.24666666666666,61.91673648357391L98.165,171.15195074863732L98.24555555555555,170.73176864348352L98.26166666666666,163.23892588540912L98.42277777777778,168.43457110971212L99.5988888888889,-41.708376586437254L99.7761111111111,0.7248849868774283L99.79222222222222,9.63662934303283L99.82444444444444,35.35002243518829L99.90499999999999,-57.302082955837264L99.92111111111112,14.447650432586663L100.32388888888889,75.75425979495049L100.40444444444444,-53.98427683115008L100.45277777777778,26.294586777687066L100.58166666666666,-48.74035316705704L100.90388888888889,57.00104159116745L100.95222222222222,-17.05868947505951L100.96833333333333,-49.28622889518739L101.21,63.622349768877015L101.56444444444445,70.66108715534209L101.77388888888889,53.32650405168532L101.80611111111111,75.64347577095032L102.01555555555557,42.963182151317596L102.61166666666666,-3.182421207427992L102.99833333333333,114.95382969081402L103.11111111111111,-14.583548784255981L103.20777777777776,54.204195559024804L103.59444444444445,-232.81314778327948L103.64277777777777,30.86316835880279L104.59333333333333,95.64825189113617L104.86722222222222,36.10376876592636L104.88333333333334,54.03483253717421L105.20555555555555,58.2524764239788L105.2538888888889,126.22265559434891L105.39888888888889,48.923338025808334L105.97888888888889,124.86683708429335L106.02722222222222,-222.65228080749515L106.285,116.32396546006203L106.78444444444445,93.1420765519142L107.23555555555555,75.7748411297798L107.36444444444444,64.06872999668121L107.42888888888889,18.505646109580994L107.55777777777777,83.64542138576506L107.735,62.0784683227539L108.1538888888889,4.705865502357477L108.23444444444445,77.71731999516487L108.49222222222222,82.87224543094635L108.75,147.0244726985693L108.8788888888889,145.87001894414425L109.02388888888889,-29.05053037405014L109.1688888888889,83.12680867314337L109.3461111111111,73.69689118862152L109.36222222222223,72.02087071537971L109.55555555555556,93.72592356801033L109.58777777777777,92.01376926898956L110.2,85.42575520277023L110.39333333333333,133.89799010753632L110.69944444444445,70.09442788362503L111.07000000000001,37.79351305961609L111.39222222222223,-69.2541326880455L112.16555555555556,-39.44300550222398L112.31055555555555,65.46609801054L112.35888888888888,58.364544034004204L112.3911111111111,19.338535189628594L113.21277777777777,164.26791789755225L113.2611111111111,166.45857174694538L113.58333333333333,171.29527060128748L113.61555555555556,172.46070352196693L113.63166666666666,170.43426076695323L113.74444444444445,173.75126987043768L114.03444444444443,10.344465494155884L114.48555555555556,48.211220324039445L114.80777777777779,29.072724103927605L114.93666666666667,35.8694967329502L115.4361111111111,51.70173031091689L115.71000000000001,49.950584888458245L116,22.141113400459275L116.12888888888888,32.48333525657653L116.62833333333333,122.73632165789604L117.06333333333333,63.44340381026267L117.43388888888889,33.277233213186264L117.9011111111111,94.4195171892643L118.07833333333333,78.27850204706192L118.33611111111111,125.01386043429375L118.56166666666667,150.80138281732798L118.89999999999999,78.41862392425536L119.54444444444444,-129.86483621597293L119.89888888888889,113.7806628346443L119.97944444444444,52.03743201494216L120.57555555555557,64.92838096618652L120.75277777777777,49.00222581624985L120.84944444444444,47.63107460737227L121.07499999999999,133.91210955381393L121.10722222222222,154.1059662476182L121.62277777777777,164.2544820047915L122.00944444444444,37.06141185760497L122.20277777777777,21.974282383918762L122.235,40.806775212287896L122.33166666666666,23.078377366065965L122.52499999999999,42.399520844221115L122.92777777777778,161.02119364589453L123.3788888888889,52.17138212919234L123.41111111111111,18.243407726287828L123.47555555555554,74.99473732709885L123.71722222222222,55.27321171760559L124.37777777777778,37.90458720922469L124.42611111111111,80.36081266403198L125.28,47.73455274105071L125.32833333333333,99.84016251564026L125.48944444444444,95.77089589834213L125.77944444444445,152.4663059860468L125.79555555555555,165.58905101194978L126.06944444444444,172.40524172596633L126.11777777777777,165.12136193737388L126.66555555555556,-95.53545105457306L127.24555555555555,-36.23664277791978L127.39055555555555,35.16189795732497L127.7288888888889,18.437914967536926L128.11555555555555,34.546919584274285L128.1961111111111,19.428280711173997L128.2927777777778,73.74501687288283L128.7277777777778,82.38370907306671L129.05,34.78760954737662L129.13055555555556,94.09739863872528L129.37222222222223,109.1513482928276L129.45277777777778,132.46944238245487L130.14555555555555,62.749599188566194L130.21,29.580672502517686L130.54833333333332,50.10649663209915L130.58055555555555,80.77737149596213L130.83833333333334,99.4533723294735L130.87055555555557,100.65713864564896L130.96722222222223,-71.75972777605058L130.99944444444446,31.717245399951928L131.28944444444446,140.67835085839033L131.66,80.14468666911124L131.805,60.90942916274071L132.11111111111111,40.49838048219681L132.28833333333333,112.45358434319496L132.32055555555556,90.29412445425986L132.41722222222222,81.54935178160667L132.62666666666667,97.83899915218352L132.91666666666666,0.7276104092597896L133.54500000000002,111.6091078221798L133.91555555555556,151.9849260598421L133.98000000000002,150.77806946635246L133.9961111111111,145.86864304542542L134.10888888888888,17.80280363559723L134.3827777777778,31.68505024909973L134.56,5.468632102012628L134.73722222222221,47.5699548125267L134.85,64.38750770688057L134.94666666666666,33.93139612674712L135.33333333333334,164.5272879935801L136.2838888888889,169.27283905260265L136.86388888888888,20.7119722366333L136.88,-50.39027112722397L136.94444444444443,70.59681993722916L137.26666666666665,61.23521384596825L137.2827777777778,105.45946915447712L137.29888888888888,108.0812683403492L137.42777777777778,0.9335644245147574L138.13666666666666,5.662770092487322L138.24944444444444,73.96432545781134L138.29777777777778,70.9023134112358L138.6038888888889,131.59153547883034L139.4738888888889,167.4912145063281L139.6188888888889,170.1507118884474L139.6511111111111,166.2614335939288L139.71555555555557,171.66740559786558L139.81222222222223,172.0716148596257L139.86055555555555,158.95152327418327L139.97333333333333,-50.15767830610278L140.10222222222222,87.9659719467163L140.15055555555554,48.967947036027894L140.3438888888889,99.12931081652641L140.7788888888889,71.8255106806755L140.84333333333333,-0.30620384216308594L141.02055555555555,45.37781846523285L141.19777777777776,-112.5221120119095L142.29333333333332,90.47445949912071L142.51888888888888,52.01265704631804L142.64777777777778,141.6662087738514L142.87333333333333,86.40551817417143L142.88944444444445,96.53697696328163L143.30833333333334,148.15564826875925L143.5338888888889,135.80422085523605L143.93666666666667,132.62926203012466L144.4038888888889,170.46307936124504L144.45222222222222,164.46208226308227L144.8711111111111,48.558456718921654L145.1611111111111,92.47926262021065L145.22555555555556,108.21993958950043L145.62833333333333,119.93030589818954L146.04722222222222,161.0158922597766L146.46611111111113,77.29693678021431L146.7077777777778,26.4797220826149L146.83666666666664,117.73591008782387L146.8527777777778,150.08743864297867L147.2072222222222,98.92195892333983L147.27166666666668,21.43911492824553L147.49722222222223,104.13352479040621L148.14166666666668,107.57888947427273L148.28666666666666,118.25230729579926L148.48,58.856869608163834L148.78611111111113,118.87835440039633L148.83444444444444,106.77054238319396L148.97944444444443,135.46217595040798L149.83333333333334,169.44439285248518L150.01055555555553,174.33969076070935L150.30055555555555,173.12550602294505L150.46166666666667,163.7806090787053L150.47777777777776,155.7627175450325L150.76777777777775,106.43895518779753L150.7838888888889,102.0485546886921L151.15444444444447,37.597528815269456L151.2188888888889,107.98948314785957L151.46055555555554,4.699764072895037L151.9438888888889,90.79183053970337L152.0888888888889,70.10390532016754L152.13722222222222,105.31259965896606L152.25,61.19878989458084L152.4111111111111,87.16603410243988L152.45944444444444,103.00193381309509L152.54000000000002,83.38268187642097L152.70111111111112,94.41108596324919L153.08777777777777,144.9500350356102L153.23277777777778,28.609367132186883L153.5388888888889,91.47149813175201L153.8127777777778,49.75498747825622L154.81166666666667,85.39324355125426L155.37555555555556,125.50798830389975L155.64944444444444,119.42116183042526L155.81055555555554,151.62154373526573L155.89111111111112,145.36494982242584L156.06833333333333,-24.705697178840662L156.165,26.315247237682343L156.27777777777777,14.134191691875458L156.56777777777776,138.67926892638206L156.64833333333334,120.69963549077511L156.72888888888886,137.62634594738483L157.01888888888888,98.4140984416008L157.1961111111111,150.26940894126892L157.24444444444447,163.28573831170797L157.56666666666666,172.198214026168L157.69555555555556,174.7831364888698L157.85666666666665,175.10098804999143L158.05,174.93361373478547L158.42055555555555,167.60912309214473L158.50111111111113,170.44187876209617L159.48388888888888,83.94614976644515L159.5,105.94368439912795L160.01555555555558,60.610344827175126L160.70833333333334,153.40466012060642L160.83722222222224,-225.70011186599737L160.9661111111111,79.31317788362503L160.98222222222222,12.00841498374939L161.53,1.9096700549125671L161.7072222222222,147.93192405998707L161.90055555555554,43.90463095903396L162.17444444444442,118.75448395311831L163.14111111111112,81.87382650375366L163.52777777777777,91.67639714479446L164.01111111111112,126.83830213546753L164.07555555555558,58.07184246182442L164.3011111111111,116.31175380945206L164.575,-47.606735706329374L164.67166666666665,-38.63534855842592L165.34833333333336,63.39366045594215L165.60611111111112,160.09021793305874L165.78333333333333,162.04752287641168L165.92833333333334,-8.47802239656451L166.0572222222222,54.51062095165252L166.37944444444446,98.26629263162613L166.41166666666666,32.06195858120917L166.45999999999998,135.38339366018772L166.49222222222224,148.9493594020605L166.58888888888887,125.37256997823715L166.91111111111113,82.9825986623764L166.95944444444444,87.09221032261848L167.04,87.24420976638794L167.185,81.63563337922096L168.31277777777777,170.9697617571801L168.635,175.26837871223688L168.65111111111113,174.82479726243764L168.68333333333334,165.48054513335228L168.9088888888889,174.49920297414064L168.97333333333333,173.33073966950178L169.11833333333334,174.86972359754145L169.13444444444443,172.39520821534097L169.215,169.96534470282495L169.29555555555555,170.12990471720695L169.53722222222223,173.23597409576178L170.0366666666667,175.74975108308718L170.23,175.84022164391354L170.34277777777777,175.3647001395002L170.42333333333335,175.50279168691486L170.64888888888888,-263.706285238266L170.79388888888892,39.26801931858061L171.21277777777777,86.95621174573898L171.32555555555555,109.4960394948721L171.34166666666667,111.65145736932753L171.48666666666668,48.316720545291886L172.0988888888889,91.66011494398116L172.2277777777778,110.72781172394753L172.2438888888889,82.48925325274467L172.3083333333333,93.35501995682716L172.82388888888892,114.25699193775654L173.58111111111108,129.22832173109055L173.64555555555555,109.24620617926121L173.93555555555554,108.78649336099623L174.01611111111112,136.292067065835L174.3061111111111,77.07026955485344L174.35444444444445,117.99744953215122L174.69277777777776,95.1829959154129L174.87,153.1846262216568L175.25666666666666,-33.474383234977736L175.36944444444447,88.33466884493826L175.64333333333335,103.06294810771941L175.67555555555555,81.40439447760582L175.72388888888887,127.1991480588913L176.06222222222223,67.45727401971817L176.09444444444443,49.64854654669762L176.175,101.73135948181152L176.35222222222222,127.19992172718047L176.54555555555555,43.67605593800543L176.81944444444446,148.77143547683954L177.10944444444445,48.9428116083145L177.2061111111111,72.06657868623734L177.3672222222222,121.83844444155693L177.65722222222223,26.195803403854356L177.67333333333335,20.41307252645491L178.10833333333332,140.01979430019855L178.23722222222221,114.32960246503353L178.3983333333333,111.34399895370007L178.57555555555555,161.7774357162416L178.9138888888889,170.26745722442865L179.20388888888888,171.79364595375955L179.71944444444443,169.89080495014787L179.8322222222222,168.21957979165018L180.67,105.27519983053207L180.70222222222222,69.79887780547142L180.86333333333334,73.32750853896141L180.97611111111112,72.96476361155509L181.4111111111111,64.88254991173743L181.74944444444444,85.68994534015656L181.91055555555556,104.05115988850594L182.16833333333332,60.55439454317093L182.20055555555558,110.03536541759966L182.31333333333333,80.13066393136978L182.82888888888888,110.44989776611328L182.90944444444443,50.87647241353987L183.08666666666664,3.5680456161498957L183.16722222222222,36.45482954382895L183.86,138.7239746451378L183.90833333333333,132.27092173695564L184.23055555555558,70.87988582253456L184.32722222222222,126.1570784151554L184.34333333333333,131.5864363014698L184.76222222222222,96.77924942970274L184.875,99.46721044182776L185.89000000000001,122.11802881956099L186.035,63.55944526195525L186.14777777777778,122.518402159214L186.19611111111112,53.57578349113464L186.3088888888889,92.46385079622269L186.35722222222222,108.42647385597228L186.71166666666667,97.95163822174072L186.8888888888889,100.35432663559914L187.06611111111113,127.33749841153622L187.25944444444443,139.98044711351395L187.27555555555557,147.64894389361143L187.3238888888889,124.34709903597832L187.71055555555554,117.16139104962348L187.80722222222224,133.92734114825726L188.17777777777778,156.34663709253073L188.3388888888889,168.0413465090096L188.46777777777777,99.80627056956291L189.45055555555555,156.61143385618925L189.59555555555556,62.451974272727966L189.74055555555555,21.0175887942314L190.30444444444444,117.49791477620602L190.75555555555556,117.20745947957039L190.80388888888888,76.08840537071228L191.44833333333332,-172.459108710289L191.83499999999998,110.53667169809341L191.9961111111111,116.12995494902133L192.88222222222223,168.54196648858488L193.09166666666667,41.464287757873535L193.55888888888887,76.24406215548515L194.13888888888889,85.34145173430443L194.21944444444443,126.8179230093956L194.23555555555555,91.83655527234077L194.26777777777778,103.52654245495795L194.4933333333333,96.48115855455397L194.68666666666667,79.33266904950142L195.05722222222224,82.29135242104529L195.1538888888889,69.8958061337471L195.39555555555557,110.56266871094702L195.4922222222222,70.8182297348976L195.65333333333334,120.32334257662296L196.04000000000002,168.6142280958593L196.3138888888889,170.76222908496857L196.66833333333335,171.4578667730093L197.1677777777778,49.99682915210724L197.28055555555554,28.109929084777825L197.45777777777778,36.953485131263726L197.71555555555557,48.22651785612105L197.78,-8.533814430236829L197.89277777777778,80.20946380496024L197.97333333333333,55.422318696975694L198.65,-18.714322030544295L199.23000000000002,130.77074375748634L199.6811111111111,109.73580193519592L199.71333333333334,69.77865692973135L199.72944444444445,100.5405345261097L199.76166666666666,118.1635112762451L199.85833333333335,-7.612551331520107L200.00333333333333,136.36113014817238L200.1,151.4545193016529L200.18055555555554,-345.2557407617569L200.64777777777778,89.90505722165108L200.87333333333333,165.239417783916L201.05055555555555,-10.592141330242184L201.21166666666664,75.04504334926604L201.2761111111111,39.7727235853672L201.29222222222222,42.971991419792175L201.74333333333334,84.597446590662L201.88833333333335,145.35263047367334L202.01722222222222,-16.996919095516205L202.2588888888889,74.53528386354446L202.275,95.43218743801117L202.46833333333333,126.75459210574626L202.96777777777777,125.18856880068779L203.11277777777775,37.3686724603176L203.32222222222222,139.61567130684853L203.38666666666668,148.51814922690392L203.4672222222222,166.02257999405265L203.61222222222221,170.70730193331838L203.74111111111114,167.87881792336702L203.8538888888889,145.25101617723703L203.86999999999998,119.2289316356182L204.1438888888889,120.7142912298441L204.6272222222222,77.50381392240524L204.78833333333336,109.94584408402443L205.38444444444443,171.0138548053801L205.52944444444447,175.39620308252051L205.54555555555555,172.8810982760042L205.64222222222222,-211.41773808002472L205.89999999999998,79.10425227880478L206.01277777777776,31.616897106170654L206.4638888888889,116.65090624988079L206.48,102.81858322024344L206.625,-175.4814087152481L206.70555555555555,96.76831257343292L206.88277777777776,142.32185088843107L207.02777777777777,79.50216394662856L207.25333333333333,145.00661612302065L207.43055555555557,46.73724156618118L207.86555555555555,78.1388549208641L207.9138888888889,94.94568195939063L208.0588888888889,124.93920144438744L208.46166666666667,170.135841852054L208.5261111111111,168.21513944119215L208.6711111111111,166.89101385697722L208.89666666666668,172.37656215019524L208.99333333333334,172.62254196032882L209.02555555555554,173.07345265336335L209.57333333333332,75.50772336125374L209.67,105.84268552064896L209.76666666666668,88.38846516609192L209.79888888888888,101.83489036560059L209.815,85.79190251231192L209.97611111111112,98.22622892260551L210.05666666666667,98.33593156933783L210.28222222222223,130.49922575056553L210.4272222222222,128.71635553240776L210.685,98.56244054436682L211.08777777777777,129.0659524947405L211.39388888888888,139.2780705988407L211.5388888888889,163.19262227788568L211.82888888888888,167.6809764355421L212.26388888888889,118.39538757503031L212.63444444444445,93.59155145287514L212.66666666666666,89.90523305535316L212.68277777777777,107.65983891487122L213.50444444444443,123.36247426271439L213.63333333333335,137.02765856683254L213.68166666666667,134.37532146275043L213.82666666666665,-102.46284174919131L214.4388888888889,130.1713354587555L214.93833333333333,123.83459654450415L215.26055555555556,110.16205799579619L215.48611111111111,102.39330303668976L215.56666666666666,121.68313932418823L216.06611111111113,172.53158098831773L216.19500000000002,170.57361721806228L216.22722222222222,171.1081489250064L216.775,-303.6456798315049L216.82333333333335,28.342943906784043L217.04888888888888,96.56508398056029L217.09722222222223,-79.15460753440858L217.27444444444444,62.07384389638899L217.3711111111111,63.34291484951972L217.8222222222222,110.9025816321373L217.87055555555557,111.72726367413998L217.88666666666666,102.20573243498801L217.98333333333335,119.86092191934586L218.01555555555555,116.77373048663138L218.28944444444443,-85.82042801380159L218.41833333333332,46.594042599201195L218.56333333333333,90.91394704580307L218.80499999999998,108.35381497442722L219.06277777777777,125.17518346011639L219.6911111111111,106.02535915374756L219.88444444444445,84.83171862363814L219.91666666666666,61.78792950510979L220.07777777777775,81.97042953968048L220.255,88.19108304381369L220.36777777777777,157.46491086483002L220.48055555555558,158.15218326449394L220.51277777777779,159.95811297371984L220.78666666666666,167.72591403499246L221.09277777777777,109.41073377430439L221.67277777777778,113.92273207008837L221.83388888888888,38.55610382556914L222.10777777777776,137.59727624058723L222.20444444444445,94.97990798950195L222.34944444444443,147.2945400774479L222.83277777777778,172.29389118775725L223.20333333333335,170.9019690733403L223.21944444444443,174.33230134937912L223.50944444444443,173.89347812440246L223.96055555555554,175.62197616603225L224.04111111111112,174.91182807646692L224.25055555555554,-211.01616907119757L224.47611111111112,67.36691308021545L224.605,93.39498695731162L224.68555555555557,54.20871448516846L224.71777777777777,16.324991703033433L224.73388888888888,34.226638495922074L225.05611111111114,81.59718734025954L225.13666666666666,-55.21943825483322L225.36222222222221,90.80721598863602L225.5233333333333,92.75933933258057L225.6038888888889,83.77429869771004L225.71666666666667,26.65451836585997L226.02277777777778,126.63577687740326L226.2161111111111,96.30061250925064L226.78,25.685463666915894L226.92499999999998,109.73225009441374L227.69833333333332,101.32399675250053L227.77888888888887,117.86174987256527L228.02055555555555,128.7468934506178L228.19777777777776,-46.98922532796861L228.26222222222222,100.07876005768776L228.52,130.47486399114132L228.72944444444445,145.57617005705833L229.05166666666668,99.719347178936L229.19666666666666,27.053203701972947L229.32555555555555,130.73644299805164L229.64777777777778,94.85524189472197L229.90555555555557,-0.5912478566170001L230.22777777777776,133.02017991244793L230.2761111111111,141.5351379364729L230.5338888888889,166.5832334458828L230.79166666666666,167.88861625641584L230.96888888888887,173.1071572266519L231.93555555555557,129.32007175683975L232.08055555555555,129.3931834101677L232.09666666666666,136.82577949762344L232.58,166.77070733904839L232.8861111111111,173.68436349835247L232.93444444444444,172.10390397161245L233.2888888888889,-194.20003163814548L233.99777777777777,31.032927006483078L234.3361111111111,53.17157697677611L234.4327777777778,46.01434525847434L234.465,68.72048971056937L234.8033333333333,43.43571764230728L235.15777777777777,52.769339799880974L235.625,123.28640420734881L236.3661111111111,113.40056312084198L236.6238888888889,157.56150510907173L236.8172222222222,69.45848134160042L237.76777777777778,73.52293890714644L238.02555555555557,123.1726090312004L238.525,116.33768048882484L238.6538888888889,143.89665269106627L238.99222222222224,169.37991573289037L239.395,170.58952961862087L239.47555555555556,173.82162890210748L239.685,-382.8947733640671L239.89444444444445,101.89062964916228L239.99111111111114,70.18878024816513L240.6677777777778,94.61890381574631L240.6838888888889,64.41608947515488L240.76444444444445,85.76800671219824L241.0061111111111,97.64161702990532L241.94055555555556,164.4248417839408L242.21444444444444,171.17401073500514L242.64944444444444,138.67791061103344L242.66555555555553,107.48667788505553L242.79444444444445,51.43397954106331L242.98777777777778,140.46278093755245L243.0361111111111,138.93337060511112L243.18111111111114,171.24546295776963L243.42277777777775,169.01028636656702L243.48722222222221,166.54466432332993L243.51944444444445,171.41223957575858L243.7611111111111,175.75556238694116L244.05111111111108,173.55973311979324L244.3411111111111,174.92206750484183L244.58277777777778,173.69194577727467L244.7438888888889,175.68586767697707L244.79222222222222,164.82207319512963L244.98555555555555,117.15391811728477L245.00166666666667,148.07204593718052L245.0661111111111,85.97486627101897L245.51722222222222,100.14395040273666L245.9361111111111,67.96484437584876L246.4677777777778,117.86079597473145L246.70944444444447,129.98371650278568L247.28944444444446,152.37856936454773L247.37,90.10614064335823L248.14333333333335,145.06050475686789L248.20777777777778,130.55768166482449L248.53,79.31345921754837L249.30333333333334,147.531040802598L249.31944444444446,144.1108379215002L249.73833333333332,87.42871206998824L249.78666666666666,-30.719192206859603L250.46333333333334,2.200709998607629L250.7211111111111,138.51184007525444L251.28500000000003,33.74495086073874L251.52666666666664,120.49656514823437L251.65555555555554,140.88097941875458L251.73611111111111,165.85424779728055L251.7522222222222,164.8410181775689L252.28388888888887,171.18452833779156L252.5577777777778,92.4854080080986L252.60611111111112,-73.44838190078738L252.65444444444444,99.71760642528534L252.86388888888888,-97.82674002647403L253.29888888888888,100.64759087562561L253.5888888888889,83.3541792333126L253.70166666666668,159.8990482352674L253.81444444444446,135.17810781300068L254.1688888888889,27.475872755050652L254.50722222222223,109.2377485781908L254.71666666666667,70.56170594692229L255.28055555555557,6.601387977600091L255.6511111111111,125.62470671534538L255.69944444444442,94.84187853336334L255.9088888888889,161.95484422892332L255.97333333333336,167.67910270765424L256.07,172.09056423790753L256.7627777777778,174.9964411770925L256.7788888888889,168.45346499048173L257.085,170.86402965523303L257.1333333333333,-130.66829073429108L257.2622222222222,116.35340002179146L257.2783333333333,121.78916704654694L257.2944444444444,120.0808898806572L257.3911111111111,92.27591973543166L257.71333333333337,74.03960865736008L257.74555555555554,70.04638132452965L258.03555555555556,80.21955665946007L258.8411111111111,129.66681142151356L259.06666666666666,138.2577735632658L259.16333333333336,73.85244247317313L259.7111111111111,169.8944392129779L260.37166666666667,42.12399822473525L260.8227777777778,85.28957200050354L261.2577777777778,85.23503717780113L261.3383333333333,101.1239683330059L261.435,111.75591138005257L261.80555555555554,125.58172416687012L262.2083333333333,152.94416704028845L262.4016666666667,11.733956158161163L262.41777777777776,105.26234638690948L262.51444444444445,85.26238811016083L262.65944444444443,101.95754316449164L262.93333333333334,161.79891600087285L263.12666666666667,88.0707776248455L263.2233333333333,57.660039931535714L263.54555555555555,103.52674466371536L263.61,145.51551841944456L263.99666666666667,172.80473836977035L264.0288888888889,171.93102867156267L264.1738888888889,172.06422544829547L264.9794444444444,98.55967116355895L265.3661111111111,69.43709117174149L265.3822222222222,110.97175021469593L265.7366666666667,91.66204911470413L266.30055555555555,119.36006401479244L266.31666666666666,130.99135790765285L266.7033333333333,121.28582109510899L266.73555555555555,124.88826242089272L266.75166666666667,124.14549690485L267.235,135.5249925404787L267.6377777777778,147.03831520676613L267.6861111111111,125.17305147647856L267.71833333333336,151.11319971084595L267.96000000000004,163.59241976216435L268.0566666666667,141.5982138812542L268.37888888888887,108.36464193463326L268.54,143.6829575970769L268.5561111111111,120.53250555694102L268.685,48.87757730484009L268.74944444444446,63.42605781555176L268.8461111111111,125.06476429104805L269.1038888888889,129.59306237101555L269.7966666666667,160.41507399454713L269.99,162.35394057631493L270.1672222222222,70.97459864616394L270.3283333333333,56.45480540394782L270.34444444444443,85.71004313230515L270.4088888888889,86.73647236824034L270.4733333333333,105.96163702011108L270.53777777777776,139.9374821484089L270.81166666666667,146.35212418437004L270.90833333333336,160.249456230551L270.97277777777776,167.41598405689L271.005,158.71027723699808L271.40777777777777,101.56827372312544L271.7138888888889,169.97715962864459L271.82666666666665,166.65056896209717L271.84277777777777,171.27311995066702L272.10055555555556,163.85432076454163L272.1488888888889,172.24890908040106L272.6644444444444,80.67688253521918L272.68055555555554,98.17540419101715L272.69666666666666,46.536808729171746L273.0833333333333,122.47253154218197L273.3088888888889,147.02804432064295L273.53444444444443,163.88129695132375" style="fill: none;" fill="none"></path></g></g></g></g></g></g><g transform="translate(40, 177)" clip-path="url(#clip_1)"><clipPath id="clip_1"><rect width="290" height="23"></rect></clipPath><g><g><line x1="0" y1="0" x2="0" y2="5" style="visibility: inherit;" fill="rgb(0, 0, 0)" stroke="rgb(204, 204, 204)" stroke-width="1px"></line><line x1="32.22222222222222" y1="0" x2="32.22222222222222" y2="5" style="visibility: inherit;" fill="rgb(0, 0, 0)" stroke="rgb(204, 204, 204)" stroke-width="1px"></line><line x1="64.44444444444444" y1="0" x2="64.44444444444444" y2="5" style="visibility: inherit;" fill="rgb(0, 0, 0)" stroke="rgb(204, 204, 204)" stroke-width="1px"></line><line x1="96.66666666666666" y1="0" x2="96.66666666666666" y2="5" style="visibility: inherit;" fill="rgb(0, 0, 0)" stroke="rgb(204, 204, 204)" stroke-width="1px"></line><line x1="128.88888888888889" y1="0" x2="128.88888888888889" y2="5" style="visibility: inherit;" fill="rgb(0, 0, 0)" stroke="rgb(204, 204, 204)" stroke-width="1px"></line><line x1="161.11111111111111" y1="0" x2="161.11111111111111" y2="5" style="visibility: inherit;" fill="rgb(0, 0, 0)" stroke="rgb(204, 204, 204)" stroke-width="1px"></line><line x1="193.33333333333331" y1="0" x2="193.33333333333331" y2="5" style="visibility: inherit;" fill="rgb(0, 0, 0)" stroke="rgb(204, 204, 204)" stroke-width="1px"></line><line x1="225.55555555555557" y1="0" x2="225.55555555555557" y2="5" style="visibility: inherit;" fill="rgb(0, 0, 0)" stroke="rgb(204, 204, 204)" stroke-width="1px"></line><line x1="257.77777777777777" y1="0" x2="257.77777777777777" y2="5" style="visibility: inherit;" fill="rgb(0, 0, 0)" stroke="rgb(204, 204, 204)" stroke-width="1px"></line><line x1="290" y1="0" x2="290" y2="5" style="visibility: inherit;" fill="rgb(0, 0, 0)" stroke="rgb(204, 204, 204)" stroke-width="1px"></line></g><g transform="translate(0, 8)"><text x="0" y="0" dx="0em" dy="0.95em" style="text-anchor: middle; visibility: hidden; font-family: Roboto, sans-serif; font-size: 12px; font-weight: 200;" fill="rgb(255, 255, 255)" stroke="none" stroke-width="1px">-2k</text><text x="32.22222222222222" y="0" dx="0em" dy="0.95em" style="text-anchor: middle; visibility: inherit; font-family: Roboto, sans-serif; font-size: 12px; font-weight: 200;" fill="rgb(255, 255, 255)" stroke="none" stroke-width="1px">0</text><text x="64.44444444444444" y="0" dx="0em" dy="0.95em" style="text-anchor: middle; visibility: inherit; font-family: Roboto, sans-serif; font-size: 12px; font-weight: 200;" fill="rgb(255, 255, 255)" stroke="none" stroke-width="1px">2k</text><text x="96.66666666666666" y="0" dx="0em" dy="0.95em" style="text-anchor: middle; visibility: inherit; font-family: Roboto, sans-serif; font-size: 12px; font-weight: 200;" fill="rgb(255, 255, 255)" stroke="none" stroke-width="1px">4k</text><text x="128.88888888888889" y="0" dx="0em" dy="0.95em" style="text-anchor: middle; visibility: inherit; font-family: Roboto, sans-serif; font-size: 12px; font-weight: 200;" fill="rgb(255, 255, 255)" stroke="none" stroke-width="1px">6k</text><text x="161.11111111111111" y="0" dx="0em" dy="0.95em" style="text-anchor: middle; visibility: inherit; font-family: Roboto, sans-serif; font-size: 12px; font-weight: 200;" fill="rgb(255, 255, 255)" stroke="none" stroke-width="1px">8k</text><text x="193.33333333333331" y="0" dx="0em" dy="0.95em" style="text-anchor: middle; visibility: inherit; font-family: Roboto, sans-serif; font-size: 12px; font-weight: 200;" fill="rgb(255, 255, 255)" stroke="none" stroke-width="1px">10k</text><text x="225.55555555555557" y="0" dx="0em" dy="0.95em" style="text-anchor: middle; visibility: inherit; font-family: Roboto, sans-serif; font-size: 12px; font-weight: 200;" fill="rgb(255, 255, 255)" stroke="none" stroke-width="1px">12k</text><text x="257.77777777777777" y="0" dx="0em" dy="0.95em" style="text-anchor: middle; visibility: inherit; font-family: Roboto, sans-serif; font-size: 12px; font-weight: 200;" fill="rgb(255, 255, 255)" stroke="none" stroke-width="1px">14k</text><text x="290" y="0" dx="0em" dy="0.95em" style="text-anchor: middle; visibility: hidden; font-family: Roboto, sans-serif; font-size: 12px; font-weight: 200;" fill="rgb(255, 255, 255)" stroke="none" stroke-width="1px">16k</text></g><line x1="0" y1="0" x2="290" y2="0" fill="rgb(0, 0, 0)" stroke="rgb(204, 204, 204)" stroke-width="1px"></line></g></g></g></g></svg>