<svg viewBox="0 0 330 200" xmlns="http://www.w3.org/2000/svg"><g><g><g><g><g><line x1="40" y1="177" x2="35" y2="177" style="visibility: inherit;" fill="rgb(0, 0, 0)" stroke="rgb(204, 204, 204)" stroke-width="1px"></line><line x1="40" y1="154.875" x2="35" y2="154.875" style="visibility: inherit;" fill="rgb(0, 0, 0)" stroke="rgb(204, 204, 204)" stroke-width="1px"></line><line x1="40" y1="132.75" x2="35" y2="132.75" style="visibility: inherit;" fill="rgb(0, 0, 0)" stroke="rgb(204, 204, 204)" stroke-width="1px"></line><line x1="40" y1="110.625" x2="35" y2="110.625" style="visibility: inherit;" fill="rgb(0, 0, 0)" stroke="rgb(204, 204, 204)" stroke-width="1px"></line><line x1="40" y1="88.5" x2="35" y2="88.5" style="visibility: inherit;" fill="rgb(0, 0, 0)" stroke="rgb(204, 204, 204)" stroke-width="1px"></line><line x1="40" y1="66.375" x2="35" y2="66.375" style="visibility: inherit;" fill="rgb(0, 0, 0)" stroke="rgb(204, 204, 204)" stroke-width="1px"></line><line x1="40" y1="44.25" x2="35" y2="44.25" style="visibility: inherit;" fill="rgb(0, 0, 0)" stroke="rgb(204, 204, 204)" stroke-width="1px"></line><line x1="40" y1="22.125" x2="35" y2="22.125" style="visibility: inherit;" fill="rgb(0, 0, 0)" stroke="rgb(204, 204, 204)" stroke-width="1px"></line><line x1="40" y1="0" x2="35" y2="0" style="visibility: inherit;" fill="rgb(0, 0, 0)" stroke="rgb(204, 204, 204)" stroke-width="1px"></line></g><g transform="translate(30, 0)"><text x="0" y="177" dx="0em" dy="0.3em" style="text-anchor: end; visibility: hidden; font-family: Roboto, sans-serif; font-size: 12px; font-weight: 200;" fill="rgb(255, 255, 255)" stroke="none" stroke-width="1px">1</text><text x="0" y="154.875" dx="0em" dy="0.3em" style="text-anchor: end; visibility: inherit; font-family: Roboto, sans-serif; font-size: 12px; font-weight: 200;" fill="rgb(255, 255, 255)" stroke="none" stroke-width="1px">1.5</text><text x="0" y="132.75" dx="0em" dy="0.3em" style="text-anchor: end; visibility: hidden; font-family: Roboto, sans-serif; font-size: 12px; font-weight: 200;" fill="rgb(255, 255, 255)" stroke="none" stroke-width="1px">2</text><text x="0" y="110.625" dx="0em" dy="0.3em" style="text-anchor: end; visibility: inherit; font-family: Roboto, sans-serif; font-size: 12px; font-weight: 200;" fill="rgb(255, 255, 255)" stroke="none" stroke-width="1px">2.5</text><text x="0" y="88.5" dx="0em" dy="0.3em" style="text-anchor: end; visibility: hidden; font-family: Roboto, sans-serif; font-size: 12px; font-weight: 200;" fill="rgb(255, 255, 255)" stroke="none" stroke-width="1px">3</text><text x="0" y="66.375" dx="0em" dy="0.3em" style="text-anchor: end; visibility: inherit; font-family: Roboto, sans-serif; font-size: 12px; font-weight: 200;" fill="rgb(255, 255, 255)" stroke="none" stroke-width="1px">3.5</text><text x="0" y="44.25" dx="0em" dy="0.3em" style="text-anchor: end; visibility: hidden; font-family: Roboto, sans-serif; font-size: 12px; font-weight: 200;" fill="rgb(255, 255, 255)" stroke="none" stroke-width="1px">4</text><text x="0" y="22.125" dx="0em" dy="0.3em" style="text-anchor: end; visibility: inherit; font-family: Roboto, sans-serif; font-size: 12px; font-weight: 200;" fill="rgb(255, 255, 255)" stroke="none" stroke-width="1px">4.5</text><text x="0" y="0" dx="0em" dy="0.3em" style="text-anchor: end; visibility: hidden; font-family: Roboto, sans-serif; font-size: 12px; font-weight: 200;" fill="rgb(255, 255, 255)" stroke="none" stroke-width="1px">5</text></g><line x1="40" y1="0" x2="40" y2="177" fill="rgb(0, 0, 0)" stroke="rgb(204, 204, 204)" stroke-width="1px"></line></g></g><g transform="translate(40, 0)" clip-path="url(#clip_0)"><clipPath id="clip_0"><rect width="290" height="177"></rect></clipPath><g><g><g><line x1="0" y1="0" x2="0" y2="177" fill="rgb(0, 0, 0)" stroke="rgb(189, 189, 189)" stroke-width="1px" opacity="0.25"></line><line x1="32.22222222222222" y1="0" x2="32.22222222222222" y2="177" fill="rgb(0, 0, 0)" stroke="rgb(189, 189, 189)" stroke-width="1px" opacity="0.25"></line><line x1="64.44444444444444" y1="0" x2="64.44444444444444" y2="177" fill="rgb(0, 0, 0)" stroke="rgb(189, 189, 189)" stroke-width="1px" opacity="0.25"></line><line x1="96.66666666666666" y1="0" x2="96.66666666666666" y2="177" fill="rgb(0, 0, 0)" stroke="rgb(189, 189, 189)" stroke-width="1px" opacity="0.25"></line><line x1="128.88888888888889" y1="0" x2="128.88888888888889" y2="177" fill="rgb(0, 0, 0)" stroke="rgb(189, 189, 189)" stroke-width="1px" opacity="0.25"></line><line x1="161.11111111111111" y1="0" x2="161.11111111111111" y2="177" fill="rgb(0, 0, 0)" stroke="rgb(189, 189, 189)" stroke-width="1px" opacity="0.25"></line><line x1="193.33333333333331" y1="0" x2="193.33333333333331" y2="177" fill="rgb(0, 0, 0)" stroke="rgb(189, 189, 189)" stroke-width="1px" opacity="0.25"></line><line x1="225.55555555555557" y1="0" x2="225.55555555555557" y2="177" fill="rgb(0, 0, 0)" stroke="rgb(189, 189, 189)" stroke-width="1px" opacity="0.25"></line><line x1="257.77777777777777" y1="0" x2="257.77777777777777" y2="177" fill="rgb(0, 0, 0)" stroke="rgb(189, 189, 189)" stroke-width="1px" opacity="0.25"></line><line x1="290" y1="0" x2="290" y2="177" fill="rgb(0, 0, 0)" stroke="rgb(189, 189, 189)" stroke-width="1px" opacity="0.25"></line></g><g><line x1="0" y1="177" x2="290" y2="177" fill="rgb(0, 0, 0)" stroke="rgb(189, 189, 189)" stroke-width="1px" opacity="0.25"></line><line x1="0" y1="154.875" x2="290" y2="154.875" fill="rgb(0, 0, 0)" stroke="rgb(189, 189, 189)" stroke-width="1px" opacity="0.25"></line><line x1="0" y1="132.75" x2="290" y2="132.75" fill="rgb(0, 0, 0)" stroke="rgb(189, 189, 189)" stroke-width="1px" opacity="0.25"></line><line x1="0" y1="110.625" x2="290" y2="110.625" fill="rgb(0, 0, 0)" stroke="rgb(189, 189, 189)" stroke-width="1px" opacity="0.25"></line><line x1="0" y1="88.5" x2="290" y2="88.5" fill="rgb(0, 0, 0)" stroke="rgb(189, 189, 189)" stroke-width="1px" opacity="0.25"></line><line x1="0" y1="66.375" x2="290" y2="66.375" fill="rgb(0, 0, 0)" stroke="rgb(189, 189, 189)" stroke-width="1px" opacity="0.25"></line><line x1="0" y1="44.25" x2="290" y2="44.25" fill="rgb(0, 0, 0)" stroke="rgb(189, 189, 189)" stroke-width="1px" opacity="0.25"></line><line x1="0" y1="22.125" x2="290" y2="22.125" fill="rgb(0, 0, 0)" stroke="rgb(189, 189, 189)" stroke-width="1px" opacity="0.25"></line><line x1="0" y1="0" x2="290" y2="0" fill="rgb(0, 0, 0)" stroke="rgb(189, 189, 189)" stroke-width="1px" opacity="0.25"></line></g></g></g><g><g><line x1="0" y1="221.25" x2="290" y2="221.25" fill="rgb(0, 0, 0)" stroke="rgb(153, 153, 153)" stroke-width="1.5px"></line></g></g><g><g><line x1="32.22222222222222" y1="0" x2="32.22222222222222" y2="177" fill="rgb(0, 0, 0)" stroke="rgb(153, 153, 153)" stroke-width="1.5px"></line></g></g><g><g><g><g><g><path stroke="rgb(204, 51, 17)" stroke-width="2px" d="M32.51222222222222,154.89483931660652L32.89888888888889,119.04580808803439L32.94722222222222,99.51052488538684L33.12444444444444,80.01474114803271L33.36611111111111,60.98766574739255L33.41444444444445,49.14231928171054L33.736666666666665,33.93331661287609L34.71944444444444,16.98879666646175L34.76777777777778,12.520517576631242L34.91277777777778,2.8438533498916603L35.91166666666667,38.85425397501241L35.992222222222225,59.19040879691806L36.33055555555555,61.05896450822263L36.41111111111111,59.50071020714176L36.52388888888889,81.42975567297897L36.620555555555555,83.93623623353113L37.18444444444444,79.7186039438432L37.21666666666666,68.45704632149146L37.345555555555556,51.863737093046346L37.812777777777775,84.81102669158373L38.135000000000005,101.56700685494498L39.005,106.88014282931876L39.02111111111112,133.3527291353691L39.343333333333334,102.41858583505659L39.63333333333333,89.58299798657364L39.85888888888889,94.96468054691753L40.85777777777778,91.2941610167216L41.29277777777778,85.497587777907L41.550555555555555,112.67736971342072L41.663333333333334,85.77848717142722L41.67944444444444,114.14151966429554L42.21111111111111,129.66933168882508L42.43666666666667,139.72962590761145L42.565555555555555,131.00710567700347L42.64611111111111,152.7598312473595L42.678333333333335,153.62704100169947L42.87166666666667,128.12122592613653L43.032777777777774,130.03090838477155L43.72555555555556,134.96698000270223L43.85444444444445,151.65110428321262L43.983333333333334,144.8679122345158L44.40222222222222,137.51933709127775L44.547222222222224,144.12760543622485L44.611666666666665,140.29223878196737L44.64388888888889,142.8645635310216L44.86944444444445,149.80143986169466L44.901666666666664,133.60583995534355L45.01444444444445,125.00136808586696L45.14333333333334,96.84975631218526L45.24,124.84552739393315L45.69111111111111,117.14533015683493L46.867222222222225,110.77845731134471L47.39888888888889,123.01828413461948L47.44722222222222,104.43067527563595L47.721111111111114,94.30509131401871L47.86611111111112,121.5533235624541L47.88222222222222,72.11352342098482L47.97888888888889,95.03051894742282L47.995000000000005,111.40269638203533L48.07555555555555,123.53972819508942L48.36555555555555,107.85961312688444L48.41388888888889,126.47024009607499L48.55888888888889,138.56214439858368L49.34833333333333,119.38604435914367L49.39666666666667,130.08704361673367L49.49333333333333,114.07375751350024L49.59,100.60832218178331L49.67055555555556,122.8666877260698L49.83166666666667,113.68780929511149L49.928333333333335,131.97480801740502L50.00888888888889,110.86690931319721L50.84666666666667,106.65878508567528L50.92722222222222,148.77400869476625L50.943333333333335,136.85745402781862L51.233333333333334,142.31546864872394L51.442777777777785,166.31956804672015L51.65222222222222,142.58157978581863L52.26444444444444,132.66432966069863L52.538333333333334,141.99259969756892L52.86055555555556,127.80460937718088L53.07,143.17397201001367L53.42444444444445,158.00745230877234L53.47277777777777,150.06685667016407L53.69833333333334,135.38872578607976L53.76277777777778,132.1725445203005L54.53611111111111,149.23937017989272L54.64888888888889,138.84560570283003L55.00333333333334,130.2078876803116L55.196666666666665,117.5585715478537L55.35777777777778,150.69657582377656L55.84111111111111,138.46232425174276L56.01833333333333,150.27756031156275L56.147222222222226,150.03375714898525L56.24388888888889,142.2119649045492L56.75944444444444,130.12255178647192L56.82388888888889,114.44016207907767L57.22666666666667,128.86714018377165L57.48444444444444,148.0388105093986L57.50055555555556,99.33102394220532L57.74222222222222,116.36507199452699L57.806666666666665,92.31124726680744L58.080555555555556,138.07947602121726L58.644444444444446,123.10475121884761L58.77333333333333,147.0877712067915L59.095555555555556,142.05485109668692L59.32111111111111,148.2378411303861L59.46611111111111,125.10331907337327L59.56277777777778,120.08464552441488L59.64333333333333,124.71996239113362L59.75611111111111,78.4896447854492L59.901111111111106,97.90536891205628L60.12666666666667,106.4229702400179L60.15888888888888,102.56713053268263L60.20722222222222,134.84028857756894L60.352222222222224,111.3087840903356L60.91611111111111,124.42413895300355L61.30277777777778,121.80034206492499L61.64111111111111,83.31817458976981L61.93111111111111,93.88035563772723L62.07611111111111,91.53751540270929L62.28555555555556,104.5258056884258L62.333888888888886,101.36134964020543L62.462777777777774,129.3328650342911L63.10722222222223,118.68136591598329L63.38111111111111,130.85679839184843L63.54222222222222,131.92271149236538L63.590555555555554,107.83517024563893L63.91277777777778,118.45018803863016L64.17055555555555,156.0278759019869L64.46055555555556,124.30215697391613L64.65388888888889,130.66784086766114L64.92777777777778,111.21398679579657L65.02444444444444,141.99716728428223L65.41111111111111,137.55132082402238L65.62055555555555,140.69675908863263L65.66888888888889,133.68064526545834L65.685,134.85006400244134L65.8138888888889,136.7892328399223L65.87833333333333,153.9025551019789L65.99111111111111,152.0770665370632L66.78055555555555,153.12049920339638L66.845,131.9578217683986L66.95777777777778,134.68169537894457L67.10277777777777,144.55322784014066L67.45722222222221,135.68811167375756L67.52166666666666,115.80202296433754L67.65055555555556,97.60076167021934L67.77944444444445,112.08627277514185L67.8438888888889,97.91972004116084L68.1661111111111,110.1863928719789L68.24666666666667,114.60479298141183L68.26277777777779,133.634295075575L68.34333333333333,133.26443973150222L68.53666666666666,151.06501960138303L68.585,135.2974621974219L68.66555555555556,143.9446671201461L68.97166666666666,138.1216597910925L69.22944444444444,125.37211842275882L69.39055555555555,115.28362938724294L69.58388888888888,132.57232487775286L70.00277777777778,123.0506522689903L70.14777777777778,129.04423388449217L70.71166666666667,129.98797436122814L70.72777777777777,131.8920564029498L70.76,120.84495309435626L71.46888888888888,100.19696082737028L71.59777777777778,93.30708175936923L71.74277777777777,95.6604346635317L71.775,99.08948403611038L71.85555555555555,64.30541771658808L72.25833333333334,96.41578166489928L72.27444444444444,124.38563535693365L72.43555555555555,131.1282330279534L72.46777777777777,128.89477505236772L72.54833333333333,144.37516391247456L72.77388888888889,142.92081609946456L72.87055555555555,128.0045855497239L73.01555555555555,120.25359559386479L73.25722222222223,110.4567556877703L73.3538888888889,105.74870405791822L74.1111111111111,96.38035689710749L74.20777777777778,95.56930202793582L74.48166666666667,96.77276155085266L74.57833333333333,97.43980412918864L75.36777777777777,77.17212277196967L75.48055555555555,80.16211799110845L75.5611111111111,54.64722249106094L75.77055555555556,96.64861334082796L76.36666666666666,99.50406210850069L76.59222222222223,132.4741309000873L77.1561111111111,111.61080245458027L78.49333333333334,131.46951086689793L78.63833333333334,118.16619090658284L78.78333333333333,118.80559683097516L78.88000000000001,94.28049466760822L79.26666666666667,82.4126522407047L80.02388888888889,78.94482442528677L80.15277777777779,87.2325164603631L80.73277777777778,77.18346579834463L80.99055555555556,68.60969500520613L81.03888888888889,77.65280688273185L81.16777777777779,91.43849888126418L81.21611111111112,98.31588901686887L81.60277777777779,124.98055691485537L81.66722222222222,142.94552307704052L82.15055555555556,148.33140109407285L82.76277777777779,131.5258194829665L83.05277777777779,125.81937085542931L83.14944444444444,140.76258801790388L83.40722222222222,152.33908120019623L83.69722222222222,133.02276694311732L83.71333333333334,157.1856360884549L84.26111111111112,146.75087430787335L84.42222222222222,127.66552850432547L84.47055555555556,96.46773067013831L84.48666666666666,98.25300731001145L84.5188888888889,100.63072601400522L84.535,87.7439438786668L84.93777777777777,76.87887250700963L85.46944444444445,111.20439226221666L86.1138888888889,110.85120460266842L86.61333333333334,111.56703141257151L87.04833333333335,139.09504846885793L87.1288888888889,143.80080931279056L87.48333333333333,113.21028638418314L87.78944444444444,82.01091556868434L88.03111111111112,127.24143906904149L88.28888888888889,94.65352797790104L88.75611111111112,111.41237497498831L88.80444444444444,127.25769356590654L89.20722222222223,153.63376663745728L89.6261111111111,104.86685570848755L89.9,131.30001430972084L90.22222222222223,110.68784576215542L90.51222222222222,87.18984929059862L90.54444444444445,88.6047028025086L90.57666666666667,89.90195708990666L90.67333333333333,79.96956428003651L91.12444444444445,95.98795578546728L91.35,91.80955050985459L92.25222222222223,93.93530902028348L92.31666666666668,82.2702968881146L92.49388888888888,80.4617401340971L92.99333333333333,111.95561456557331L93.12222222222222,129.98906135485302L93.33166666666668,151.01001967147428L93.41222222222223,138.77788546774053L93.67,152.2191481059388L93.75055555555555,140.01451532039616L93.78277777777778,112.71269454952224L93.94388888888888,127.96460485694494L94.00833333333333,143.5294829621177L94.47555555555556,151.06534141387112L94.66888888888889,152.25975930741768L95.50666666666666,144.7125376227578L95.68388888888889,85.76836787242178L95.95777777777778,93.8305805598407L96.40888888888888,96.81361518351488L96.82777777777778,97.71689649849087L97.02111111111111,129.56706558125583L97.19833333333334,122.11544279132706L97.24666666666666,133.7068440429832L98.165,97.23865038826855L98.24555555555555,71.34477585956328L98.26166666666666,54.935989632635554L98.42277777777778,42.474936970728194L99.5988888888889,92.11366067448708L99.7761111111111,128.8177853710619L99.79222222222222,115.61017884535595L99.82444444444444,118.42347808911207L99.90499999999999,135.02434857030988L99.92111111111112,151.10718162858655L100.32388888888889,151.75759232046704L100.40444444444444,127.87917551995815L100.45277777777778,130.96774115324914L100.58166666666666,150.0256065795475L100.90388888888889,143.79368184027993L100.95222222222222,165.91744098077967L100.96833333333333,150.79050412780495L101.21,151.2388070404914L101.56444444444445,147.98692568423672L101.77388888888889,152.39349551369145L101.80611111111111,150.37639121633407L102.01555555555557,142.89492962611698L102.61166666666666,163.52666498931038L102.99833333333333,137.9656100852L103.11111111111111,154.41827216045306L103.20777777777776,148.78779771504549L103.59444444444445,173.23145431028453L103.64277777777777,188.0706483214894L104.59333333333333,158.2129912429928L104.86722222222222,158.5419045957255L104.88333333333334,133.75902837945983L105.20555555555555,141.39333962460736L105.2538888888889,123.39439765846954L105.39888888888889,152.80475380561487L105.97888888888889,119.68443404759012L106.02722222222222,141.80889250710632L106.285,139.39067975208178L106.78444444444445,134.36157283499847L107.23555555555555,131.3671668131054L107.36444444444444,115.92443250172738L107.42888888888889,92.10656825633886L107.55777777777777,113.27691956717995L107.735,123.32385647511022L108.1538888888889,114.82435541281423L108.23444444444445,125.8914707000811L108.49222222222222,132.98215618704313L108.75,108.99948601111504L108.8788888888889,95.23939106574497L109.02388888888889,81.43762212819361L109.1688888888889,114.02502547399108L109.3461111111111,127.34116161284389L109.36222222222223,122.35911212216342L109.55555555555556,135.62520459801271L109.58777777777777,142.20501846975276L110.2,132.3352938348424L110.39333333333333,129.6468509348852L110.69944444444445,127.96082546190158L111.07000000000001,129.1698210351213L111.39222222222223,152.63346162513162L112.16555555555556,157.04915712520636L112.31055555555555,153.19259733107782L112.35888888888888,159.72634255973753L112.3911111111111,168.41228683643496L113.21277777777777,108.67016820819947L113.2611111111111,89.88841841645106L113.58333333333333,54.552447068852565L113.61555555555556,24.957621138192646L113.63166666666666,35.500965810357L113.74444444444445,22.451629100166823L114.03444444444443,76.23248938198272L114.48555555555556,97.94234506771197L114.80777777777779,126.88875459721822L114.93666666666667,126.41117247993431L115.4361111111111,119.63148971232583L115.71000000000001,112.54170217414384L116,128.8995133775454L116.12888888888888,118.59048443663008L116.62833333333333,85.44887012021475L117.06333333333333,113.12346668110331L117.43388888888889,131.61173905769613L117.9011111111111,160.9835811426617L118.07833333333333,143.36346499743328L118.33611111111111,132.67020931614795L118.56166666666667,95.93014163239812L118.89999999999999,124.35752291955957L119.54444444444444,95.11532518552785L119.89888888888889,105.33167658619313L119.97944444444444,99.00250209791795L120.57555555555557,102.87551337136827L120.75277777777777,86.48100245984793L120.84944444444444,77.65333800907372L121.07499999999999,69.60048697826528L121.10722222222222,80.70739530585566L121.62277777777777,56.59894880689596L122.00944444444444,99.57729125641235L122.20277777777777,119.80656195057897L122.235,119.15026867612282L122.33166666666666,138.5808198465352L122.52499999999999,127.43146283706695L122.92777777777778,108.17531637716691L123.3788888888889,133.40507400255441L123.41111111111111,159.23076986206198L123.47555555555554,153.3710604723252L123.71722222222222,161.25970958566413L124.37777777777778,165.11484603223647L124.42611111111111,161.41648098312285L125.28,127.7271489648966L125.32833333333333,136.2217635601132L125.48944444444444,141.73131248291546L125.77944444444445,120.88429382405408L125.79555555555555,92.24003056861L126.06944444444444,62.07616469965598L126.11777777777777,63.96968978468312L126.66555555555556,113.94126012220225L126.69777777777777,135.83753862556364L126.81055555555555,144.9507676874193L127.24555555555555,160.71365725485043L127.39055555555555,158.9402362316105L127.7288888888889,157.98231684024654L128.11555555555555,161.0136471680136L128.1961111111111,147.7599832350809L128.2927777777778,150.58779326288692L128.7277777777778,157.921989102416L129.05,158.3299963231401L129.13055555555556,141.7478297564695L129.37222222222223,138.2278103597945L129.45277777777778,114.67313195276178L130.14555555555555,132.02221127157162L130.21,140.56424797656985L130.54833333333332,141.43226388146192L130.58055555555555,145.44779568344183L130.83833333333334,130.23202625173226L130.87055555555557,120.35361008201777L130.96722222222223,93.46094029161178L130.99944444444446,119.8140818537047L131.28944444444446,106.50189010267083L131.66,120.4214723346509L131.805,134.74884704577192L132.11111111111111,159.64515206114808L132.28833333333333,150.8452048831961L132.32055555555556,156.34537789426932L132.41722222222222,143.5070390057724L132.62666666666667,140.6019831748105L132.91666666666666,141.86623770304303L133.54500000000002,134.7166415352093L133.91555555555556,114.6506592690031L133.98000000000002,93.87289170378925L133.9961111111111,92.29406921836424L134.10888888888888,139.17651903195792L134.3827777777778,150.3154372904516L134.56,152.45401384435993L134.73722222222221,148.15056014062702L134.85,139.27615299225891L134.94666666666666,110.00087801457073L135.33333333333334,88.00525655651467L136.2838888888889,69.33984941425548L136.86388888888888,90.47830506672041L136.88,119.48285559719548L136.94444444444443,126.99328592959492L137.26666666666665,111.08509728636413L137.2827777777778,118.11762798622888L137.29888888888888,115.65915964123988L137.42777777777778,137.0026413087689L138.13666666666666,125.89505845812816L138.24944444444444,124.39844974582113L138.29777777777778,123.17445507469606L138.6038888888889,95.41845118297832L139.4738888888889,71.5121264177185L139.6188888888889,62.00540698275695L139.6511111111111,48.38587940159875L139.71555555555557,42.53405363812113L139.81222222222223,18.62577328356542L139.86055555555555,13.619490535691025L139.97333333333333,76.77988080479778L140.10222222222222,90.62823839365291L140.15055555555554,116.88699940072803L140.3438888888889,126.1803463532168L140.7788888888889,137.12360021076432L140.84333333333333,97.56493175388474L141.02055555555555,86.89378509736716L141.19777777777776,125.83794386873637L142.29333333333332,140.5212233763337L142.51888888888888,101.92726196655033L142.64777777777778,91.87120629434823L142.87333333333333,109.76284554651403L142.88944444444445,131.18648695380105L143.30833333333334,106.05023624557623L143.5338888888889,138.18444519077758L143.93666666666667,132.87360537549867L144.4038888888889,97.4891766816438L144.45222222222222,89.10332754314308L144.8711111111111,123.38005687630394L145.1611111111111,94.92846351764334L145.22555555555556,113.43772931040367L145.62833333333333,102.19843687499191L146.04722222222222,91.01826904943361L146.46611111111113,118.88988514382108L146.7077777777778,102.8355248906521L146.83666666666664,96.95982647766519L146.8527777777778,101.36536546248107L147.2072222222222,113.30468048869317L147.27166666666668,120.24095450770106L147.49722222222223,102.27362973053006L148.14166666666668,111.30412127112596L148.28666666666666,111.93609059772044L148.48,138.36503234458655L148.78611111111113,135.81953803868706L148.83444444444444,141.21809043986568L148.97944444444443,112.53539959492069L149.83333333333334,82.51877984942067L150.01055555555553,33.11235571826143L150.30055555555555,30.966534667757994L150.46166666666667,-3.0710118451429493L150.47777777777776,-25.899527158660444L150.76777777777775,26.504653879211677L150.7838888888889,72.51603409541032L151.15444444444447,111.98944060142267L151.2188888888889,107.74367876133579L151.46055555555554,138.48794532585893L151.9438888888889,150.52176504593345L152.0888888888889,143.28371153629573L152.13722222222222,120.24827004883737L152.25,99.05329929240972L152.4111111111111,96.3862932351138L152.45944444444444,107.63300346296464L152.54000000000002,102.37121357298753L152.70111111111112,117.05796387062587L153.08777777777777,95.46288165012668L153.23277777777778,142.8933634910564L153.5388888888889,134.20525046310306L153.8127777777778,81.95743000579762L154.81166666666667,56.76491196198993L155.37555555555556,82.56256839778266L155.64944444444444,105.29676484552766L155.81055555555554,94.50298204116669L155.89111111111112,84.03636905010131L156.06833333333333,136.4988511261677L156.165,122.70326832874628L156.27777777777777,106.18942775692948L156.56777777777776,90.12361144045836L156.64833333333334,85.61648797404672L156.72888888888886,98.27307142860833L157.01888888888888,115.48045908240762L157.1961111111111,104.19124280708007L157.24444444444447,82.0663589674054L157.56666666666666,51.00832824932446L157.69555555555556,17.42273586408443L157.85666666666665,3.77389922986118L158.05,1.2226556733232021L158.42055555555555,6.768307339845956L158.50111111111113,6.258224851905605L159.48388888888888,57.35405856789309L159.5,60.30846880925392L160.01555555555558,91.95120058687147L160.70833333333334,84.64262071985969L160.83722222222224,54.69291238629202L160.9661111111111,110.92537668134798L160.98222222222222,98.26213590375201L161.53,64.45122666401636L161.7072222222222,66.81998009230477L161.90055555555554,99.3465080424892L162.17444444444442,91.55527082471532L163.14111111111112,131.01729405157855L163.52777777777777,144.77217947383576L164.01111111111112,132.7635970052472L164.07555555555558,107.64510075666851L164.3011111111111,121.21909181128947L164.575,145.5033555021942L164.67166666666665,92.3145566934979L165.34833333333336,126.14196365801313L165.60611111111112,94.40742469863783L165.78333333333333,73.44289212844784L165.92833333333334,76.21089731110341L166.0572222222222,67.65130318673374L166.37944444444446,75.6319418994899L166.41166666666666,82.76917361309023L166.45999999999998,78.56949319297011L166.49222222222224,78.96460963400563L166.58888888888887,117.44313594765879L166.91111111111113,128.28909693400513L166.95944444444444,120.1066201581982L167.04,119.91064343776867L167.185,111.43341821388343L168.31277777777777,77.80771604750122L168.635,19.350332543692392L168.65111111111113,6.913414076233762L168.68333333333334,5.695247170486954L168.9088888888889,-33.810934211517036L169.13444444444443,-8.53124412039141L169.215,3.4609450808809985L169.29555555555555,-12.60031145145615L170.42333333333335,-44.026993283040454L170.64888888888888,31.25390903448635L170.79388888888892,29.50033660111172L171.21277777777777,26.09299776182973L171.32555555555555,62.57718241945746L171.34166666666667,78.18909652671722L171.48666666666668,116.82615885520879L172.0988888888889,83.67207146516387L172.2277777777778,64.3680317451414L172.2438888888889,100.60936038791277L172.3083333333333,123.27810319125138L172.82388888888892,111.68339779293228L173.58111111111108,108.36556414553934L173.64555555555555,119.97753076427826L173.93555555555554,126.96869093581228L174.01611111111112,97.7589638138067L174.3061111111111,71.54823960687227L174.35444444444445,59.25993913308088L174.69277777777776,88.03194233116689L174.87,95.09077882967699L175.25666666666666,113.7740553987164L175.36944444444447,115.91237170530192L175.64333333333335,130.75009954591295L175.67555555555555,136.9708045757991L175.72388888888887,131.20641839725863L176.06222222222223,135.87789116038735L176.09444444444443,113.87202642997418L176.175,109.10411116266437L176.35222222222222,112.48483527174108L176.54555555555555,138.0399583367736L176.81944444444446,104.82978085209315L177.10944444444445,109.18145279603829L177.2061111111111,82.73542888473051L177.3672222222222,94.43747839635954L177.65722222222223,126.84082698408571L177.67333333333335,109.14926705112343L178.10833333333332,126.62399921029976L178.23722222222221,123.67959085232123L178.3983333333333,123.56732434705557L178.57555555555555,87.39242932007112L178.9138888888889,56.68772418979046L179.20388888888888,35.715433404941784L179.71944444444443,27.78265216714109L179.8322222222222,0.6510200665352643L180.67,51.620299897549025L180.70222222222222,102.58055006382314L180.86333333333334,128.34315128873257L180.97611111111112,145.73263207525295L181.4111111111111,144.0144780126231L181.74944444444444,140.29333415311677L181.91055555555556,132.07231601883234L182.16833333333332,104.39865136628902L182.20055555555558,119.01228665402864L182.31333333333333,131.86793463880622L182.82888888888888,141.2564897027898L182.90944444444443,92.75519096179532L183.08666666666664,49.18238932683306L183.16722222222222,51.20517851587675L183.86,74.01676448390808L183.90833333333333,106.07563220385269L184.23055555555558,103.1755948240969L184.32722222222222,106.17007628532728L184.34333333333333,108.00137345464516L184.76222222222222,115.59631521982843L184.875,125.31784104992686L185.89000000000001,112.80070638471685L186.035,127.75362342485094L186.14777777777778,113.93338226013365L186.19611111111112,124.90035359104265L186.3088888888889,140.13066411042087L186.35722222222222,123.76862404360696L186.71166666666667,140.95937013396218L186.8888888888889,130.10030107360242L187.06611111111113,102.43122971451972L187.25944444444443,105.72966063259061L187.27555555555557,97.7203549160839L187.3238888888889,107.13985583867318L187.71055555555554,108.18021346143297L187.80722222222224,95.74726911193974L188.17777777777778,47.72966420535354L188.3388888888889,56.72302930285995L188.46777777777777,97.40425779062785L189.45055555555555,65.623937854995L189.59555555555556,98.4121599255977L189.74055555555555,102.97668922299016L190.30444444444444,129.4322722098462L190.75555555555556,114.30001638777448L190.80388888888888,124.93284540443058L191.44833333333332,150.3650915209558L191.83499999999998,104.76658170128502L191.9961111111111,95.28625648441695L192.88222222222223,49.14106860889661L193.09166666666667,91.39844614943068L193.55888888888887,114.46774843144536L194.13888888888889,107.1401892352588L194.21944444444443,86.09989239266439L194.23555555555555,102.83808432514027L194.26777777777778,114.54597443636986L194.4933333333333,117.6587856191202L194.68666666666667,139.6526461468818L195.05722222222224,114.72751040617717L195.1538888888889,87.47161378479059L195.39555555555557,89.07296434650455L195.4922222222222,115.86064662700673L195.65333333333334,117.1594143519746L196.04000000000002,67.69876488506478L196.3138888888889,55.28307228362371L196.66833333333335,44.59939129993801L197.1677777777778,93.5517953148215L197.28055555555554,121.27258548204476L197.45777777777778,140.9507771197818L197.71555555555557,147.31854590558186L197.78,159.54795039166913L197.89277777777778,137.58247196954432L197.97333333333333,131.0522899406072L198.65,147.2125123010228L199.23000000000002,125.21056619084774L199.6811111111111,114.02386616943417L199.71333333333334,81.49443969296298L199.72944444444445,93.18949268559744L199.76166666666666,70.2325570005186L199.85833333333335,68.35395487654256L200.00333333333333,74.29858315293816L200.1,73.10143010797995L200.18055555555554,22.62146912206944L200.64777777777778,47.61440998428902L200.87333333333333,43.31945060559417L201.05055555555555,87.63465416948978L201.21166666666664,114.9317228825151L201.2761111111111,135.599183215574L201.29222222222222,145.18982138268683L201.74333333333334,95.27048629541714L201.88833333333335,79.32137678873254L202.01722222222222,118.91751348860093L202.2588888888889,128.87126276425735L202.275,112.04116292913088L202.46833333333333,106.7096621043642L202.96777777777777,109.640100803802L203.11277777777775,86.72296369482851L203.32222222222222,65.77639739757642L203.38666666666668,76.26164856580418L203.4672222222222,45.3329879702778L203.61222222222221,47.785658494332516L203.74111111111114,44.081179413616084L203.8538888888889,3.9917448719855617L203.86999999999998,8.013026545078553L204.1438888888889,63.962121253985764L204.6272222222222,11.854685929881697L204.78833333333336,42.7814024612112L205.38444444444443,43.03764674215335L205.52944444444447,12.669259340458016L205.54555555555555,8.001452082927756L205.64222222222222,-16.667301252761053L205.89999999999998,23.86116438193408L206.01277777777776,67.64301137377791L206.4638888888889,84.33581595569831L206.48,75.73685398668042L206.625,44.847394984781666L206.70555555555555,75.9547724496245L206.88277777777776,74.78066302364587L207.02777777777777,112.79977294817877L207.25333333333333,89.79002199778145L207.43055555555557,96.50501102333774L207.86555555555555,124.2899893291325L207.9138888888889,129.5325340251643L208.0588888888889,116.4956709754776L208.46166666666667,80.68125540091461L208.5261111111111,60.215232360803284L208.6711111111111,46.01709279325198L208.89666666666668,37.305379968324864L208.99333333333334,25.20902186717958L209.02555555555554,21.68817676357251L209.57333333333332,78.47682513744724L209.67,100.5534595128959L209.76666666666668,92.82276362640056L209.79888888888888,103.02791916407581L209.815,120.71023073838613L209.97611111111112,114.16175588993109L210.05666666666667,122.98159834759161L210.28222222222223,138.30118380198914L210.4272222222222,152.9480329049232L210.685,126.10091696337474L211.08777777777777,117.61417328212029L211.39388888888888,110.86183633144717L211.5388888888889,84.60286546788227L211.82888888888888,74.99922617102628L212.26388888888889,94.21102120771984L212.63444444444445,109.76137870725977L212.66666666666666,117.17408870564095L212.68277777777777,118.79592925850267L213.50444444444443,126.60261630143948L213.63333333333335,121.92624799684421L213.68166666666667,114.25509863064131L213.82666666666665,151.59135228672886L214.4388888888889,140.60046404766598L214.93833333333333,120.35964206557011L215.26055555555556,59.41680223763307L215.48611111111111,47.55075950038624L215.56666666666666,57.222405592275805L216.06611111111113,35.0900740621526L216.19500000000002,35.49176659572357L216.22722222222222,28.505383958746403L216.775,-16.9709525642816L216.82333333333335,63.46159099113798L217.04888888888888,81.23567718608294L217.09722222222223,126.00650629009674L217.27444444444444,118.92578034762067L217.3711111111111,128.29113131262972L217.8222222222222,108.52289946972198L217.87055555555557,107.24217243253511L217.88666666666666,108.0017718747814L217.98333333333335,107.09785734865423L218.01555555555555,93.80306810887669L218.28944444444443,138.28821942956455L218.41833333333332,159.99756814689167L218.56333333333333,130.7556647399111L218.80499999999998,120.13680212134382L219.06277777777777,92.11673364898121L219.6911111111111,82.82737740195128L219.88444444444445,106.26984187553127L219.91666666666666,124.40689059847473L220.07777777777775,111.44200385066198L220.255,109.49352464945513L220.36777777777777,78.27978449983237L220.48055555555558,79.11445065690779L220.51277777777779,68.82203755589546L220.78666666666666,46.87870808727873L221.09277777777777,73.31753988437254L221.67277777777778,91.49456009490727L221.83388888888888,85.70898297562265L222.10777777777776,52.15214282950199L222.20444444444445,92.29744062829278L222.34944444444443,78.62083410029567L222.83277777777778,60.870176546603176L223.20333333333335,65.81033463050707L223.21944444444443,9.990735881148453L223.50944444444443,23.33098060644786L223.96055555555554,-1.3111057832413007L224.25055555555554,-32.45017352180145L224.47611111111112,57.79254298522198L224.605,90.17989271351173L224.68555555555557,127.26004829089923L224.71777777777777,144.99121507454564L224.73388888888888,136.01693449287802L225.05611111111114,125.90796495598073L225.13666666666666,100.81028423977801L225.36222222222221,112.90474039478843L225.5233333333333,121.52811670400945L225.6038888888889,134.43830913363843L225.71666666666667,146.10523481404152L226.02277777777778,125.20512876054865L226.2161111111111,114.54272430623307L226.78,96.5386199324413L226.92499999999998,97.91000507885718L227.69833333333332,104.49190334447923L227.77888888888887,94.74584758263052L228.02055555555555,104.06411147106422L228.19777777777776,70.72245397561034L228.26222222222222,95.10928975578094L228.52,82.98983094117608L228.72944444444445,83.78816297663191L229.05166666666668,84.68148266680801L229.19666666666666,110.92342207078794L229.32555555555555,111.33169782903586L229.64777777777778,-0.042224760372666204L229.90555555555557,63.586236658382866L230.22777777777776,92.27038039129285L230.2761111111111,82.20781453467195L230.5338888888889,65.29402933130731L230.79166666666666,46.715969810545865L230.96888888888887,29.40327072719363L231.93555555555557,71.41365280496852L232.08055555555555,87.0816197082268L232.09666666666666,83.76839094667832L232.58,56.5527808029008L232.8861111111111,23.558785447988043L232.93444444444444,21.80831924051829L233.2888888888889,-104.20428019183404L233.99777777777777,-7.07760836730914L234.3361111111111,67.18314681023051L234.4327777777778,74.53618968468719L234.465,102.8107623037208L234.8033333333333,128.88221534350566L235.15777777777777,89.31423030054006L235.625,122.20670076462885L236.3661111111111,90.86052887590682L236.6238888888889,80.49256914229366L236.8172222222222,111.3800782046984L237.76777777777778,136.03816069854918L238.02555555555557,126.54965923841968L238.525,109.08164490828618L238.6538888888889,70.6263807628733L238.99222222222224,49.35195884789122L239.395,42.95897890141661L239.47555555555556,15.165913730925663L239.685,97.47654458274364L239.89444444444445,118.59666543239307L239.99111111111114,109.64334056993695L240.6677777777778,130.49204148185473L240.6838888888889,97.02418120701446L240.76444444444445,106.96253597735961L241.0061111111111,120.8886401295638L241.94055555555556,77.58747179746484L242.21444444444444,41.02782473230276L242.64944444444444,60.65717402257868L242.66555555555553,93.52339373325317L242.79444444444445,110.09808167395002L242.98777777777778,92.36822409973745L243.0361111111111,83.38534638611199L243.18111111111114,67.44932812051607L243.42277777777775,46.56722270009894L243.48722222222221,26.921555963504186L243.51944444444445,30.55114801367989L243.7611111111111,0.4451434590868315L244.05111111111108,-26.298924638125186L244.79222222222222,-42.46847733048871L244.98555555555555,6.314144061873696L245.00166666666667,53.146009568494776L245.0661111111111,91.78059618718756L245.51722222222222,81.11445489554006L245.9361111111111,51.93271474259137L246.4677777777778,73.60062921176578L246.70944444444447,65.94204182702435L247.28944444444446,64.84466905163607L247.37,88.0639880822115L248.14333333333335,102.37948214566784L248.20777777777778,71.01960060331868L248.53,91.27163585027245L249.30333333333334,90.69688858986011L249.31944444444446,99.11634029388493L249.73833333333332,80.6808093395237L249.78666666666666,113.7693119768145L250.46333333333334,133.88172888301864L250.7211111111111,107.793551227707L251.28500000000003,139.67647645548482L251.52666666666664,128.2676796774596L251.65555555555554,120.87648438576042L251.73611111111111,92.43512856461513L251.7522222222222,79.64374501405898L252.28388888888887,62.7163851195499L252.5577777777778,85.38951115214375L252.60611111111112,124.07570672871798L252.65444444444444,127.8524718811639L252.86388888888888,144.9398245054798L253.29888888888888,139.29198756446343L253.5888888888889,85.70069283622443L253.70166666666668,74.12770940290653L253.81444444444446,95.67914508239487L254.1688888888889,129.58851448569334L254.50722222222223,119.67414910717986L254.71666666666667,115.42846803143132L255.28055555555557,141.9329180078179L255.6511111111111,130.16601859071673L255.69944444444442,93.81177598559154L255.9088888888889,64.80043548538264L255.97333333333336,43.312722266876584L256.07,38.300446022250576L256.7627777777778,-2.246050650657246L257.085,-14.200447159331215L257.1333333333333,79.9687026710908L257.2622222222222,97.80043480226996L257.2783333333333,100.59021533387664L257.2944444444444,109.84838061843969L257.3911111111111,138.5428226668516L257.71333333333337,125.12219621413229L257.74555555555554,122.10854044957922L258.03555555555556,128.42577569129446L258.8411111111111,123.99022238518225L259.06666666666666,94.31995599904911L259.16333333333336,117.83027965688261L259.7111111111111,64.31969193734858L260.37166666666667,105.1784865863212L260.8227777777778,114.31427028221417L261.2577777777778,137.61345764662343L261.3383333333333,130.2112824241252L261.435,124.60911193608828L261.80555555555554,127.11362194490188L262.2083333333333,96.22910620851368L262.4016666666667,113.3174785261336L262.41777777777776,106.22833334714073L262.51444444444445,121.13868712967573L262.65944444444443,107.51451122513971L262.93333333333334,86.75314986557699L263.12666666666667,54.899079250400874L263.2233333333333,101.05499653047657L263.54555555555555,129.56145142332517L263.61,108.68890556583287L263.99666666666667,72.5371264987557L264.0288888888889,34.642263196311546L264.1738888888889,14.567478717805207L264.9794444444444,70.4816833027847L265.3661111111111,95.81603478721662L265.3822222222222,96.00785293180874L265.7366666666667,73.6521309733339L266.30055555555555,101.01886093139338L266.31666666666666,92.32336642455866L266.7033333333333,94.25676077670938L266.73555555555555,109.63711313049248L266.75166666666667,86.84648003363759L267.235,105.23272910227865L267.6377777777778,120.69511858529144L267.6861111111111,105.41855316106258L267.71833333333336,100.26335251774655L267.96000000000004,79.41446471480289L268.0566666666667,89.92740297477101L268.37888888888887,112.55224160051736L268.54,97.72339405832523L268.5561111111111,107.46434542070527L268.685,94.43352561313331L268.74944444444446,118.25642376612676L268.8461111111111,108.49728959483535L269.1038888888889,121.44588367749829L269.7966666666667,110.37885971432672L269.99,85.5201328490123L270.1672222222222,120.77434112393529L270.3283333333333,106.57187248327534L270.34444444444443,132.44703777467132L270.4088888888889,114.48509650132013L270.4733333333333,111.84435356081102L270.53777777777776,109.31761358034953L270.81166666666667,82.76265348108019L270.90833333333336,81.68272019095066L270.97277777777776,72.04190025727061L271.005,77.83238617181841L271.40777777777777,79.97629039049187L271.7138888888889,58.08577461576485L271.82666666666665,57.03166670522702L271.84277777777777,56.46559113813407L272.10055555555556,52.17117716403585L272.1488888888889,42.466756591390286L272.6644444444444,81.80097148966236L272.68055555555554,85.067501724669L272.69666666666666,120.74672327095787L273.0833333333333,98.3147301295669L273.3088888888889,82.6932270299954L273.53444444444443,58.65760057995098" style="fill: none;" fill="none"></path></g></g></g></g><g opacity="0.2"><g><g><g><path stroke="rgb(204, 51, 17)" stroke-width="2px" d="M32.51222222222222,154.89483931660652L32.89888888888889,97.53638935089111L32.94722222222222,80.75665301084518L33.12444444444444,57.087699472904205L33.36611111111111,36.14591610431671L33.41444444444445,32.75594079494476L33.736666666666665,12.184199452400208L34.71944444444444,-7.716476082801819L34.76777777777778,5.930673837661743L34.91277777777778,-11.52486526966095L35.91166666666667,92.54324322938919L35.992222222222225,89.58397257328033L36.33055555555555,63.8556969165802L36.41111111111111,57.166381537914276L36.52388888888889,114.29754710197449L36.620555555555555,87.69418931007385L37.18444444444444,73.39394026994705L37.21666666666666,51.56756919622421L37.345555555555556,26.976301074028015L37.812777777777775,134.2289495766163L38.135000000000005,126.70005816221237L39.005,114.84967195987701L39.02111111111112,173.06108593940735L39.343333333333334,56.017737329006195L39.63333333333333,70.32970744371414L39.85888888888889,103.03718143701553L40.85777777777778,85.78839111328125L41.29277777777778,76.80273681879044L41.550555555555555,153.44701758027077L41.663333333333334,45.430178225040436L41.67944444444444,156.6860589981079L42.21111111111111,152.96104663610458L42.43666666666667,154.82006603479385L42.565555555555555,117.92332595586777L42.64611111111111,185.3889186680317L42.678333333333335,154.92785561084747L42.87166666666667,89.8625037074089L43.032777777777774,132.8954320549965L43.72555555555556,142.37108740210533L43.85444444444445,176.67729064822197L43.983333333333334,134.69312417507172L44.40222222222222,126.49647438526154L44.547222222222224,154.04000794887543L44.611666666666665,134.53918880224228L44.64388888888889,146.72305065393448L44.86944444444445,160.2067543566227L44.901666666666664,109.312440097332L45.01444444444445,112.09466028213501L45.14333333333334,54.62233865261078L45.24,166.8391840159893L45.69111111111111,105.59503430128098L46.867222222222225,101.22814804315567L47.39888888888889,141.37802436947823L47.44722222222222,76.54926198720932L47.721111111111114,79.11671537160873L47.86611111111112,162.42567193508148L47.88222222222222,-2.046176791191101L47.97888888888889,129.406012237072L47.995000000000005,135.9609625339508L48.07555555555555,141.74527591466904L48.36555555555555,84.3394405245781L48.41388888888889,154.38618054986L48.55888888888889,156.70000085234642L49.34833333333333,90.62189429998398L49.39666666666667,146.13854250311852L49.49333333333333,90.05382835865021L49.59,80.41016918420792L49.67055555555556,156.25423604249954L49.83166666666667,99.91949164867401L49.928333333333335,159.40530610084534L50.00888888888889,79.20506125688553L50.84666666666667,100.3465987443924L50.92722222222222,211.94684410840273L50.943333333333335,118.98262202739716L51.233333333333334,150.50249058008194L51.442777777777785,202.32571714371443L51.65222222222222,106.9745973944664L52.26444444444444,117.78845447301865L52.538333333333334,155.98500475287437L52.86055555555556,106.52262389659882L53.07,166.22801595926285L53.42444444444445,180.25767275691032L53.47277777777777,138.15596321225166L53.69833333333334,113.37152945995331L53.76277777777778,127.34827262163162L54.53611111111111,174.839608669281L54.64888888888889,123.25495898723602L55.00333333333334,117.25131064653397L55.196666666666665,98.58459734916687L55.35777777777778,200.40358223766088L55.84111111111111,120.11094689369202L56.01833333333333,168.0004144012928L56.147222222222226,149.66805240511894L56.24388888888889,130.4792765378952L56.75944444444444,111.98843210935593L56.82388888888889,90.9165775179863L57.22666666666667,150.50760734081268L57.48444444444444,176.79631599783897L57.50055555555556,26.269344091415405L57.74222222222222,141.9161440730095L57.806666666666665,56.23051017522812L58.080555555555556,206.73181915283203L58.644444444444446,100.64266401529312L58.77333333333333,183.06230118870735L59.095555555555556,134.50547093153L59.32111111111111,157.5123261809349L59.46611111111111,90.401535987854L59.56277777777778,112.55663520097733L59.64333333333333,131.6729376912117L59.75611111111111,9.144168376922607L59.901111111111106,127.02895510196686L60.12666666666667,119.1993722319603L60.15888888888888,96.78337097167969L60.20722222222222,183.25002564489841L60.352222222222224,76.01152735948563L60.91611111111111,144.09717124700546L61.30277777777778,117.86464673280716L61.64111111111111,25.59492337703705L61.93111111111111,109.72362720966339L62.07611111111111,88.02325505018234L62.28555555555556,124.00824111700058L62.333888888888886,96.61466556787491L62.462777777777774,171.29013812541962L63.10722222222223,102.70411723852158L63.38111111111111,149.11994710564613L63.54222222222222,133.5215811431408L63.590555555555554,71.70385837554932L63.91277777777778,134.372714728117L64.17055555555555,212.39440769702196L64.46055555555556,76.71357858181L64.65388888888889,140.21636670827866L64.92777777777778,82.03320568799973L65.02444444444444,188.1719380170107L65.41111111111111,130.88255113363266L65.62055555555555,145.41491648554802L65.66888888888889,123.15647453069687L65.685,136.60419210791588L65.8138888888889,139.69798609614372L65.87833333333333,179.57253849506378L65.99111111111111,149.33883368968964L66.78055555555555,154.68564820289612L66.845,100.21380561590195L66.95777777777778,138.76750579476357L67.10277777777777,159.36052653193474L67.45722222222221,122.39043742418289L67.52166666666666,85.97288990020752L67.65055555555556,70.29886972904205L67.77944444444445,133.81453943252563L67.8438888888889,76.66989094018936L68.1661111111111,128.58640211820602L68.24666666666667,121.23239314556122L68.26277777777779,162.17854821681976L68.34333333333333,132.70965671539307L68.53666666666666,177.76588940620422L68.585,111.64612609148026L68.66555555555556,156.9154745042324L68.97166666666666,129.38714879751205L69.22944444444444,106.24780637025833L69.39055555555555,100.15089583396912L69.58388888888888,158.50536811351776L70.00277777777778,108.7681433558464L70.14777777777778,138.03460630774498L70.71166666666667,131.4035850763321L70.72777777777777,134.7481794655323L70.76,104.27429813146591L71.46888888888888,69.22497242689133L71.59777777777778,82.9722631573677L71.74277777777777,99.19046401977539L71.775,104.23305809497833L71.85555555555555,12.129318237304688L72.25833333333334,144.5813275873661L72.27444444444444,166.3404158949852L72.43555555555555,141.24212953448296L72.46777777777777,125.54458808898926L72.54833333333333,167.5957472026348L72.77388888888889,140.73929437994957L72.87055555555555,105.63023972511292L73.01555555555555,108.62711066007614L73.25722222222223,95.76149582862854L73.3538888888889,98.6866266131401L74.1111111111111,82.32783615589142L74.20777777777778,94.35271972417831L74.48166666666667,98.57795083522797L74.57833333333333,98.44036799669266L75.36777777777777,46.770600736141205L75.48055555555555,84.64711081981659L75.5611111111111,16.374879240989685L75.77055555555556,159.65069961547852L76.36666666666666,103.78723526000977L76.59222222222223,181.9292340874672L77.1561111111111,80.31580978631973L78.49333333333334,161.25757348537445L78.63833333333334,98.21121096611023L78.78333333333333,119.76470571756363L78.88000000000001,57.49284142255783L79.26666666666667,64.61088860034943L80.02388888888889,73.74308270215988L80.15277777777779,99.6640545129776L80.73277777777778,62.109889805316925L80.99055555555556,55.74903881549835L81.03888888888889,91.21747469902039L81.16777777777779,112.11703687906265L81.21611111111112,108.63197422027588L81.60277777777779,164.9775587618351L81.66722222222222,169.89297232031822L82.15055555555556,156.41021811962128L82.76277777777779,106.31744706630707L83.05277777777779,117.25969791412354L83.14944444444444,163.17741376161575L83.40722222222222,169.70382097363472L83.69722222222222,104.04829555749893L83.71333333333334,193.42993980646133L84.26111111111112,131.09873163700104L84.42222222222222,99.0375097990036L84.47055555555556,49.671033918857574L84.48666666666666,100.93092226982117L84.5188888888889,104.19730406999588L84.535,68.41377067565918L84.93777777777777,60.581265449523926L85.46944444444445,162.69267189502716L86.1138888888889,110.3214231133461L86.61333333333334,112.64077162742615L87.04833333333335,180.3870740532875L87.1288888888889,150.85945057868958L87.48333333333333,67.32450199127197L87.78944444444444,35.211859345436096L88.03111111111112,195.08722431957722L88.28888888888889,45.77166134119034L88.75611111111112,136.5506454706192L88.80444444444444,151.02567145228386L89.20722222222223,193.1978762447834L89.6261111111111,31.71648931503296L89.9,170.94975221157074L90.22222222222223,79.76959294080734L90.51222222222222,51.9428545832634L90.54444444444445,90.72698307037354L90.57666666666667,91.84783852100372L90.67333333333333,65.07097506523132L91.12444444444445,120.01554304361343L91.35,85.54194259643555L92.25222222222223,97.12394678592682L92.31666666666668,64.7727786898613L92.49388888888888,77.74890500307083L92.99333333333333,159.19642621278763L93.12222222222222,157.03923153877258L93.33166666666668,182.54145714640617L93.41222222222223,120.42968416213989L93.67,172.38104206323624L93.75055555555555,121.70756614208221L93.78277777777778,71.75996339321136L93.94388888888888,150.842470318079L94.00833333333333,166.87680011987686L94.47555555555556,162.36912909150124L94.66888888888889,154.0513861477375L95.50666666666666,133.39170509576797L95.68388888888889,-2.6478867530822754L95.95777777777778,105.92389959096909L96.40888888888888,101.28816711902618L96.82777777777778,99.0718184709549L97.02111111111111,177.34231920540333L97.19833333333334,110.93800860643387L97.24666666666666,151.09394592046738L98.165,42.536359906196594L98.24555555555555,32.50396406650543L98.26166666666666,30.322810292243958L98.42277777777778,23.783357977867126L99.5988888888889,166.57174623012543L99.7761111111111,183.87397241592407L99.79222222222222,95.79876905679703L99.82444444444444,122.64342695474625L99.90499999999999,159.92565429210663L99.92111111111112,175.2314312160015L100.32388888888889,152.7332083582878L100.40444444444444,92.0615503191948L100.45277777777778,135.60058960318565L100.58166666666666,178.6124047189951L100.90388888888889,134.44579473137856L100.95222222222222,199.10307969152927L100.96833333333333,128.1000988483429L101.21,151.9112614095211L101.56444444444445,143.10910364985466L101.77388888888889,159.00335025787354L101.80611111111111,147.350734770298L102.01555555555557,131.67273724079132L102.61166666666666,194.47426803410053L102.99833333333333,99.62402772903442L103.11111111111111,179.0972652733326L103.20777777777776,140.34208604693413L103.59444444444445,209.89693920314312L103.64277777777777,210.32943933829665L104.59333333333333,113.42650562524796L104.86722222222222,159.03527462482452L104.88333333333334,96.58471405506134L105.20555555555555,152.84480649232864L105.2538888888889,96.39598470926285L105.39888888888889,196.92028802633286L105.97888888888889,70.00395441055298L106.02722222222222,174.99558019638062L106.285,135.76336061954498L106.78444444444445,126.81791245937347L107.23555555555555,126.87555778026581L107.36444444444444,92.76033103466034L107.42888888888889,56.37977188825607L107.55777777777777,145.03244653344154L107.735,138.39426183700562L108.1538888888889,102.07510381937027L108.23444444444445,142.49214363098145L108.49222222222222,143.6181844174862L108.75,73.0254807472229L108.8788888888889,74.59924864768982L109.02388888888889,60.73496872186661L109.1688888888889,162.90613049268723L109.3461111111111,147.31536582112312L109.36222222222223,114.88603788614273L109.55555555555556,155.52434331178665L109.58777777777777,152.07473927736282L110.2,117.5307068824768L110.39333333333333,125.6141865849495L110.69944444444445,125.43178725242615L111.07000000000001,130.98331439495087L111.39222222222223,187.8289225101471L112.16555555555556,163.67270037531853L112.31055555555555,147.40775763988495L112.35888888888888,169.52696040272713L112.3911111111111,181.44120325148106L113.21277777777777,19.056990265846252L113.2611111111111,61.71579372882843L113.58333333333333,1.548490047454834L113.61555555555556,-19.43461775779724L113.63166666666666,51.315982818603516L113.74444444444445,2.877624034881592L114.03444444444443,156.90377980470657L114.48555555555556,130.50712859630585L114.80777777777779,170.30836889147758L114.93666666666667,125.69479930400848L115.4361111111111,109.46196556091309L115.71000000000001,101.90702086687088L116,153.4362301826477L116.12888888888888,103.12694102525711L116.62833333333333,35.736448645591736L117.06333333333333,154.63536152243614L117.43388888888889,159.3441476225853L117.9011111111111,205.04134427011013L118.07833333333333,116.9332907795906L118.33611111111111,116.63032579421997L118.56166666666667,40.82004010677338L118.89999999999999,166.99859485030174L119.54444444444444,51.252028584480286L119.89888888888889,120.65620368719101L119.97944444444444,89.50874036550522L120.57555555555557,108.68503028154373L120.75277777777777,61.889236092567444L120.84944444444444,64.41184133291245L121.07499999999999,57.52121043205261L121.10722222222222,97.36775779724121L121.62277777777777,20.43627905845642L122.00944444444444,164.04480493068695L122.20277777777777,150.15046799182892L122.235,118.16582876443863L122.33166666666666,167.72664660215378L122.52499999999999,110.70742732286453L122.92777777777778,79.2910966873169L123.3788888888889,171.24971044063568L123.41111111111111,197.96931365132332L123.47555555555554,144.5814963877201L123.71722222222222,173.09268325567245L124.37777777777778,170.89755070209503L124.42611111111111,155.86893340945244L125.28,77.19315093755722L125.32833333333333,148.96368545293808L125.48944444444444,149.99563586711884L125.77944444444445,89.61376583576202L125.79555555555555,49.27363568544388L126.06944444444444,16.830365896224976L126.11777777777777,66.80997741222382L126.66555555555556,188.8986156284809L126.69777777777777,168.6819563806057L126.81055555555555,158.62061128020287L127.24555555555555,184.35799160599709L127.39055555555555,156.28010469675064L127.7288888888889,156.54543775320053L128.11555555555555,165.56064265966415L128.1961111111111,127.87948733568192L128.2927777777778,154.82950830459595L128.7277777777778,168.9232828617096L129.05,158.9420071542263L129.13055555555556,116.87457990646362L129.37222222222223,132.94778126478195L129.45277777777778,79.34111434221268L130.14555555555555,158.04583024978638L130.21,153.37730303406715L130.54833333333332,142.73428773880005L130.58055555555555,151.47109338641167L130.83833333333334,107.40837210416794L130.87055555555557,105.53598582744598L130.96722222222223,53.12193560600281L130.99944444444446,159.3437941968441L131.28944444444446,86.53360247612L131.66,141.300845682621L131.805,156.23990911245346L132.11111111111111,196.9896095842123L132.28833333333333,137.64528411626816L132.32055555555556,164.59563741087914L132.41722222222222,124.24953067302704L132.62666666666667,136.24439942836761L132.91666666666666,143.76261949539185L133.54500000000002,123.99224728345871L133.91555555555556,84.55168586969376L133.98000000000002,62.706240355968475L133.9961111111111,89.92583549022675L134.10888888888888,209.50019375234842L134.3827777777778,167.02381467819214L134.56,155.6618786752224L134.73722222222221,141.6953795850277L134.85,125.96454226970673L134.94666666666666,66.08796554803848L135.33333333333334,55.01182436943054L136.2838888888889,41.3417387008667L136.86388888888888,122.18598854541779L136.88,162.9896813929081L136.94444444444443,138.25893142819405L137.26666666666665,87.22281432151794L137.2827777777778,128.666424036026L137.29888888888888,111.97145712375641L137.42777777777778,169.0178638100624L138.13666666666666,109.23368418216705L138.24944444444444,122.15353667736053L138.29777777777778,121.33846306800842L138.6038888888889,53.784445345401764L139.4738888888889,35.652639269828796L139.6188888888889,47.745327830314636L139.6511111111111,27.95658802986145L139.71555555555557,33.75631499290466L139.81222222222223,-17.236647248268127L139.86055555555555,6.1100664138793945L139.97333333333333,171.52046620845795L140.10222222222222,111.40077477693558L140.15055555555554,156.2751409113407L140.3438888888889,140.12036678195L140.7788888888889,153.53848099708557L140.84333333333333,38.22692906856537L141.02055555555555,70.88706511259079L141.19777777777776,184.25418202579021L142.29333333333332,162.54614263772964L142.51888888888888,44.036319851875305L142.64777777777778,76.78712278604507L142.87333333333333,136.60030442476273L142.88944444444445,163.3219490647316L143.30833333333334,68.34586018323898L143.5338888888889,186.38575860857964L143.93666666666667,124.90734565258026L144.4038888888889,44.41253364086151L144.45222222222222,76.524553835392L144.8711111111111,174.79515087604523L145.1611111111111,52.251073479652405L145.22555555555556,141.20162799954414L145.62833333333333,85.33949822187424L146.04722222222222,74.24801731109619L146.46611111111113,160.6973092854023L146.7077777777778,78.75398451089859L146.83666666666664,88.14627885818481L146.8527777777778,107.9736739397049L147.2072222222222,131.21365302801132L147.27166666666668,130.64536553621292L147.49722222222223,75.32264256477356L148.14166666666668,124.8498585820198L148.28666666666666,112.88404458761215L148.48,178.0084449648857L148.78611111111113,132.0012965798378L148.83444444444444,149.3159190416336L148.97944444444443,69.5113633275032L149.83333333333334,37.493850231170654L150.01055555555553,-40.99728047847748L150.30055555555555,27.74780309200287L150.46166666666667,-54.127331614494324L150.47777777777776,-60.14230012893677L150.76777777777775,105.1109254360199L150.7838888888889,141.53310441970825L151.15444444444447,171.1995503604412L151.2188888888889,101.37503600120544L151.46055555555554,184.60434517264366L151.9438888888889,168.57249462604523L152.0888888888889,132.42663127183914L152.13722222222222,85.69510781764984L152.25,67.26084315776825L152.4111111111111,92.38578414916992L152.45944444444444,124.5030688047409L152.54000000000002,94.47852873802185L152.70111111111112,139.08808931708336L153.08777777777777,63.0702583193779L153.23277777777778,214.03908625245094L153.5388888888889,121.1730809211731L153.8127777777778,3.5856993198394775L154.81166666666667,18.97613489627838L155.37555555555556,121.25905305147171L155.64944444444444,139.39805951714516L155.81055555555554,78.31230783462524L155.89111111111112,68.33644956350327L156.06833333333333,215.19257424026728L156.165,102.00989413261414L156.27777777777777,81.41866689920425L156.56777777777776,66.02488696575165L156.64833333333334,78.85580277442932L156.72888888888886,117.25794661045074L157.01888888888888,141.29154056310654L157.1961111111111,87.25741839408875L157.24444444444447,48.87903320789337L157.56666666666666,4.421282172203064L157.69555555555556,-32.955652713775635L158.05,-2.6042096614837646L158.42055555555555,15.086784839630127L158.50111111111113,5.493101119995117L159.48388888888888,133.9978091418743L159.5,64.74008417129517L160.01555555555558,139.4152982532978L160.70833333333334,73.67975091934204L160.83722222222224,9.768349885940552L160.9661111111111,195.27407312393188L160.98222222222222,79.2672747373581L161.53,13.734862804412842L161.7072222222222,70.3731102347374L161.90055555555554,148.1362999677658L162.17444444444442,79.8684149980545L163.14111111111112,190.21032889187336L163.52777777777777,165.4045076072216L164.01111111111112,114.75072330236435L164.07555555555558,69.9673563838005L164.3011111111111,141.5800783932209L164.575,181.92975103855133L164.67166666666665,12.531358480453491L165.34833333333336,176.88307410478592L165.60611111111112,46.80561625957489L165.78333333333333,41.99609327316284L165.92833333333334,80.36290508508682L166.0572222222222,54.81191200017929L166.37944444444446,87.60289996862411L166.41166666666666,93.47502118349075L166.45999999999998,72.26997256278992L166.49222222222224,79.55728429555893L166.58888888888887,175.1609254181385L166.91111111111113,144.55803841352463L166.95944444444444,107.83290499448776L167.04,119.61667835712433L167.185,98.71758037805557L168.31277777777777,27.369162797927856L168.635,-68.33574271202087L168.65111111111113,-11.741963624954224L168.68333333333334,3.8679968118667603L168.9088888888889,-93.07020628452301L168.97333333333333,-14.841939926147461L169.11833333333334,4.240117192268372L169.13444444444443,-0.2711777687072754L169.215,21.449228882789612L169.29555555555555,-36.69219624996185L170.42333333333335,-31.64571976661682L170.64888888888888,144.17526251077652L170.79388888888892,26.869977951049805L171.21277777777777,20.9819895029068L171.32555555555555,117.30345940589905L171.34166666666667,101.60696768760681L171.48666666666668,174.78175234794617L172.0988888888889,33.940940380096436L172.2277777777778,35.41197216510773L172.2438888888889,154.97135335206985L172.3083333333333,157.2812173962593L172.82388888888892,94.29133969545364L173.58111111111108,103.38881367444992L173.64555555555555,137.39548069238663L173.93555555555554,137.45543119311333L174.01611111111112,53.94437313079834L174.3061111111111,32.23215329647064L174.35444444444445,40.8274884223938L174.69277777777776,131.1899471282959L174.87,105.67903357744217L175.25666666666666,141.79897025227547L175.36944444444447,119.1198461651802L175.64333333333335,153.00669130682945L175.67555555555555,146.30186212062836L175.72388888888887,122.55983912944794L176.06222222222223,142.8851003050804L176.09444444444443,80.8632293343544L176.175,101.95223826169968L176.35222222222222,117.55592143535614L176.54555555555555,176.37264293432236L176.81944444444446,55.01451462507248L177.10944444444445,115.70896071195602L177.2061111111111,43.06639301776886L177.3672222222222,111.9905526638031L177.65722222222223,175.44584986567497L177.67333333333335,82.61192715167999L178.10833333333332,152.83609744906425L178.23722222222221,119.2629783153534L178.3983333333333,123.3989245891571L178.57555555555555,33.13008677959442L178.9138888888889,10.630666494369507L179.20388888888888,4.256997227668762L179.71944444444443,15.883480310440063L179.8322222222222,-40.046428084373474L180.67,128.07421964406967L180.70222222222222,179.02092531323433L180.86333333333334,166.98705312609673L180.97611111111112,171.8168532550335L181.4111111111111,141.43724691867828L181.74944444444444,134.71161836385727L181.91055555555556,119.7407888174057L182.16833333333332,62.88815438747406L182.20055555555558,140.93273958563805L182.31333333333333,151.15140661597252L182.82888888888888,155.33932229876518L182.90944444444443,20.00324285030365L183.08666666666664,-16.17681312561035L183.16722222222222,54.23936229944229L183.86,108.23414343595505L183.90833333333333,154.1639337837696L184.23055555555558,98.8255387544632L184.32722222222222,110.66179847717285L184.34333333333333,110.74831920862198L184.76222222222222,126.9887278676033L184.875,139.90012979507446L185.89000000000001,94.02500438690186L186.035,150.1829989850521L186.14777777777778,93.20302051305771L186.19611111111112,141.35081058740616L186.3088888888889,162.97612988948822L186.35722222222222,99.22556394338608L186.71166666666667,166.745489269495L186.8888888888889,113.81169748306274L187.06611111111113,60.92762267589569L187.25944444444443,110.67730700969696L187.27555555555557,85.70639634132385L187.3238888888889,121.26910722255707L187.71055555555554,109.74074989557266L187.80722222222224,77.09785258769989L188.17777777777778,-24.296743154525757L188.3388888888889,70.21307694911957L188.46777777777777,158.42610052227974L189.45055555555555,17.953457951545715L189.59555555555556,147.59449303150177L189.74055555555555,109.82348316907883L190.30444444444444,169.11564669013023L190.75555555555556,91.6016326546669L190.80388888888888,140.88208892941475L191.44833333333332,188.51346069574356L191.83499999999998,36.36881697177887L191.9961111111111,81.06576865911484L192.88222222222223,-20.07671320438385L193.09166666666667,154.78451246023178L193.55888888888887,149.0717018544674L194.13888888888889,96.148850440979L194.21944444444443,54.539447128772736L194.23555555555555,127.94537222385406L194.26777777777778,132.10780960321426L194.4933333333333,122.3280023932457L194.68666666666667,172.64343693852425L195.05722222222224,77.33980679512024L195.1538888888889,46.587768852710724L195.39555555555557,91.47499018907547L195.4922222222222,156.04217004776L195.65333333333334,119.10756593942642L196.04000000000002,-6.492209315299988L196.3138888888889,36.6595333814621L196.66833333333335,28.573869824409485L197.1677777777778,166.98040133714676L197.28055555555554,162.85377073287964L197.45777777777778,170.4680645763874L197.71555555555557,156.87019908428192L197.78,177.89205712080002L197.89277777777778,104.63425433635712L197.97333333333333,121.25701689720154L198.65,171.4528458416462L199.23000000000002,92.20764702558517L199.6811111111111,97.24381613731384L199.71333333333334,32.700299978256226L199.72944444444445,110.7320721745491L199.76166666666666,35.79715347290039L199.85833333333335,65.53605169057846L200.00333333333333,83.21552556753159L200.1,71.3057005405426L200.18055555555554,-53.098472356796265L200.64777777777778,85.10382127761841L200.87333333333333,36.87701153755188L201.05055555555555,154.10745951533318L201.21166666666664,155.87732595205307L201.2761111111111,166.60037371516228L201.29222222222222,159.5757786333561L201.74333333333334,20.391483664512634L201.88833333333335,55.3977125287056L202.01722222222222,178.3117185384035L202.2588888888889,143.801886677742L202.275,86.79601317644119L202.46833333333333,98.7124108672142L202.96777777777777,114.03575885295868L203.11277777777775,52.347258031368256L203.32222222222222,34.3565479516983L203.38666666666668,91.98952531814575L203.4672222222222,-1.0600029230117798L203.61222222222221,51.46466428041458L203.74111111111114,38.524460792541504L203.8538888888889,-56.142406940460205L203.86999999999998,14.044949054718018L204.1438888888889,147.88576331734657L204.6272222222222,-66.30646705627441L204.78833333333336,89.17147725820541L205.38444444444443,43.42201316356659L205.52944444444447,-32.88332176208496L205.54555555555555,0.9997411966323853L205.64222222222222,-53.67043125629425L205.89999999999998,84.65386283397675L206.01277777777776,133.31578186154366L206.4638888888889,109.37502282857895L206.48,62.838411033153534L206.625,-1.4867935180664062L206.70555555555555,122.61583864688873L206.88277777777776,73.01949888467789L207.02777777777777,169.8284378349781L207.25333333333333,55.275395572185516L207.43055555555557,106.57749456167221L207.86555555555555,165.96745678782463L207.9138888888889,137.39635106921196L208.0588888888889,96.94037640094757L208.46166666666667,26.95963203907013L208.5261111111111,29.51619780063629L208.6711111111111,24.71988344192505L208.89666666666668,24.237810730934143L208.99333333333334,7.064484715461731L209.02555555555554,16.406909108161926L209.57333333333332,163.65979769825935L209.67,133.66841107606888L209.76666666666668,81.22671979665756L209.79888888888888,118.33565247058868L209.815,147.2336980998516L209.97611111111112,104.33904361724854L210.05666666666667,136.2113620340824L210.28222222222223,161.28056198358536L210.4272222222222,174.91830655932426L210.685,85.8302430510521L211.08777777777777,104.88405776023865L211.39388888888888,100.73333090543747L211.5388888888889,45.21440917253494L211.82888888888888,60.59376722574234L212.26388888888889,123.02871376276016L212.63444444444445,133.08691495656967L212.66666666666666,128.29315370321274L212.68277777777777,121.22869008779526L213.50444444444443,138.31264686584473L213.63333333333335,114.91169553995132L213.68166666666667,102.74837458133698L213.82666666666665,207.5957327708602L214.4388888888889,124.11413168907166L214.93833333333333,89.9984090924263L215.26055555555556,-31.99745750427246L215.48611111111111,29.75169539451599L215.56666666666666,71.72987473011017L216.06611111111113,1.8915767669677734L216.19500000000002,36.09430539608002L216.22722222222222,18.02581000328064L216.775,-85.18545734882355L216.82333333333335,184.1104063242674L217.04888888888888,107.89680647850037L217.09722222222223,193.1627499461174L217.27444444444444,108.30469143390656L217.3711111111111,142.33915776014328L217.8222222222222,78.87055170536041L217.87055555555557,105.32108187675476L217.88666666666666,109.14117103815079L217.98333333333335,105.7419855594635L218.01555555555555,73.86088424921036L218.28944444444443,205.01594641059637L218.41833333333332,192.56159122288227L218.56333333333333,86.89280962944031L218.80499999999998,104.20850819349289L219.06277777777777,50.08663094043732L219.6911111111111,68.8933430314064L219.88444444444445,141.43353858590126L219.91666666666666,151.61246368288994L220.07777777777775,91.99467372894287L220.255,106.5708058476448L220.36777777777777,31.459174275398254L220.48055555555558,80.3664498925209L220.51277777777779,53.383417904376984L220.78666666666666,13.963713884353638L221.09277777777777,112.97578758001328L221.67277777777778,118.76009041070938L221.83388888888888,77.03061729669571L222.10777777777776,1.816882610321045L222.20444444444445,152.51538732647896L222.34944444444443,58.10592430830002L222.83277777777778,34.24419021606445L223.20333333333335,73.22057175636292L223.21944444444443,-73.7386622428894L223.50944444444443,43.34134769439697L223.96055555555554,-38.27423536777496L224.47611111111112,193.1566177457571L224.605,138.76091730594635L224.68555555555557,182.88028165698051L224.71777777777777,171.58796525001526L224.73388888888888,122.55551362037659L225.05611111111114,110.74451065063477L225.13666666666666,63.16376316547394L225.36222222222221,131.04642462730408L225.5233333333333,134.46318116784096L225.6038888888889,153.8035977780819L225.71666666666667,163.60562333464622L226.02277777777778,93.8549696803093L226.2161111111111,98.54911762475967L226.78,69.53246337175369L226.92499999999998,99.96708279848099L227.69833333333332,114.36475074291229L227.77888888888887,80.12676393985748L228.02055555555555,118.04150730371475L228.19777777777776,20.709967732429504L228.26222222222222,131.68954342603683L228.52,64.8106427192688L228.72944444444445,84.98566102981567L229.05166666666668,86.02146220207214L229.19666666666666,150.2863311767578L229.32555555555555,111.94411146640778L229.64777777777778,-167.10310864448547L229.90555555555557,159.0289287865162L230.22777777777776,135.2965959906578L230.2761111111111,67.1139657497406L230.5338888888889,39.923351526260376L230.79166666666666,18.848880529403687L230.96888888888887,3.434222102165222L231.93555555555557,134.42922592163086L232.08055555555555,110.58357006311417L232.09666666666666,78.79854780435562L232.58,15.729365587234497L232.8861111111111,-25.932207584381104L232.93444444444444,19.18261992931366L233.2888888888889,-293.22317934036255L233.99777777777777,138.61239936947823L234.3361111111111,178.57427957654L234.4327777777778,85.56575399637222L234.465,145.2226212322712L234.8033333333333,167.98939490318298L235.15777777777777,29.962252736091614L235.625,171.54540646076202L236.3661111111111,43.84127104282379L236.6238888888889,64.94062954187393L236.8172222222222,157.7113417983055L237.76777777777778,173.02528443932533L238.02555555555557,112.3169070482254L238.525,82.87962341308594L238.6538888888889,12.943484544754028L238.99222222222224,17.44032597541809L239.395,33.36950898170471L239.47555555555556,-26.52368402481079L239.685,220.94249086047057L239.89444444444445,150.27684670686722L239.99111111111114,96.21335327625275L240.6677777777778,161.76509284973145L240.6838888888889,46.82239079475403L240.76444444444445,121.87006813287735L241.0061111111111,141.7777963578701L241.94055555555556,12.635719299316406L242.21444444444444,-13.811645865440369L242.64944444444444,90.10119795799255L242.66555555555553,142.8227232992649L242.79444444444445,134.96011358499527L242.98777777777778,65.77343773841858L243.0361111111111,69.91102981567383L243.18111111111114,43.54530072212219L243.42277777777775,15.244064569473267L243.48722222222221,-2.5469441413879395L243.51944444444445,35.99553608894348L243.7611111111111,-44.713863372802734L244.3411111111111,-5.813716292381287L244.58277777777778,4.84503436088562L244.7438888888889,-54.3035591840744L244.79222222222222,-65.55665588378906L244.98555555555555,79.48807615041733L245.00166666666667,123.39380782842636L245.0661111111111,149.73247611522675L245.51722222222222,65.11524295806885L245.9361111111111,8.160104513168335L246.4677777777778,106.10250091552734L246.70944444444447,54.45416074991226L247.28944444444446,63.19860988855362L247.37,122.89296662807465L248.14333333333335,123.85272324085236L248.20777777777778,23.979778289794922L248.53,121.64968872070312L249.30333333333334,89.83476769924164L249.31944444444446,111.74551784992218L249.73833333333332,53.02751290798187L249.78666666666666,163.4020659327507L250.46333333333334,164.05035424232483L250.7211111111111,68.66128474473953L251.28500000000003,187.50086429715157L251.52666666666664,111.15448451042175L251.65555555555554,109.78969144821167L251.73611111111111,49.773094832897186L251.7522222222222,60.45666968822479L252.28388888888887,37.325345277786255L252.5577777777778,119.39920020103455L252.60611111111112,182.1050000935793L252.65444444444444,133.51761960983276L252.86388888888888,170.57085344195366L253.29888888888888,130.82023215293884L253.5888888888889,5.313750743865967L253.70166666666668,56.76823425292969L253.81444444444446,128.00629860162735L254.1688888888889,180.45256859064102L254.50722222222223,104.80260103940964L254.71666666666667,109.05994641780853L255.28055555555557,181.6895929723978L255.6511111111111,112.515669465065L255.69944444444442,39.28041207790375L255.9088888888889,21.283424735069275L255.97333333333336,11.081152439117432L256.07,30.782031655311584L256.7627777777778,-63.06579566001892L257.1333333333333,221.2224274167238L257.2622222222222,124.5480329990387L257.2783333333333,104.77488613128662L257.2944444444444,123.73562854528427L257.3911111111111,181.58448573946953L257.71333333333337,104.99125653505325L257.74555555555554,117.58805680274963L258.03555555555556,137.90162855386734L258.8411111111111,117.33689242601395L259.06666666666666,49.814556419849396L259.16333333333336,153.0957651436329L259.7111111111111,-15.946189641952515L260.37166666666667,166.46667855978012L260.8227777777778,128.01794582605362L261.2577777777778,172.5622386932373L261.3383333333333,119.10801959037781L261.435,116.2058562040329L261.80555555555554,130.87038695812225L262.2083333333333,49.90233260393143L262.4016666666667,138.95003700256348L262.41777777777776,95.59461557865143L262.51444444444445,143.50421780347824L262.65944444444443,87.07824736833572L262.93333333333334,55.61110782623291L263.12666666666667,7.117973327636719L263.2233333333333,170.28887245059013L263.54555555555555,172.32113376259804L263.61,77.38008677959442L263.99666666666667,18.309457898139954L264.0288888888889,-22.200031757354736L264.1738888888889,-15.544697999954224L264.9794444444444,154.35299018025398L265.3661111111111,133.81756201386452L265.3822222222222,96.2955801486969L265.7366666666667,40.11854803562164L266.30055555555555,142.0689558684826L266.31666666666666,79.28012466430664L266.7033333333333,97.15685230493546L266.73555555555555,132.70764166116714L266.75166666666667,52.660530388355255L267.235,132.81210270524025L267.6377777777778,143.88870280981064L267.6861111111111,82.50370502471924L267.71833333333336,92.53055155277252L267.96000000000004,48.14113301038742L268.0566666666667,105.6968103647232L268.37888888888887,146.4894995391369L268.54,75.48012274503708L268.5561111111111,122.07577246427536L268.685,74.88729590177536L268.74944444444446,153.9907709956169L268.8461111111111,93.85858833789825L269.1038888888889,140.8687748014927L269.7966666666667,93.7783237695694L269.99,48.23204255104065L270.1672222222222,173.65565353631973L270.3283333333333,85.26816952228546L270.34444444444443,171.2597857117653L270.4088888888889,87.54218459129333L270.4733333333333,107.8832391500473L270.53777777777776,105.52750360965729L270.81166666666667,42.93021333217621L270.90833333333336,80.06282025575638L270.97277777777776,57.58067035675049L271.005,86.51811504364014L271.40777777777777,83.19214671850204L271.7138888888889,25.250000953674316L271.82666666666665,55.45050483942032L271.84277777777777,55.61647778749466L272.10055555555556,45.72955620288849L272.1488888888889,27.910125732421875L272.6644444444444,140.80229383707047L272.68055555555554,89.96729707717896L272.69666666666666,174.26555559039116L273.0833333333333,64.66674041748047L273.3088888888889,59.26097238063812L273.53444444444443,22.60416090488434" style="fill: none;" fill="none"></path></g></g></g></g></g></g><g transform="translate(40, 177)" clip-path="url(#clip_1)"><clipPath id="clip_1"><rect width="290" height="23"></rect></clipPath><g><g><line x1="0" y1="0" x2="0" y2="5" style="visibility: inherit;" fill="rgb(0, 0, 0)" stroke="rgb(204, 204, 204)" stroke-width="1px"></line><line x1="32.22222222222222" y1="0" x2="32.22222222222222" y2="5" style="visibility: inherit;" fill="rgb(0, 0, 0)" stroke="rgb(204, 204, 204)" stroke-width="1px"></line><line x1="64.44444444444444" y1="0" x2="64.44444444444444" y2="5" style="visibility: inherit;" fill="rgb(0, 0, 0)" stroke="rgb(204, 204, 204)" stroke-width="1px"></line><line x1="96.66666666666666" y1="0" x2="96.66666666666666" y2="5" style="visibility: inherit;" fill="rgb(0, 0, 0)" stroke="rgb(204, 204, 204)" stroke-width="1px"></line><line x1="128.88888888888889" y1="0" x2="128.88888888888889" y2="5" style="visibility: inherit;" fill="rgb(0, 0, 0)" stroke="rgb(204, 204, 204)" stroke-width="1px"></line><line x1="161.11111111111111" y1="0" x2="161.11111111111111" y2="5" style="visibility: inherit;" fill="rgb(0, 0, 0)" stroke="rgb(204, 204, 204)" stroke-width="1px"></line><line x1="193.33333333333331" y1="0" x2="193.33333333333331" y2="5" style="visibility: inherit;" fill="rgb(0, 0, 0)" stroke="rgb(204, 204, 204)" stroke-width="1px"></line><line x1="225.55555555555557" y1="0" x2="225.55555555555557" y2="5" style="visibility: inherit;" fill="rgb(0, 0, 0)" stroke="rgb(204, 204, 204)" stroke-width="1px"></line><line x1="257.77777777777777" y1="0" x2="257.77777777777777" y2="5" style="visibility: inherit;" fill="rgb(0, 0, 0)" stroke="rgb(204, 204, 204)" stroke-width="1px"></line><line x1="290" y1="0" x2="290" y2="5" style="visibility: inherit;" fill="rgb(0, 0, 0)" stroke="rgb(204, 204, 204)" stroke-width="1px"></line></g><g transform="translate(0, 8)"><text x="0" y="0" dx="0em" dy="0.95em" style="text-anchor: middle; visibility: hidden; font-family: Roboto, sans-serif; font-size: 12px; font-weight: 200;" fill="rgb(255, 255, 255)" stroke="none" stroke-width="1px">-2k</text><text x="32.22222222222222" y="0" dx="0em" dy="0.95em" style="text-anchor: middle; visibility: inherit; font-family: Roboto, sans-serif; font-size: 12px; font-weight: 200;" fill="rgb(255, 255, 255)" stroke="none" stroke-width="1px">0</text><text x="64.44444444444444" y="0" dx="0em" dy="0.95em" style="text-anchor: middle; visibility: inherit; font-family: Roboto, sans-serif; font-size: 12px; font-weight: 200;" fill="rgb(255, 255, 255)" stroke="none" stroke-width="1px">2k</text><text x="96.66666666666666" y="0" dx="0em" dy="0.95em" style="text-anchor: middle; visibility: inherit; font-family: Roboto, sans-serif; font-size: 12px; font-weight: 200;" fill="rgb(255, 255, 255)" stroke="none" stroke-width="1px">4k</text><text x="128.88888888888889" y="0" dx="0em" dy="0.95em" style="text-anchor: middle; visibility: inherit; font-family: Roboto, sans-serif; font-size: 12px; font-weight: 200;" fill="rgb(255, 255, 255)" stroke="none" stroke-width="1px">6k</text><text x="161.11111111111111" y="0" dx="0em" dy="0.95em" style="text-anchor: middle; visibility: inherit; font-family: Roboto, sans-serif; font-size: 12px; font-weight: 200;" fill="rgb(255, 255, 255)" stroke="none" stroke-width="1px">8k</text><text x="193.33333333333331" y="0" dx="0em" dy="0.95em" style="text-anchor: middle; visibility: inherit; font-family: Roboto, sans-serif; font-size: 12px; font-weight: 200;" fill="rgb(255, 255, 255)" stroke="none" stroke-width="1px">10k</text><text x="225.55555555555557" y="0" dx="0em" dy="0.95em" style="text-anchor: middle; visibility: inherit; font-family: Roboto, sans-serif; font-size: 12px; font-weight: 200;" fill="rgb(255, 255, 255)" stroke="none" stroke-width="1px">12k</text><text x="257.77777777777777" y="0" dx="0em" dy="0.95em" style="text-anchor: middle; visibility: inherit; font-family: Roboto, sans-serif; font-size: 12px; font-weight: 200;" fill="rgb(255, 255, 255)" stroke="none" stroke-width="1px">14k</text><text x="290" y="0" dx="0em" dy="0.95em" style="text-anchor: middle; visibility: hidden; font-family: Roboto, sans-serif; font-size: 12px; font-weight: 200;" fill="rgb(255, 255, 255)" stroke="none" stroke-width="1px">16k</text></g><line x1="0" y1="0" x2="290" y2="0" fill="rgb(0, 0, 0)" stroke="rgb(204, 204, 204)" stroke-width="1px"></line></g></g></g></g></svg>