<svg viewBox="0 0 330 200" xmlns="http://www.w3.org/2000/svg"><g><g><g><g><g><line x1="40" y1="177" x2="35" y2="177" style="visibility: inherit;" fill="rgb(0, 0, 0)" stroke="rgb(204, 204, 204)" stroke-width="1px"></line><line x1="40" y1="157.33333333333331" x2="35" y2="157.33333333333331" style="visibility: inherit;" fill="rgb(0, 0, 0)" stroke="rgb(204, 204, 204)" stroke-width="1px"></line><line x1="40" y1="137.66666666666666" x2="35" y2="137.66666666666666" style="visibility: inherit;" fill="rgb(0, 0, 0)" stroke="rgb(204, 204, 204)" stroke-width="1px"></line><line x1="40" y1="118" x2="35" y2="118" style="visibility: inherit;" fill="rgb(0, 0, 0)" stroke="rgb(204, 204, 204)" stroke-width="1px"></line><line x1="40" y1="98.33333333333334" x2="35" y2="98.33333333333334" style="visibility: inherit;" fill="rgb(0, 0, 0)" stroke="rgb(204, 204, 204)" stroke-width="1px"></line><line x1="40" y1="78.66666666666666" x2="35" y2="78.66666666666666" style="visibility: inherit;" fill="rgb(0, 0, 0)" stroke="rgb(204, 204, 204)" stroke-width="1px"></line><line x1="40" y1="58.999999999999964" x2="35" y2="58.999999999999964" style="visibility: inherit;" fill="rgb(0, 0, 0)" stroke="rgb(204, 204, 204)" stroke-width="1px"></line><line x1="40" y1="39.33333333333333" x2="35" y2="39.33333333333333" style="visibility: inherit;" fill="rgb(0, 0, 0)" stroke="rgb(204, 204, 204)" stroke-width="1px"></line><line x1="40" y1="19.666666666666636" x2="35" y2="19.666666666666636" style="visibility: inherit;" fill="rgb(0, 0, 0)" stroke="rgb(204, 204, 204)" stroke-width="1px"></line><line x1="40" y1="0" x2="35" y2="0" style="visibility: inherit;" fill="rgb(0, 0, 0)" stroke="rgb(204, 204, 204)" stroke-width="1px"></line></g><g transform="translate(30, 0)"><text x="0" y="177" dx="0em" dy="0.3em" style="text-anchor: end; visibility: hidden; font-family: Roboto, sans-serif; font-size: 12px; font-weight: 200;" fill="rgb(255, 255, 255)" stroke="none" stroke-width="1px">0.6</text><text x="0" y="157.33333333333331" dx="0em" dy="0.3em" style="text-anchor: end; visibility: inherit; font-family: Roboto, sans-serif; font-size: 12px; font-weight: 200;" fill="rgb(255, 255, 255)" stroke="none" stroke-width="1px">0.8</text><text x="0" y="137.66666666666666" dx="0em" dy="0.3em" style="text-anchor: end; visibility: hidden; font-family: Roboto, sans-serif; font-size: 12px; font-weight: 200;" fill="rgb(255, 255, 255)" stroke="none" stroke-width="1px">1</text><text x="0" y="118" dx="0em" dy="0.3em" style="text-anchor: end; visibility: inherit; font-family: Roboto, sans-serif; font-size: 12px; font-weight: 200;" fill="rgb(255, 255, 255)" stroke="none" stroke-width="1px">1.2</text><text x="0" y="98.33333333333334" dx="0em" dy="0.3em" style="text-anchor: end; visibility: hidden; font-family: Roboto, sans-serif; font-size: 12px; font-weight: 200;" fill="rgb(255, 255, 255)" stroke="none" stroke-width="1px">1.4</text><text x="0" y="78.66666666666666" dx="0em" dy="0.3em" style="text-anchor: end; visibility: inherit; font-family: Roboto, sans-serif; font-size: 12px; font-weight: 200;" fill="rgb(255, 255, 255)" stroke="none" stroke-width="1px">1.6</text><text x="0" y="58.999999999999964" dx="0em" dy="0.3em" style="text-anchor: end; visibility: hidden; font-family: Roboto, sans-serif; font-size: 12px; font-weight: 200;" fill="rgb(255, 255, 255)" stroke="none" stroke-width="1px">1.8</text><text x="0" y="39.33333333333333" dx="0em" dy="0.3em" style="text-anchor: end; visibility: inherit; font-family: Roboto, sans-serif; font-size: 12px; font-weight: 200;" fill="rgb(255, 255, 255)" stroke="none" stroke-width="1px">2</text><text x="0" y="19.666666666666636" dx="0em" dy="0.3em" style="text-anchor: end; visibility: hidden; font-family: Roboto, sans-serif; font-size: 12px; font-weight: 200;" fill="rgb(255, 255, 255)" stroke="none" stroke-width="1px">2.2</text><text x="0" y="0" dx="0em" dy="0.3em" style="text-anchor: end; visibility: hidden; font-family: Roboto, sans-serif; font-size: 12px; font-weight: 200;" fill="rgb(255, 255, 255)" stroke="none" stroke-width="1px">2.4</text></g><line x1="40" y1="0" x2="40" y2="177" fill="rgb(0, 0, 0)" stroke="rgb(204, 204, 204)" stroke-width="1px"></line></g></g><g transform="translate(40, 0)" clip-path="url(#clip_0)"><clipPath id="clip_0"><rect width="290" height="177"></rect></clipPath><g><g><g><line x1="0" y1="0" x2="0" y2="177" fill="rgb(0, 0, 0)" stroke="rgb(189, 189, 189)" stroke-width="1px" opacity="0.25"></line><line x1="20.71428571428571" y1="0" x2="20.71428571428571" y2="177" fill="rgb(0, 0, 0)" stroke="rgb(189, 189, 189)" stroke-width="1px" opacity="0.25"></line><line x1="41.42857142857142" y1="0" x2="41.42857142857142" y2="177" fill="rgb(0, 0, 0)" stroke="rgb(189, 189, 189)" stroke-width="1px" opacity="0.25"></line><line x1="62.14285714285714" y1="0" x2="62.14285714285714" y2="177" fill="rgb(0, 0, 0)" stroke="rgb(189, 189, 189)" stroke-width="1px" opacity="0.25"></line><line x1="82.85714285714285" y1="0" x2="82.85714285714285" y2="177" fill="rgb(0, 0, 0)" stroke="rgb(189, 189, 189)" stroke-width="1px" opacity="0.25"></line><line x1="103.57142857142857" y1="0" x2="103.57142857142857" y2="177" fill="rgb(0, 0, 0)" stroke="rgb(189, 189, 189)" stroke-width="1px" opacity="0.25"></line><line x1="124.28571428571428" y1="0" x2="124.28571428571428" y2="177" fill="rgb(0, 0, 0)" stroke="rgb(189, 189, 189)" stroke-width="1px" opacity="0.25"></line><line x1="145" y1="0" x2="145" y2="177" fill="rgb(0, 0, 0)" stroke="rgb(189, 189, 189)" stroke-width="1px" opacity="0.25"></line><line x1="165.7142857142857" y1="0" x2="165.7142857142857" y2="177" fill="rgb(0, 0, 0)" stroke="rgb(189, 189, 189)" stroke-width="1px" opacity="0.25"></line><line x1="186.42857142857144" y1="0" x2="186.42857142857144" y2="177" fill="rgb(0, 0, 0)" stroke="rgb(189, 189, 189)" stroke-width="1px" opacity="0.25"></line><line x1="207.14285714285714" y1="0" x2="207.14285714285714" y2="177" fill="rgb(0, 0, 0)" stroke="rgb(189, 189, 189)" stroke-width="1px" opacity="0.25"></line><line x1="227.85714285714286" y1="0" x2="227.85714285714286" y2="177" fill="rgb(0, 0, 0)" stroke="rgb(189, 189, 189)" stroke-width="1px" opacity="0.25"></line><line x1="248.57142857142856" y1="0" x2="248.57142857142856" y2="177" fill="rgb(0, 0, 0)" stroke="rgb(189, 189, 189)" stroke-width="1px" opacity="0.25"></line><line x1="269.2857142857143" y1="0" x2="269.2857142857143" y2="177" fill="rgb(0, 0, 0)" stroke="rgb(189, 189, 189)" stroke-width="1px" opacity="0.25"></line><line x1="290" y1="0" x2="290" y2="177" fill="rgb(0, 0, 0)" stroke="rgb(189, 189, 189)" stroke-width="1px" opacity="0.25"></line></g><g><line x1="0" y1="177" x2="290" y2="177" fill="rgb(0, 0, 0)" stroke="rgb(189, 189, 189)" stroke-width="1px" opacity="0.25"></line><line x1="0" y1="157.33333333333331" x2="290" y2="157.33333333333331" fill="rgb(0, 0, 0)" stroke="rgb(189, 189, 189)" stroke-width="1px" opacity="0.25"></line><line x1="0" y1="137.66666666666666" x2="290" y2="137.66666666666666" fill="rgb(0, 0, 0)" stroke="rgb(189, 189, 189)" stroke-width="1px" opacity="0.25"></line><line x1="0" y1="118" x2="290" y2="118" fill="rgb(0, 0, 0)" stroke="rgb(189, 189, 189)" stroke-width="1px" opacity="0.25"></line><line x1="0" y1="98.33333333333334" x2="290" y2="98.33333333333334" fill="rgb(0, 0, 0)" stroke="rgb(189, 189, 189)" stroke-width="1px" opacity="0.25"></line><line x1="0" y1="78.66666666666666" x2="290" y2="78.66666666666666" fill="rgb(0, 0, 0)" stroke="rgb(189, 189, 189)" stroke-width="1px" opacity="0.25"></line><line x1="0" y1="58.999999999999964" x2="290" y2="58.999999999999964" fill="rgb(0, 0, 0)" stroke="rgb(189, 189, 189)" stroke-width="1px" opacity="0.25"></line><line x1="0" y1="39.33333333333333" x2="290" y2="39.33333333333333" fill="rgb(0, 0, 0)" stroke="rgb(189, 189, 189)" stroke-width="1px" opacity="0.25"></line><line x1="0" y1="19.666666666666636" x2="290" y2="19.666666666666636" fill="rgb(0, 0, 0)" stroke="rgb(189, 189, 189)" stroke-width="1px" opacity="0.25"></line><line x1="0" y1="0" x2="290" y2="0" fill="rgb(0, 0, 0)" stroke="rgb(189, 189, 189)" stroke-width="1px" opacity="0.25"></line></g></g></g><g><g><line x1="0" y1="236.00000000000003" x2="290" y2="236.00000000000003" fill="rgb(0, 0, 0)" stroke="rgb(153, 153, 153)" stroke-width="1.5px"></line></g></g><g><g><line x1="20.71428571428571" y1="0" x2="20.71428571428571" y2="177" fill="rgb(0, 0, 0)" stroke="rgb(153, 153, 153)" stroke-width="1.5px"></line></g></g><g><g><g><g><g><path stroke="rgb(255, 112, 67)" stroke-width="2px" d="M20.801285714285715,42.78943852583567L21.060214285714284,66.52972838282585L21.18864285714286,-214.65390349245402L21.913642857142854,-85.42781007609787L21.92814285714286,17.293705916362594L22.02757142857143,75.57389508594397L22.0545,20.343652172324642L22.193285714285715,-681.5353473715209L23.475499999999997,-68.77724059966573L23.483785714285712,27.025047063039345L23.583214285714288,61.34650455492087L23.597714285714286,95.26837899168301L23.688857142857145,19.96390267080335L24.21707142857143,14.917727119990735L24.30614285714286,33.055631873878866L24.312357142857145,61.868629769291104L24.602357142857144,33.432427361249545L24.685214285714284,-136.65470166071924L31.349,-34.041346297822805L31.78607142857143,10.549054694606086L31.815071428571425,20.669563050545953L32.56907142857143,30.338295584218553L32.74514285714286,43.33787146725885L32.86114285714286,46.85909069092383L32.95021428571428,30.32743863569107L33.122142857142855,35.52219340983942L33.55714285714286,13.026330871086927L33.5965,26.238327806812134L33.7415,-4.238373860347166L35.143857142857144,-19.232570481766L35.535357142857144,40.56644587965694L36.00557142857143,38.85980764976274L36.167142857142856,46.656871699995605L36.17335714285714,15.766653003517805L36.27278571428572,22.155096941525134L36.867285714285714,13.46731264591278L36.93978571428571,24.21439200560286L37.26707142857143,50.43495186519646L37.422428571428576,42.57635986220055L37.65857142857143,26.502553817100644L37.7435,12.808871608853744L38.037642857142856,-3.4972916154779474L38.06664285714286,-7.090105277819475L38.31728571428572,25.96892375398293L38.338,37.10346597024965L38.53064285714286,59.25921695384879L39.10442857142858,19.810101355831797L39.222500000000004,31.330877863797113L39.342642857142856,46.222330190797194L39.895714285714284,51.921922424272395L40.32657142857143,60.21851692527673L40.50471428571429,51.748993424158144L40.531642857142856,47.7409902419135L40.803,51.920921341905114L41.10335714285715,41.04489686667667L41.23592857142857,51.98296825039233L42.00028571428571,64.86037912337686L42.014785714285715,65.57420249602421L42.25507142857143,70.01733322831726L42.420785714285714,63.60194017823182L42.50985714285714,62.77779893677814L42.685928571428576,61.21344348153307L43.044285714285714,55.36737253880997L43.297,68.00516498853665L43.30321428571429,73.48952076893987L43.42957142857143,63.176795041930305L43.44614285714285,80.0859291770289L43.54142857142857,84.92186485637603L43.711285714285715,74.49448142196363L44.36792857142857,73.66332287239409L44.477714285714285,49.442635726813734L44.602,48.12738962484453L44.672428571428576,36.6517775744978L44.91892857142857,45.503184391505506L45.07221428571429,62.414809366135L45.507214285714284,71.6037813862571L45.51757142857143,104.56318782411473L45.911142857142856,84.2293590146847L46.17214285714286,81.97448318631731L46.961357142857146,75.31318042336672L47.38807142857143,74.2531404355691L47.5165,74.5032901680187L47.71328571428572,75.94774581088912L47.769214285714284,90.39209604915554L48.47557142857143,80.22031472915354L48.773857142857146,77.63412160154544L48.8795,68.01674500987748L48.927142857142854,90.21644862424822L49.32071428571428,69.65310233393207L49.879999999999995,65.80819997127192L50.17207142857143,92.55308423599801L50.32328571428571,86.10467619594654L50.414428571428566,77.11881906328632L50.640214285714286,93.79397488358437L51.03585714285714,88.00197633538336L51.098,85.0435970014355L51.13735714285714,92.54172469294198L51.32792857142857,94.34320447315449L51.39007142857143,98.2660197901905L51.522642857142856,80.42301389107189L51.562000000000005,84.54628862855284L52.7655,71.15990818689731L52.835928571428575,76.0668661901383L53.31857142857143,75.6690002943493L53.36828571428571,77.10411444497605L54.09742857142857,93.98978971953692L54.372928571428574,99.93595890710057L54.52207142857142,86.97241812850616L55.53292857142857,95.52106714589743L55.63235714285714,77.88145669506004L56.065285714285714,75.07425708893543L56.1295,94.46226549540125L56.58521428571429,85.29425773855543L56.630785714285715,91.77977866631646L57.053357142857145,83.84332075140017L57.08235714285714,84.69866696052435L57.14242857142857,83.27611442637054L58.93421428571429,102.60191500324969L60.31171428571429,104.57765073064346L60.4215,113.56479601750799L61.17135714285714,111.83105902288372L61.39714285714286,100.82959846902298L61.42614285714286,99.83105584133709L61.58564285714286,95.21438337255944L61.82385714285714,81.32981904877875L62.1325,85.27681171417426L62.25264285714286,95.8106963049582L62.27128571428572,110.2256792353319L62.42871428571428,118.69557650685668L62.64828571428571,109.08653403798952L62.664857142857144,96.49225741315016L62.811928571428574,104.6882952075489L63.05428571428571,114.06810366439545L63.25935714285715,109.67437736587361L63.26142857142857,105.80894209780276L63.34014285714286,105.65345296365804L63.756499999999996,110.25332510333928L63.76271428571429,112.8630535832743L63.86421428571428,112.96414435496133L63.91392857142857,101.0130547161313L64.38,104.2151779974746L64.51257142857143,98.38418786398056L64.69485714285715,87.62443086706489L64.87507142857143,96.08900875967478L65.02421428571428,101.03626001947165L65.29764285714286,105.7833351278685L65.97085714285714,104.12088306651806L66.79321428571428,100.15596725090121L66.89057142857143,105.3000040941066L66.96928571428572,101.4194823002394L67.02728571428571,103.40335713399902L67.26342857142858,119.08798232022994L68.02571428571429,110.31286373740875L68.643,120.8609300395237L68.66371428571429,128.51129138114374L68.75485714285715,128.16652902548898L68.80871428571429,118.00469886810814L68.94957142857143,111.96356746882935L69.10492857142857,118.60616078375223L69.24164285714285,113.58005667367642L69.47571428571429,125.55357258700768L69.745,126.61715713252686L69.76778571428571,133.83056226040955L69.80921428571428,126.53767859935387L70.30014285714286,122.54285109042895L70.59221428571428,97.91204084555174L70.73307142857142,108.15511719544648L71.01271428571428,119.45508957004498L71.01685714285715,126.7489528502779L71.09557142857143,133.47678400550822L71.1432142857143,120.44791929805996L71.71492857142857,125.38413304220471L71.91792857142858,112.0981426366021L71.9345,105.50690391031006L72.29492857142857,117.26613729616263L72.36328571428571,113.0435348754342L72.51657142857142,107.80072305233573L73.02407142857142,110.30513078549282L73.18771428571429,114.99921807395683L73.30992857142857,116.97344576963145L74.182,121.27388687718923L74.2545,122.13621876114019L74.40778571428572,115.8870493897204L74.70814285714286,97.54442425142153L74.8925,111.12751846852157L75.19907142857143,103.72544202809884L75.545,106.08426215810786L76.22235714285715,114.32778175610231L76.22442857142858,114.0094230966047L76.28864285714285,114.75850865023983L76.937,113.88965266214403L76.96185714285714,112.93837174534752L76.97014285714286,107.39690165972682L76.97221428571429,98.83903514498058L77.21042857142858,114.71062371226301L77.68892857142858,123.36032573238303L77.89192857142856,134.24553184423024L77.92714285714287,129.8814554177513L77.96442857142857,115.64060347653175L78.35178571428571,121.80166968530465L78.54028571428572,121.48795528904228L78.648,113.78106348333138L79.62157142857143,109.45992503534183L79.6485,117.03242272915695L79.83907142857143,118.87572992711615L79.89914285714286,126.94291893364601L80.72357142857143,136.30997487538028L80.77742857142857,115.43270722607554L80.91414285714286,135.4647183393227L81.20207142857143,123.1904875263445L81.33049999999999,118.79169154712793L81.76135714285715,130.86432603527643L81.79450000000001,123.51700106181427L81.9477857142857,132.2002691999141L82.05135714285714,136.68024826298534L82.50292857142857,136.63495941311348L82.8675,128.64733489761886L82.92135714285715,133.0371852899202L83.04771428571428,128.61660988636464L83.21757142857143,124.70756007536839L83.3605,117.6363579668875L83.5345,116.73977080811711L83.80792857142858,129.16016921100805L83.8307142857143,129.55253272472495L84.12485714285714,129.7408180229982L84.31957142857144,125.87279227533661L84.34857142857143,136.65332486922776L85.76957142857142,122.53699688928462L85.84621428571428,120.62143651336712L86.37028571428571,110.663638303818L86.60228571428571,124.64322668123744L86.75142857142858,123.31755792583128L86.86742857142858,119.66827722083585L86.88607142857143,131.58243319804106L87.00828571428572,138.9281606202203L87.36042857142857,127.96197354345786L87.42878571428571,131.0953337563034L87.90107142857143,140.14515429812408L88.12271428571428,141.37144657419762L88.36092857142857,136.74184407659357L88.57842857142856,133.31778822263865L88.85185714285714,137.31778968525404L88.86842857142857,145.9076643774061L89.14185714285713,131.54593319828203L89.3862857142857,130.10712485592498L89.44221428571429,132.91334854611318L89.44635714285715,129.21367373694116L89.63278571428572,132.67054035641235L89.77778571428571,134.13894370224563L89.84821428571429,112.43162873800489L89.90621428571428,124.76594110776516L90.57942857142856,130.74828436642608L90.59807142857143,134.1072051604771L90.62292857142857,126.68308007400333L90.66228571428572,130.34767698256832L90.69749999999999,129.0115728478153L90.80935714285715,126.07876838647442L90.8342142857143,120.62736570081978L90.88600000000001,129.36826350237052L90.96264285714287,126.73148083256754L91.17807142857141,135.43153781632824L91.21742857142857,135.29364714785564L91.43492857142857,130.14774143952613L91.89271428571429,136.69875683938554L91.93621428571429,118.13882187935765L92.05014285714286,107.48437797983323L92.23035714285714,116.52965279396274L92.38364285714285,121.17835733876169L92.76478571428571,131.54763967346472L93.90407142857143,136.12024764945897L93.94757142857142,123.43586097993926L93.96414285714285,129.35898257199014L93.99521428571428,135.62063592813263L94.21478571428571,143.95169318998964L94.40121428571429,141.1426617619501L94.81135714285713,146.40404798490445L94.82585714285713,141.90071965397976L94.97292857142857,132.21985488618364L95.18835714285714,135.45065828254786L95.22357142857143,131.4485893175461L95.36235714285715,136.61083932273337L95.79528571428571,137.12086673311046L95.85535714285713,140.07472069898236L96.58864285714286,134.2483327538112L96.65078571428572,138.92066471678055L96.8745,138.06518962126196L96.98221428571429,138.94646275525025L97.04642857142856,139.79238374522168L97.1645,139.7832197000037L97.77557142857144,136.92188655035397L98.29964285714286,130.28890295046588L98.37007142857144,127.60488057465169L98.93971428571429,130.57126836973913L99.17171428571429,127.43756187557271L99.82628571428572,132.48377213835175L100.33792857142858,120.72587907687497L100.37107142857143,126.27773978934091L100.91999999999999,128.5985251424237L101.16857142857143,134.42706027969862L101.46064285714286,129.46262755003656L101.51035714285715,133.13051936233293L102.11314285714286,139.47750457845677L102.95414285714286,138.47612583273184L103.01214285714285,141.08399169226604L103.1177857142857,139.27907165237337L103.3187142857143,141.25566355594836L103.38292857142858,135.33956887051767L103.39328571428571,139.67965701654737L103.61285714285714,138.7784228529643L104.18457142857142,141.94894569353923L104.60714285714286,146.0957203382452L104.91164285714285,143.3680839423855L104.94478571428571,141.97526622719687L104.95307142857143,127.41980166975927L105.02142857142857,128.16565217024646L105.06285714285714,136.12917875516354L105.21407142857143,132.94035640915993L105.72571428571428,125.85304143961726L106.14828571428572,130.86214411419502L106.20421428571429,138.02016007201993L106.3492142857143,132.39623505650235L106.75935714285714,142.4001591371195L106.7925,144.23923806548294L107.74121428571428,144.3870175294092L107.99185714285714,137.1351767467664L108.21971428571429,140.99587893211086L108.64642857142857,136.40192087326392L108.68371428571429,130.84476367533568L109.11871428571429,141.4772146139564L109.74635714285714,131.75142230157186L110.36157142857144,140.44926821528355L110.8587142857143,140.3297419349659L110.93121428571429,134.55515544018996L111.04307142857142,132.16169030111146L111.10935714285715,139.36020180369084L111.2585,130.43067297608454L111.31442857142858,127.53961649698496L111.32271428571428,134.42737502552558L111.4532142857143,139.8191588721523L111.84264285714286,144.96682628006832L112.00835714285715,142.86019492950695L112.27142857142857,141.96979709152376L112.28592857142857,140.40535341710245L112.37707142857144,139.54670326914626L112.48685714285715,137.74361571275932L113.06892857142857,136.18762174012505L113.51842857142857,133.95042711155958L113.54742857142857,135.14133944704543L113.854,118.97796145237132L114.144,127.78847147121019L114.57071428571429,134.85008831676237L114.58935714285715,142.05747342024083L114.69914285714286,136.81515145250458L114.9787857142857,136.30034298865974L115.29157142857142,135.9956357191144L116.06835714285715,140.41775065919592L116.18642857142856,145.5832659140875L116.35007142857144,139.41863815003532L116.42464285714286,137.44456973084152L116.65871428571428,142.91285540903613L116.69185714285715,144.52452260401847L116.85549999999999,147.3622082997183L117.03364285714285,145.63543421400507L118.57064285714286,147.18636647685125L118.69492857142856,145.6862827926303L118.73635714285714,141.28483497238707L119.08435714285714,134.79616221072206L119.28321428571428,138.43023053973076L119.393,134.00684064330153L119.45721428571429,138.05071097434458L119.53178571428572,143.5553561398639L119.61257142857143,134.14493988847258L119.89842857142858,132.2817733380925L120.03307142857143,138.9799159105856L120.0807142857143,134.99077199317446L120.30028571428572,128.01073620170808L120.51778571428571,125.20783416499967L120.61307142857143,128.12691070280636L121.22414285714287,128.87214709307054L121.89114285714285,134.17353697410405L122.177,136.16502705290623L122.77771428571428,142.72690256679877L122.88957142857141,144.83149372087811L122.94135714285714,136.4774554563377L123.20235714285714,134.7626177465606L123.37014285714285,132.22836763038367L123.4965,123.8390685779301L124.29814285714286,127.53082633390711L124.40171428571428,132.37456670030764L124.59435714285715,134.56448551788813L124.62750000000001,131.9458644833657L124.68964285714284,135.04113779345113L124.84085714285715,133.40520586497956L125.58864285714286,135.672028998101L125.98221428571429,127.35519948377068L126.31364285714287,139.5049045092296L126.63471428571428,138.02755832710454L126.82735714285714,137.54635117871715L126.94128571428571,136.9837764487057L127.06557142857143,140.01946051828398L127.91071428571428,144.08294525094232L128.01014285714285,148.88198099740782L128.0267142857143,146.7722360265758L128.33328571428572,132.7793956422313L128.43064285714286,135.81297582528018L128.56735714285713,141.95388549650323L128.9195,141.54439674666293L129.03342857142857,145.75932787369152L129.1597857142857,145.05754624114707L129.485,137.92167420172456L129.52228571428572,142.76075998336333L129.8412857142857,145.61125737462595L130.08985714285714,138.6185799799412L130.3052857142857,146.97829464050426L130.37364285714284,137.73578494572018L130.69057142857145,143.51788711816098L130.72164285714285,141.5078396972221L131.46942857142858,145.57030942695548L131.96242857142857,143.16483174159453L131.97692857142857,146.7686077260633L131.98521428571428,147.51736259680942L131.9935,145.30175026390128L132.28557142857144,141.690042655467L132.37671428571429,140.82879198439858L132.72057142857145,141.4439745556192L132.75164285714285,139.80849080547947L132.79514285714285,130.26693604746615L132.8262142857143,141.80935803865881L133.07064285714287,145.5223881074716L133.91164285714285,146.47131136669293L134.00278571428572,141.09143047897166L134.24307142857143,133.89846603096413L134.51235714285716,136.2820194007211L134.60557142857144,142.31799333738803L135.04264285714285,140.28661326635392L135.2622142857143,141.35808718245335L135.2684285714286,140.6185997885929L135.32228571428573,143.65182187730866L135.38649999999998,139.63110580389576L135.75728571428573,143.17037736383008L135.76764285714285,142.98817904198324L135.78421428571428,147.57225073618187L136.1197857142857,144.90299499775466L136.22957142857143,150.1627375329266L136.64385714285714,147.3089153395929L136.9027857142857,142.15153105418906L137.344,139.58761655108745L137.41235714285716,144.04544091314045L137.7645,139.35752360079667L137.7935,135.35959779453663L137.9737142857143,135.0654451245013L138.34449999999998,136.28248250050999L138.41285714285715,144.37289972839946L138.78364285714287,146.28845781329193L139.40507142857143,143.30314755981914L139.4175,144.7994139465436L139.7882857142857,151.8165757898139L140.35999999999999,145.84855149449788L141.46821428571428,144.136931226225L141.76857142857145,145.81809582247612L142.00885714285715,140.22632093787755L142.18492857142857,138.03428575730663L142.3465,143.53090212346916L142.40242857142857,141.70833196005307L142.43764285714286,145.07957563655228L142.9907142857143,138.69527178917318L143.47542857142858,143.02387731421385L143.57278571428571,142.45237899511093L143.82342857142856,145.54054413252493L144.25428571428571,140.41769356338236L144.3164285714286,141.34951481108695L144.45521428571428,139.40034448833165L145.17814285714286,142.3231231991305L145.37078571428572,142.760372731518L145.3832142857143,148.5539912065454L145.4287857142857,146.08344773137097L145.6152142857143,148.08056583215907L145.98392857142858,148.61012236799866L147.32414285714287,154.07541839595277L147.4960714285714,147.73861189076686L147.64314285714286,145.59993122054766L147.9787142857143,145.29440274655997L148.17757142857144,145.76606854689226L148.48,146.8741547796653L149.43078571428572,151.41384443443178L149.59650000000002,146.50784237067595L150.21171428571427,149.6143693539343L150.27592857142855,142.57736316598505L150.2925,141.60223119622697L150.95328571428573,135.39389644364255L151.26399999999998,142.5227325656001L151.67000000000002,142.39712317176566L151.95585714285713,146.2709988954936L152.10085714285717,143.2833811563218L152.10292857142855,140.65831998916255L152.27692857142858,139.91112242499065L152.6042142857143,141.9730456731264L153.00607142857143,146.83241139619813L153.26085714285716,146.58946908376177L153.4887142857143,145.91723414775663L153.7517857142857,142.46956004609825L154.3442142857143,145.18624399846888L154.36492857142858,142.99107423670748L154.70878571428574,145.5506366208056L155.12721428571427,148.51310981004593L155.35714285714286,149.63729180905713L155.469,150.6361672998279L155.86464285714285,136.55128956561148L155.962,136.30441648597434L156.13392857142856,141.65811276536138L156.2892857142857,144.66463792384235L156.3535,138.67360352711222L156.60207142857143,145.13483025572503L156.68907142857142,150.8170666015653L156.82578571428573,152.6646933227683L157.23592857142856,152.87277573366393L157.53007142857143,155.25501575878917L158.04585714285716,157.52114298430078L158.76878571428574,149.99222640089386L159.05878571428573,150.36419277126905L159.39228571428572,152.45729837061157L159.4502857142857,147.9919433429312L159.5435,136.5709655822002L160.4114285714286,145.16725459142623L160.48185714285714,147.86571468379555L160.56264285714286,149.7010568149872L162.11621428571428,152.53839952357535L162.1535,138.5303850567813L162.3544285714286,133.48011767843218L162.46007142857144,132.01183879362853L162.63199999999998,137.54393920096146L162.79357142857143,140.86065102890564L163.49578571428572,146.09686132237573L163.61800000000002,148.98828236241295L163.99707142857145,145.30358393179867L164.02607142857144,149.04455985538658L164.58535714285713,150.65479836809135L164.62885714285713,153.01700714795288L165.01414285714284,151.40720284522672L165.13221428571427,151.18038448020476L165.29585714285716,152.03978651558157L165.5382142857143,142.93618014133847L166.663,144.19068555837995L166.67128571428572,143.85124114040212L166.7355,145.2530885788819L166.9157142857143,148.36217515387258L167.07314285714284,150.96759627293423L167.60964285714286,145.29847352125768L167.77742857142857,146.88327792735015L168.43614285714287,144.0368301517831L168.6722857142857,146.95462572060427L168.93328571428572,143.38677433023292L168.98714285714286,139.70341347191396L169.22742857142856,139.76233629306356L169.54642857142858,139.60794666560608L169.6624285714286,138.51200812947025L169.76807142857143,133.41972679629683L169.81364285714287,137.53577773611602L169.882,138.67343283995504L169.93378571428573,149.71486521544762L170.26521428571428,146.23843246767544L170.4267857142857,147.7564814770398L170.47235714285713,149.76059560880128L170.4765,146.0067176157538L170.6877857142857,147.49729484722835L170.69400000000002,139.87228263063724L171.013,139.03095626419878L171.35478571428573,142.46981967043538L171.66549999999998,149.23214335770405L171.9472142857143,147.36053766924735L172.29935714285716,149.5979438590125L172.5872857142857,139.73998002809975L173.56292857142859,145.17573843361552L173.5732857142857,150.97495206571588L173.67064285714287,149.77425598528168L173.79492857142858,150.58249434288055L173.84257142857143,147.61521926197832L174.02278571428573,148.20382651492014L174.38735714285716,149.41985373181535L174.40185714285715,153.8453420906212L175.7917857142857,156.52908265445308L175.86635714285714,147.37729162287914L176.36142857142855,152.72068648127043L176.42564285714286,149.13443394057347L177.04292857142858,141.62709497343934L177.08021428571428,146.25525729019304L177.24592857142855,148.4796593993437L177.37435714285715,148.52939940350444L177.51521428571428,148.9495285800528L177.99371428571428,148.63666646787115L178.25885714285715,145.02635556722834L178.34792857142855,144.9462647573063L178.59442857142858,145.54411075925285L179.03564285714285,142.65253237733515L179.14128571428571,140.4407290370222L179.43957142857144,139.0204035928422L179.53692857142858,133.83957175953626L179.6032142857143,141.57141732698744L179.7792857142857,144.87165887073317L180.01957142857145,144.3919465715625L180.03407142857145,146.61236116339396L180.05685714285713,148.9504724724072L180.62442857142858,146.9672627677308L180.88542857142858,147.2858705419175L181.16714285714284,153.08206971672408L181.31214285714287,152.42282311233222L181.54621428571429,149.9835600303352L181.87557142857142,148.86867337902828L182.08064285714286,143.84680929271644L182.56535714285715,142.84867473337013L182.71657142857143,145.21598664061005L182.83464285714285,147.8592854607251L183.89107142857142,145.4591569265612L184.03192857142858,144.91013467476097L184.19142857142856,146.62441534299847L184.22042857142856,148.22306708395L184.30121428571428,140.88352866907627L184.3675,144.50784964525528L184.99721428571428,146.95370908874568L185.223,144.98882194537896L185.5937857142857,145.79553276804472L185.64142857142858,150.63826339149904L186.03914285714285,154.64047575416822L186.09092857142858,147.9503497387329L186.37678571428572,148.68661852510925L186.42442857142856,154.98548715809278L186.4927857142857,149.7775539567031L186.50107142857144,146.7947668558334L186.63571428571427,148.25261647260035L186.77035714285714,151.77179947747297L187.15564285714285,154.39294568252666L187.23642857142858,152.1839803192145L187.26957142857142,146.7480499029036L187.56785714285715,146.50879634697492L187.62171428571426,147.6906669375057L187.69835714285713,151.8407680970483L188.1395714285714,146.83077351939997L188.2245,144.621791088734L188.38814285714284,144.0775487129811L188.49171428571427,147.11584609974963L188.53107142857144,145.58582353331371L188.74235714285714,140.15458086175354L189.28921428571428,142.79179249033908L189.52328571428572,138.96340229804662L189.5957857142857,146.8370185456396L190.472,151.54485920439487L190.73714285714286,148.67350349845682L192.096,146.2408822418582L192.16642857142855,148.8012453739642L192.2927857142857,149.4057954882462L192.33007142857144,144.90862738698002L192.4854285714286,150.9099005596396L192.7982142857143,154.35295569915908L192.90592857142857,149.0065050046802L193.19592857142857,146.42715332832896L193.6992857142857,150.39098172541637L194.22128571428573,144.9713260322184L194.5547857142857,143.71599301433787L194.65421428571426,145.61290015023684L195.0560714285714,153.32617457653126L195.12235714285714,143.8558117545349L195.13892857142858,144.95275928954496L195.53042857142856,143.69266652095445L195.5615,148.92483389593042L195.69821428571427,151.7236968291812L195.9592142857143,145.7603066054789L196.13528571428571,147.3620895120188L196.24714285714285,150.82836047645517L196.40871428571427,142.9919532925056L196.82714285714286,145.26809523841737L196.8934285714286,143.2505782107969L196.97007142857143,143.37365877988694L197.13578571428573,147.68422486203568L197.44857142857143,147.22298899780307L197.83800000000002,147.57830633813495L197.9022142857143,152.93701917784028L197.97057142857142,150.18716356072792L198.2067142857143,152.40524700232726L198.33721428571428,149.12873360483874L198.82607142857142,144.1388656912388L198.88614285714286,148.4853736927991L199.7934285714286,147.83271210020095L200.187,148.5144439178227L200.2015,147.71893306002133L200.47285714285715,140.71780467485453L200.4997857142857,140.10414923303364L200.59507142857143,143.94927844846075L200.6489285714286,144.71283381845848L200.94514285714286,139.96839242974696L201.74264285714287,140.97193003773555L201.8607142857143,144.76302185702244L202.08028571428574,147.41770046779268L202.21492857142857,137.12821230388928L202.30814285714285,139.35199707208426L202.64578571428572,145.52058581585695L203.19264285714286,146.10469048067932L203.28378571428573,142.6638691952527L203.7747142857143,137.47274373356703L203.91350000000003,141.18779876858514L204.39614285714285,142.58086913643592L204.58671428571427,144.2706746925015L204.68821428571428,136.62621816808573L204.90985714285713,136.89046787111715L205.40078571428572,142.76295187605672L205.61414285714287,145.67655253330818L205.7902142857143,147.88631625127763L205.82335714285713,148.2627053130784L206.61464285714285,152.48370787317265L206.64985714285714,151.86588759113178L206.8797857142857,147.76443095339633L206.91914285714287,146.97667560180005L207.0869285714286,151.56731795390434L207.21535714285713,151.0690471437771L207.63378571428572,142.55769892377847L207.80364285714288,144.0860192845853L208.07500000000002,147.4563206794217L209.04857142857142,147.63509380593032L209.36757142857144,145.07301687264916L209.409,148.99328074692374L209.83571428571426,146.78567965331885L210.19614285714286,148.16336884202488L210.50685714285714,153.39097566268003L210.54828571428573,143.8400010915269L210.5545,139.72631742864863L210.6829285714286,143.35582777446515L210.73057142857144,146.39219324938063L210.7367857142857,147.35080972404245L211.30435714285713,146.58750533515789L211.48042857142858,150.28682222041235L211.53428571428572,153.62018990957387L211.7952857142857,151.06252594258575L211.9257857142857,151.12269469578777L212.7957857142857,151.74347348499126L212.91799999999998,147.96717972450153L212.92214285714286,148.12710206643362L212.98635714285714,144.99887727659313L213.13342857142857,144.3848339734159L213.61814285714286,146.49664785967363L213.81907142857142,151.29050777657483L214.33278571428573,151.64758394342851L215.2235,150.75001438964722L215.55492857142855,150.1832009425321L216.21571428571428,147.73223396960253L216.30685714285713,150.84085806701594L216.53885714285715,147.36583404835469L217.0525714285714,149.0659659530505L217.2742142857143,151.30928733899896L217.56214285714287,150.91219379278843L217.61807142857143,150.14471807741813L217.88114285714286,150.67133491832232L218.16492857142856,153.90392193952133L218.28092857142857,149.11475912983573L218.34721428571427,148.69984797788874L218.49428571428572,145.70916857016016L218.57092857142857,152.573288339527L219.28142857142856,155.76106069375172L219.46578571428572,155.8750297341094L219.51342857142856,147.55970009843583L219.63771428571428,149.42255178697948L220.19492857142856,152.07778785789833L220.36064285714284,153.7667096346507L220.53464285714284,148.85477875212172L220.6175,145.6774515621225L220.67964285714288,145.2986843851622L220.81428571428572,141.51702081366872L220.88057142857141,144.91219357175328L221.68014285714287,146.7874106537662L221.96599999999998,145.70055527516377L222.11100000000002,148.97659743047657L222.256,145.6043218069289L222.50457142857144,151.54624892630264L222.59571428571428,147.1219367426122L222.8774285714286,142.59358579167633L222.9955,145.20971690564699L223.17985714285714,144.62798113991425L223.29171428571428,142.79421162229542L223.45742857142858,146.05297288669206L223.68528571428573,142.62133677029445L223.706,143.79043445919257L224.0022142857143,139.79612276912312L224.15342857142858,143.2319091754789L224.55114285714285,147.39317302292395L224.69614285714286,150.15834733875081L224.79764285714288,148.08036213535956L224.83492857142858,147.1925484106077L224.9675,149.28185483009418L225.27614285714284,141.9625493140467L225.765,146.83276947248666L225.89964285714285,146.596039731753L226.345,150.35229836272327L226.83385714285714,155.15077748914834L226.87735714285714,155.28236724746392L227.05342857142858,154.93944916215835L227.05757142857144,154.63398653519528L227.61685714285716,152.92641597341924L228.44542857142858,148.31496926954247L228.52621428571427,148.27049694544587L228.87007142857144,150.32250316591964L229.02957142857142,148.76882693560069L229.0772142857143,150.11757349207684L229.41278571428572,147.13911262691826L229.63442857142857,149.63892272039737L229.70071428571427,147.59391694222583L229.75664285714288,149.94303806397136L229.7752857142857,146.24133448465358L229.92235714285715,150.91880300440604L230.0777142857143,150.71590671617716L230.24964285714285,146.65273928848262L230.41328571428573,145.4399003677012L230.6225,149.41251086150257L230.66392857142856,147.80174734764088L230.82135714285715,147.8284589443969L230.93942857142858,150.6717019316177L230.9622142857143,153.06173225859524L231.35992857142858,148.8222791231854L231.8405,152.1283881988436L231.88192857142857,150.45678747850516L232.62142857142857,147.98378930781993L232.63592857142856,145.85610145506092L232.98392857142858,150.75905166969793L233.05435714285713,143.26499780161836L233.12064285714285,148.07765649245377L233.23250000000002,145.77410159798183L233.41892857142858,143.49416881178846L233.82285714285715,146.2065685195229L233.88707142857143,144.52507127140967L234.00099999999998,145.17135886042323L234.07350000000002,142.4890749753853L234.0942142857143,141.5276190142636L234.49814285714285,144.48112044140524L234.72807142857144,147.22059033754363L235.02842857142858,145.42373657093182L235.14235714285715,141.72868194500052L235.5815,146.76514104795126L236.03307142857142,145.87756748870015L236.71457142857145,151.9803026907146L236.83471428571428,153.6388087665538L237.60114285714283,151.08279840919377L237.81657142857142,152.3731611615797L237.84557142857142,148.08361670452635L237.8849285714286,146.7439589405752L237.96985714285714,143.5904844545144L237.99885714285713,142.82683950719147L238.02992857142857,147.11087341739878L238.05685714285715,156.67649765591312L238.13764285714285,153.59342557458373L238.22050000000002,143.9020064250725L238.23914285714287,143.4375517671961L238.3572142857143,146.54196394516973L238.40692857142858,148.62684629579752L238.75907142857145,149.6470631334406L238.76321428571427,149.98133847553862L239.1132857142857,145.60625592930714L239.47785714285712,151.29039210516373L239.66842857142856,153.7636450118114L239.81757142857143,148.81322031734123L239.84657142857142,149.33013464719696L240.24635714285714,153.04412362800426L240.72071428571428,154.05756240184934L240.8387857142857,150.9243299311151L241.09357142857144,151.2109547145615L241.45814285714286,138.48862455412447L241.66528571428572,140.48976220761557L241.87864285714286,146.872744612345L242.5705,150.91352980878884L243.93971428571427,147.90239742724262L244.02257142857144,147.93067631321048L244.09092857142858,151.96078766105708L244.4720714285714,150.53227185836317L245.35864285714285,153.17382870295177L245.64242857142855,150.048843754402L246.20999999999998,148.17253989362985L246.703,153.4193179193195L247.0012857142857,154.28785552082795L247.00335714285714,156.71477158962688L247.12349999999998,152.64783460358186L247.5295,151.96226769164844L247.53778571428572,151.33466615761702L247.70142857142855,152.168272486242L248.2027142857143,152.6368002837374L248.70192857142857,149.16158392899078L248.96707142857142,138.4320566984386L249.03542857142858,143.40780677392308L249.2052857142857,149.33992488778168L249.43728571428574,147.53760652301628L249.56157142857145,151.01727843617152L249.78528571428572,152.98821781675866L249.85985714285715,155.4355134085865L249.89921428571427,155.39550955589917L250.09807142857142,154.12794565854253L250.1685,151.45937486309478L250.18921428571429,149.84831770947775L250.5517142857143,145.82040225282032L251.04471428571426,148.56244030881754L251.12964285714287,149.51447276645203L251.31192857142858,150.12610820356986L251.77178571428573,143.81049210681903L251.84635714285716,146.14425213448834L252.0887142857143,139.20641773132064L252.48021428571428,142.96374061020757L252.53821428571428,146.16695174959827L253.41442857142857,151.86895839405574L253.68785714285713,150.1031853916199L254.0897142857143,149.16483349970684L254.17049999999998,150.4527018350663L254.58271428571427,144.5459764172019L255.45271428571428,139.25943855659455L255.7447857142857,147.87455853750083L256.0057857142857,152.75565477766457L256.3206428571429,151.0011131558291L256.8157142857143,149.76867676139702L257.462,149.69852239505943L257.4744285714286,144.32269494503635L257.8079285714286,145.2277900264853L257.8245,144.7329945099072L258.31335714285717,146.78541019350587L258.55571428571426,147.28084551567017L259.1274285714286,151.06324087346104L259.2372142857143,145.97161583958768L259.9767142857143,149.79752701635385L260.0015714285714,150.25191199450825L260.5028571428571,148.8300523499795L260.5132142857143,146.77924881816793L260.5277142857143,141.1947139567587L260.7472857142857,143.17452769675572L261.08078571428575,147.36356666802595L261.26721428571426,145.23496859343388L261.6525,142.12966674807592L261.80164285714284,144.0879052772696L261.9383571428571,143.32786649234544L262.2925714285714,146.09039004902513L262.3940714285714,149.13506329214854L262.4727857142857,150.43351744109162L262.54321428571427,145.20156946873925L262.62192857142855,148.53973681388058L262.7027142857143,154.79977746004516L262.8332142857143,157.46311261173875L262.943,150.7413850103823L263.02378571428574,146.7678060298169L263.10457142857143,151.45595506221085L263.13357142857143,150.88182317847028L263.1687857142857,148.86475291828722L263.3925,151.32394209095088L263.43392857142857,149.27074046088205L263.50435714285715,147.4697020559685L263.6245,149.98556983326932L264.38678571428574,149.7460609427396L264.49242857142855,147.7204262505752L264.78035714285716,146.07747413858468L264.9709285714286,143.17810234712377L265.02064285714283,138.9986623999684L265.4763571428571,142.6530248767461L265.53642857142853,146.53255807834816L266.49135714285717,147.1582968521791L267.0237142857143,146.9592445227709L267.08378571428574,149.4343824108366L267.21014285714284,148.00896255095344L267.8398571428571,148.5518980339341L268.1402142857143,150.46594405463372L268.1878571428571,151.5589277841113L268.3515,151.14864297494066L269.2422142857143,154.26747432421507L269.27328571428575,154.13857568345983L269.28364285714287,155.38318943804015" style="fill: none;" fill="none"></path></g></g></g></g><g opacity="0.2"><g><g><g><path stroke="rgb(255, 112, 67)" stroke-width="2px" d="M20.801285714285715,42.78943852583567L21.060214285714284,80.77390229701994L21.18864285714286,-484.59019009272265L21.696142857142856,192.02487906813622L21.824571428571428,60.371683398882546L21.913642857142854,-135.1119389533997L21.92814285714286,168.78798937797546L22.02757142857143,162.1131837964058L22.0545,-62.00077795982362L22.193285714285715,-1730.534252166748L22.388,104.71579428513844L22.814714285714285,81.3608234723409L23.475499999999997,108.851531902949L23.483785714285712,170.66091136137644L23.583214285714288,112.81416710217795L23.597714285714286,146.14257788658142L23.688857142857145,-92.98133993148805L24.21707142857143,7.348925034205108L24.30614285714286,60.261494278907776L24.312357142857145,105.08717850844064L24.602357142857144,-9.22131482760111L24.685214285714284,-391.7833803494772L24.931714285714285,9.812425533930444L25.269357142857142,-25.22450272242229L27.56035714285714,-177.377062479655L28.208714285714287,14.72803250948587L28.212857142857143,-85.98728481928511L28.31642857142857,-84.0236209233602L28.4635,50.19882456461588L28.61471428571429,-169.71915308634442L30.019142857142857,-61.024760246276884L30.054357142857143,7.367094516754137L30.40028571428571,-122.98255507151288L31.349,-30.94526394208274L31.78607142857143,77.4346561829249L31.815071428571425,35.85032558441162L32.56907142857143,44.84139438470204L32.74514285714286,62.83723529179891L32.86114285714286,52.14091952641804L32.95021428571428,5.529960552851342L33.122142857142855,43.314325571060174L33.55714285714286,-20.717462937037144L33.5965,46.05632321039835L33.7415,-49.953426361083984L34.61564285714286,-28.548556804656997L34.911857142857144,1.9742045402526855L35.143857142857144,-22.77033313115441L35.535357142857144,130.26497042179108L36.00557142857143,36.299850304921456L36.167142857142856,58.35246777534485L36.17335714285714,-30.568675041198745L36.27278571428572,31.737762848536168L36.867285714285714,0.435636202494299L36.93978571428571,40.335011045138046L37.26707142857143,89.76579165458679L37.422428571428576,30.7884718577067L37.65857142857143,2.391844749450677L37.7435,-7.731651703516638L38.06664285714286,-12.479325771331787L38.31728571428572,75.5574673016866L38.338,53.805279294649765L38.53064285714286,92.49284342924751L39.10442857142858,-39.36357204119364L39.222500000000004,48.612042625745126L39.342642857142856,68.5595086812973L39.895714285714284,60.471310774485275L40.32657142857143,72.66340867678323L40.50471428571429,39.04470817248026L40.531642857142856,41.728985468546554L40.803,58.1908179918925L41.10335714285715,24.73086015383402L41.23592857142857,68.39007532596588L42.00028571428571,84.17649543285368L42.014785714285715,66.64493755499521L42.25507142857143,76.6820293267568L42.420785714285714,53.97885060310364L42.50985714285714,61.54158707459768L42.685928571428576,58.86691029866536L43.044285714285714,46.59826612472534L43.297,86.96185366312662L43.30321428571429,81.71605443954466L43.42957142857143,47.707706451416016L43.44614285714285,105.44963037967682L43.54142857142857,92.17576837539671L43.711285714285715,58.85340627034505L44.36792857142857,72.41658504803975L44.477714285714285,13.111605008443181L44.602,46.154520471890756L44.672428571428576,19.438359498977654L44.91892857142857,58.780294617017105L45.07221428571429,87.78224682807922L45.507214285714284,85.38723941644032L45.51757142857143,154.0022974809011L45.911142857142856,53.72861580053964L46.17214285714286,78.59216944376628L46.961357142857146,65.32122627894083L47.38807142857143,72.66308045387268L47.5165,74.87851476669312L47.71328571428572,78.11442927519481L47.769214285714284,112.05862140655518L48.47557142857143,64.9626427491506L48.773857142857146,73.75483191013336L48.8795,53.59068012237548L48.927142857142854,123.51600404580435L49.32071428571428,38.80808289845785L49.879999999999995,60.0408464272817L50.17207142857143,132.67041063308716L50.32328571428571,76.43206413586934L50.414428571428566,63.64003336429596L50.640214285714286,118.80670861403145L51.03585714285714,79.31397851308186L51.098,80.60602800051369L51.13735714285714,103.7889162302017L51.32792857142857,97.0454241434733L51.39007142857143,104.15024276574451L51.522642857142856,53.658505042394005L51.562000000000005,90.73120073477425L52.7655,51.08033752441406L52.835928571428575,83.4273031949997L53.31857142857143,75.0722014506658L53.36828571428571,79.25678567091622L54.09742857142857,119.31830263137817L54.372928571428574,108.85521268844604L54.52207142857142,67.52710696061452L55.53292857142857,108.34404067198433L55.63235714285714,51.4220410188039L56.065285714285714,70.86345767974854L56.1295,123.5442781051L56.58521428571429,71.54224610328674L56.630785714285715,101.50806005795796L57.053357142857145,71.93863387902579L57.08235714285714,85.98168627421059L57.14242857142857,81.14228562513985L58.93421428571429,131.59061586856842L60.31171428571429,107.5412543217341L60.4215,127.04551394780478L61.17135714285714,109.23045353094734L61.39714285714286,84.3274076382319L61.42614285714286,98.33324189980824L61.58564285714286,88.28937466939288L61.82385714285714,60.5029725631078L62.1325,91.19730071226753L62.25264285714286,111.61152319113413L62.27128571428572,131.84815363089243L62.42871428571428,131.4004224141439L62.64828571428571,94.67297033468881L62.664857142857144,77.60084247589111L62.811928571428574,116.98235189914702L63.05428571428571,128.13781634966531L63.25935714285715,103.08378791809082L63.26142857142857,100.01078919569649L63.34014285714286,105.420219262441L63.756499999999996,117.15313331286112L63.76271428571429,116.77764630317688L63.86421428571428,113.11578051249185L63.91392857142857,83.08642025788623L64.38,109.01836291948953L64.51257142857143,89.63770266373952L64.69485714285715,71.48479537169139L64.87507142857143,108.78587559858956L65.02421428571428,108.45713690916695L65.29764285714286,112.90394779046377L65.97085714285714,101.62720497449237L66.79321428571428,94.20859352747597L66.89057142857143,113.01605935891467L66.96928571428572,95.59869960943857L67.02728571428571,106.37916938463846L67.26342857142858,142.61492009957632L68.02571428571429,97.15018586317697L68.643,136.68302949269614L68.66371428571429,139.98683339357376L68.75485714285715,127.64938549200693L68.80871428571429,102.76195363203684L68.94957142857143,102.90187036991118L69.10492857142857,128.57005075613657L69.24164285714285,106.04090050856271L69.47571428571429,143.51384645700455L69.745,128.21253395080566L69.76778571428571,144.65066995223364L69.80921428571428,115.59835310777028L70.30014285714286,116.55060982704163L70.59221428571428,60.96582547823587L70.73307142857142,123.51973172028859L71.01271428571428,136.40504813194275L71.01685714285715,137.68974777062735L71.09557142857143,143.56853073835373L71.1432142857143,100.9046222368876L71.71492857142857,132.78845365842182L71.91792857142858,92.16915702819824L71.9345,95.62004582087198L72.29492857142857,134.9049873749415L72.36328571428571,106.70963124434151L72.51657142857142,99.93650531768799L73.02407142857142,114.06174238522847L73.18771428571429,122.04034900665282L73.30992857142857,119.9347873131434L74.182,127.7245485385259L74.2545,123.42971658706665L74.40778571428572,106.51329533259072L74.70814285714286,70.03048654397328L74.8925,131.50215979417166L75.19907142857143,92.62232736746469L75.545,109.62249235312142L76.22235714285715,126.69306115309395L76.22442857142858,113.5318851073583L76.28864285714285,115.88213698069252L76.937,112.58636868000029L76.96185714285714,111.5114503701528L76.97014285714286,99.08469653129578L76.97221428571429,86.00223537286121L77.21042857142858,138.51800656318665L77.68892857142858,136.33487876256308L77.89192857142856,150.57334101200104L77.92714285714287,123.33534077803293L77.96442857142857,94.27932556470233L78.35178571428571,131.04326899846393L78.54028571428572,121.01738369464874L78.648,102.22072577476501L79.62157142857143,102.97821736335754L79.6485,128.39116926987967L79.83907142857143,121.64069072405496L79.89914285714286,139.04370244344076L80.72357142857143,150.36055878798166L80.77742857142857,84.11680575211842L80.91414285714286,165.51273500919342L81.20207142857143,104.77914130687712L81.33049999999999,112.19349757830301L81.76135714285715,148.9732777674993L81.79450000000001,112.49601360162099L81.9477857142857,145.2251714070638L82.05135714285714,143.40021685759226L82.50292857142857,136.56702613830566L82.8675,116.66589812437691L82.92135714285715,139.6219608783722L83.04771428571428,121.98574678103127L83.21757142857143,118.843985358874L83.3605,107.02955480416614L83.5345,115.39489006996153L83.80792857142858,147.79076681534448L83.8307142857143,130.1410779953003L84.12485714285714,130.0232459704081L84.31957142857144,120.07075365384418L84.34857142857143,152.82412376006445L85.76957142857142,101.36250491937L85.84621428571428,117.74809594949087L86.37028571428571,95.72694098949432L86.60228571428571,145.61260924736658L86.75142857142858,121.32905479272205L86.86742857142858,114.19435616334279L86.88607142857143,149.45366716384888L87.00828571428572,149.94675175348917L87.36042857142857,111.5126929283142L87.42878571428571,135.7953740755717L87.90107142857143,153.7198851108551L88.12271428571428,143.21088498830795L88.36092857142857,129.79744033018747L88.57842857142856,128.18170444170633L88.85185714285714,143.3177918791771L88.86842857142857,158.79247641563416L89.14185714285713,110.00333642959595L89.3862857142857,127.94891234238943L89.44221428571429,137.12268408139548L89.44635714285715,123.66416152318318L89.63278571428572,137.85584028561908L89.77778571428571,136.34154872099558L89.84821428571429,79.87065629164377L89.90621428571428,143.26740966240564L90.57942857142856,139.72179925441742L90.59807142857143,139.1455863515536L90.62292857142857,115.5468924442927L90.66228571428572,135.84457234541574L90.69749999999999,127.00741664568582L90.80935714285715,121.6795616944631L90.8342142857143,112.45026167233783L90.88600000000001,142.47961020469666L90.96264285714287,122.77630682786304L91.17807142857141,148.4816232919693L91.21742857142857,135.0868111451467L91.43492857142857,122.42888287703195L91.89271428571429,146.52527993917465L91.93621428571429,90.29891943931578L92.05014285714286,91.50271213054657L92.23035714285714,130.09756501515704L92.38364285714285,128.15141415596008L92.76478571428571,147.1015631755193L93.90407142857143,142.97915961345038L93.94757142857142,104.4092809756597L93.96414285714285,138.24366496006647L93.99521428571428,145.0131159623464L94.21478571428571,156.44827908277512L94.40121428571429,136.92911461989084L94.81135714285713,154.29612731933594L94.82585714285713,135.14572715759277L94.97292857142857,117.69855773448944L95.18835714285714,140.29686337709427L95.22357142857143,125.44548587004343L95.36235714285715,144.35421433051428L95.79528571428571,137.88590784867603L95.85535714285713,144.50550164779028L96.58864285714286,125.50875083605447L96.65078571428572,145.92916266123453L96.8745,136.7819769779841L96.98221428571429,140.2683724562327L97.04642857142856,141.06126523017883L97.1645,139.76947363217673L97.77557142857144,132.6298868258794L98.29964285714286,120.33942755063374L98.37007142857144,123.57884701093036L98.93971428571429,135.0208500623703L99.17171428571429,122.73700213432312L99.82628571428572,140.0530875325203L100.33792857142858,103.08903948465982L100.37107142857143,134.60553085803986L100.91999999999999,132.0797031720479L101.16857142857143,143.16986298561096L101.46064285714286,122.0159784555435L101.51035714285715,138.6323570807775L102.11314285714286,148.99798240264255L102.95414285714286,136.97405771414438L103.01214285714285,144.99579048156738L103.1177857142857,136.57169159253436L103.3187142857143,144.22055141131082L103.38292857142858,126.46542684237161L103.39328571428571,146.1897892355919L103.61285714285714,137.42657160758972L104.18457142857142,146.70472995440164L104.60714285714286,152.3158823053042L104.91164285714285,139.27662934859595L104.94478571428571,139.88603965441385L104.95307142857143,105.5866048336029L105.02142857142857,129.28442792097727L105.06285714285714,148.07446863253912L105.21407142857143,128.1571228901545L105.72571428571428,115.22206898530322L106.14828571428572,138.37579812606174L106.20421428571429,148.75718400875726L106.3492142857143,123.960347533226L106.75935714285714,157.4060452580452L106.7925,146.99785645802814L107.74121428571428,144.60868672529855L107.99185714285714,126.25741557280222L108.21971428571429,146.7869322101275L108.64642857142857,129.51098378499347L108.68371428571429,122.50902787844338L109.11871428571429,157.42589102188745L109.74635714285714,117.16273383299509L110.36157142857144,153.49603708585101L110.8587142857143,140.1504525144895L110.93121428571429,125.89327569802602L111.04307142857142,128.57149259249368L111.10935714285715,150.15796905755997L111.2585,117.03637973467508L111.31442857142858,123.20303177833557L111.32271428571428,144.7590128183365L111.4532142857143,147.90683464209238L111.84264285714286,152.68832739194232L112.00835714285715,139.7002479036649L112.27142857142857,140.63420033454895L112.28592857142857,138.05868790547052L112.37707142857144,138.25872804721197L112.48685714285715,135.0389843781789L113.06892857142857,133.8536307811737L113.51842857142857,130.59463516871133L113.54742857142857,136.92770795027414L113.854,94.7328944603602L114.144,141.00423649946848L114.57071428571429,145.44251358509064L114.58935714285715,152.86855107545853L114.69914285714286,128.95166850090027L114.9787857142857,135.52813029289246L115.29157142857142,135.53857481479645L116.06835714285715,147.05092306931812L116.18642857142856,153.33153879642487L116.35007142857144,130.17169650395712L116.42464285714286,134.48346710205078L116.65871428571428,151.11528392632803L116.69185714285715,146.942023396492L116.85549999999999,151.61873684326807L117.03364285714285,143.04527308543524L118.57064285714286,149.51276487112045L118.69492857142856,143.43615726629892L118.73635714285714,134.6826632420222L119.08435714285714,125.06315306822458L119.28321428571428,143.8813330332438L119.393,127.37175579865773L119.45721428571429,144.11651647090912L119.53178571428572,151.8123238881429L119.61257142857143,120.02931551138559L119.89842857142858,129.48702351252237L120.03307142857143,149.02712976932526L120.0807142857143,129.0070561170578L120.30028571428572,117.54068251450857L120.51778571428571,121.00348110993701L120.61307142857143,132.5055255095164L121.22414285714287,129.9900016784668L121.89114285714285,142.1256217956543L122.177,139.15226217110953L122.77771428571428,152.56971583763757L122.88957142857141,147.98838045199713L122.94135714285714,123.94639805952707L123.20235714285714,132.19036118189493L123.37014285714285,128.42699245611826L123.4965,111.25511999924977L124.29814285714286,133.06846296787262L124.40171428571428,139.64017724990845L124.59435714285715,137.84936374425888L124.62750000000001,128.01793293158212L124.68964285714284,139.68404775857925L124.84085714285715,130.95130797227225L125.58864285714286,139.07226369778314L125.98221428571429,114.87995521227518L126.31364285714287,157.72946204741797L126.63471428571428,135.81153905391693L126.82735714285714,136.82454045613608L126.94128571428571,136.13991435368857L127.06557142857143,144.5729866226514L127.91071428571428,150.1781723499298L128.01014285714285,156.0805346171061L128.0267142857143,143.60761857032776L128.33328571428572,111.79013506571451L128.43064285714286,140.36334609985352L128.56735714285713,151.16525000333786L128.9195,140.93016362190247L129.03342857142857,152.0817245642344L129.1597857142857,144.00487379233041L129.485,127.21786614259082L129.52228571428572,150.01938865582147L129.8412857142857,149.88700346151987L130.08985714285714,128.129563887914L130.3052857142857,159.51786663134894L130.37364285714284,123.8720204035441L130.69057142857145,152.19104037682214L130.72164285714285,138.4927685658137L131.46942857142858,151.66401402155557L131.96242857142857,139.5566152135531L131.97692857142857,152.17427170276642L131.98521428571428,148.64049490292865L131.9935,141.9783317645391L132.28557142857144,136.27248124281564L132.37671428571429,139.53691597779593L132.72057142857145,142.36674841245016L132.75164285714285,137.35526518026987L132.79514285714285,115.95460391044617L132.8262142857143,159.12299102544785L133.07064285714287,151.09193321069083L133.91164285714285,147.89469625552496L134.00278571428572,133.0216091473897L134.24307142857143,123.10901935895284L134.51235714285716,139.8573494553566L134.60557142857144,151.3719542423884L135.04264285714285,137.23954315980276L135.2622142857143,142.96529805660248L135.2684285714286,139.50936869780222L135.32228571428573,148.20165501038232L135.38649999999998,133.60003169377646L135.75728571428573,148.47928470373154L135.76764285714285,142.714881559213L135.78421428571428,154.4483582774798L136.1197857142857,140.89911139011383L136.22957142857143,158.05235133568445L136.64385714285714,143.02818204959235L136.9027857142857,134.41545462608337L137.344,135.74174479643503L137.41235714285716,150.73217745622L137.7645,132.32564763228098L137.7935,129.36270908514658L137.9737142857143,134.62421611944833L138.34449999999998,138.10803856452304L138.41285714285715,156.50852557023367L138.78364285714287,149.16179494063059L139.40507142857143,138.82518217960993L139.4175,147.0438135266304L139.7882857142857,162.3423185547193L140.35999999999999,136.89651505152383L141.46821428571428,141.56950082381564L141.76857142857145,148.33984271685281L142.00885714285715,131.8386586109797L142.18492857142857,134.7462329864502L142.3465,151.77582667271295L142.40242857142857,138.97447671492895L142.43764285714286,150.13644115130106L142.9907142857143,129.11881601810455L143.47542857142858,149.51678560177484L143.57278571428571,141.5951315164566L143.82342857142856,150.17279183864594L144.25428571428571,132.7334177096685L144.3164285714286,142.7472466826439L144.45521428571428,136.4765890041987L145.17814285714286,146.70729126532873L145.37078571428572,143.41624703009924L145.3832142857143,157.24441891908646L145.4287857142857,142.37763251860935L145.6152142857143,151.07624298334122L145.98392857142858,149.40445717175803L147.32414285714287,162.273362437884L147.4960714285714,138.23340213298798L147.64314285714286,142.39191021521887L147.9787142857143,144.8361100355784L148.17757142857144,146.47356724739075L148.48,148.53628412882486L149.43078571428572,158.22337891658148L149.59650000000002,139.1488392750422L150.21171428571427,154.2741598288218L150.27592857142855,132.0218538840612L150.2925,140.13953324158987L150.95328571428573,126.08139431476593L151.26399999999998,153.2159867485364L151.67000000000002,142.208709081014L151.95585714285713,152.08181248108545L152.10085714285717,138.80195454756418L152.10292857142855,136.72072823842367L152.27692857142858,138.79032607873282L152.6042142857143,145.06593054533005L153.00607142857143,154.12145998080572L153.26085714285716,146.2250556151072L153.4887142857143,144.908881743749L153.7517857142857,137.29804889361063L154.3442142857143,149.26126992702484L154.36492857142858,139.69831959406534L154.70878571428574,149.38998019695282L155.12721428571427,152.9568195939064L155.35714285714286,151.32356480757394L155.469,152.13448053598404L155.86464285714285,115.4239729642868L155.962,135.93410686651865L156.13392857142856,149.6886571844419L156.2892857142857,149.17442566156387L156.3535,129.687051932017L156.60207142857143,154.82667034864426L156.68907142857142,159.34042112032571L156.82578571428573,155.4361334045728L157.23592857142856,153.18489935000738L157.53007142857143,158.828375796477L158.04585714285716,160.92033382256827L158.76878571428574,138.69885152578354L159.05878571428573,150.92214232683182L159.39228571428572,155.59695676962534L159.4502857142857,141.29391080141068L159.5435,119.4394989411036L160.4114285714286,158.0616881052653L160.48185714285714,151.91340482234955L160.56264285714286,152.4540700117747L162.11621428571428,156.79441358645758L162.1535,117.51836335659027L162.3544285714286,125.9047166109085L162.46007142857144,129.80942046642303L162.63199999999998,145.84208981196085L162.79357142857143,145.83571877082187L163.49578571428572,153.95117676258087L163.61800000000002,153.3254139224688L163.99707142857145,139.77653628587723L164.02607142857144,154.65602374076843L164.58535714285713,153.07015613714853L164.62885714285713,156.5603203177452L165.01414285714284,148.99249639113742L165.13221428571427,150.84015693267187L165.29585714285716,153.32888956864676L165.5382142857143,129.28077057997385L166.663,146.07244368394217L166.67128571428572,143.34207451343536L166.7355,147.3558597366015L166.9157142857143,153.0258050163587L167.07314285714284,154.87572795152664L167.60964285714286,136.7947893937429L167.77742857142857,149.26048453648886L168.43614285714287,139.76715848843256L168.6722857142857,151.331319073836L168.93328571428572,138.03499724467596L168.98714285714286,134.17837218443552L169.22742857142856,139.8507205247879L169.54642857142858,139.3763622244199L169.6624285714286,136.8681003252665L169.76807142857143,125.78130479653677L169.81364285714287,143.7098541458448L169.882,140.37991549571356L169.93378571428573,166.27701377868652L170.26521428571428,141.0237833460172L170.4267857142857,150.03355499108633L170.47235714285713,152.7667668064435L170.4765,140.37590062618256L170.6877857142857,149.7331606944402L170.69400000000002,128.43476430575052L171.013,137.7689667145411L171.35478571428573,147.62811477979022L171.66549999999998,159.37562888860703L171.9472142857143,144.55312913656235L172.29935714285716,152.95405314366022L172.5872857142857,124.95303428173065L173.56292857142859,153.3293760418892L173.5732857142857,159.67377251386642L173.67064285714287,147.97321186463037L173.79492857142858,151.7948518792788L173.84257142857143,143.164306640625L174.02278571428573,149.08673739433289L174.38735714285716,151.24389455715814L174.40185714285715,160.48357462882996L175.7917857142857,160.5546935002009L175.86635714285714,133.64960507551828L176.36142857142855,160.7357787688573L176.42564285714286,143.75505512952805L177.04292857142858,130.36608652273813L177.08021428571428,153.19750076532364L177.24592857142855,151.81626256306964L177.37435714285715,148.60400940974554L177.51521428571428,149.57972234487534L177.99371428571428,148.1673732995987L178.25885714285715,139.61088921626407L178.34792857142855,144.82612854242325L178.59442857142858,146.4408797621727L179.03564285714285,138.31516480445862L179.14128571428571,137.12302402655283L179.43957142857144,136.88991542657217L179.53692857142858,126.06832400957742L179.6032142857143,153.16918567816415L179.7792857142857,149.82202118635178L180.01957142857145,143.67237812280655L180.03407142857145,149.9429830511411L180.05685714285713,152.45763943592706L180.62442857142858,143.99244821071625L180.88542857142858,147.76378220319748L181.16714285714284,161.77636847893396L181.31214285714287,151.43395320574442L181.54621428571429,146.32466540733972L181.87557142857142,147.1963434020678L182.08064285714286,136.3140131632487L182.56535714285715,141.35147289435068L182.71657142857143,148.76695450146994L182.83464285714285,151.82423369089761L183.89107142857142,141.85896412531534L184.03192857142858,144.08660129706064L184.19142857142856,149.1958363453547L184.22042857142856,150.62104469537735L184.30121428571428,129.87422104676563L184.3675,149.94433110952377L184.99721428571428,150.62249825398126L185.223,142.0414912303289L185.5937857142857,147.0055990020434L185.64142857142858,157.90235932668048L186.03914285714285,160.643794298172L186.09092857142858,137.91516071558L186.37678571428572,149.79102170467377L186.42442857142856,164.43379010756811L186.4927857142857,141.96565415461856L186.50107142857144,142.3205862045288L186.63571428571427,150.43939089775085L186.77035714285714,157.0505739847819L187.15564285714285,158.3246649901072L187.23642857142858,148.87053227424622L187.26957142857142,138.5941542784373L187.56785714285715,146.14991601308188L187.62171428571426,149.46347282330194L187.69835714285713,158.0659198363622L188.1395714285714,139.3157816529274L188.2245,141.30831744273505L188.38814285714284,143.26118514935175L188.49171428571427,151.6732921799024L188.53107142857144,143.29078968365985L188.74235714285714,132.00771685441336L189.28921428571428,146.74760993321735L189.52328571428572,133.22081700960794L189.5957857142857,158.64744291702905L190.472,158.60662019252777L190.73714285714286,144.36646993954975L192.096,142.5919503569603L192.16642857142855,152.6417900721232L192.2927857142857,150.31262065966922L192.33007142857144,138.16287523508072L192.4854285714286,159.91181031862894L192.7982142857143,159.51753840843836L192.90592857142857,140.98682896296182L193.19592857142857,142.5581258138021L193.6992857142857,156.33672432104746L194.22128571428573,136.84184249242148L194.5547857142857,141.83299348751703L194.65421428571426,148.4582608540853L195.0560714285714,164.8960862159729L195.12235714285714,129.65026752154031L195.13892857142858,146.5981805920601L195.53042857142856,141.8025273680687L195.5615,156.77308495839435L195.69821428571427,155.9219912290573L195.9592142857143,136.81522126992544L196.13528571428571,149.7647638718287L196.24714285714285,156.02776692310968L196.40871428571427,131.2373425165812L196.82714285714286,148.68230815728506L196.8934285714286,140.2243026693662L196.97007142857143,143.55827963352203L197.13578571428573,154.15007398525873L197.44857142857143,146.53113520145416L197.83800000000002,148.1112823486328L197.9022142857143,160.97508843739828L197.97057142857142,146.06238013505936L198.2067142857143,155.73237216472626L198.33721428571428,144.21396350860596L198.82607142857142,136.65406382083893L198.88614285714286,155.00513569513956L199.7934285714286,146.8537197113037L200.187,149.5370416442553L200.2015,146.52566677331924L200.47285714285715,130.2161120971044L200.4997857142857,139.1836660703023L200.59507142857143,149.71697227160135L200.6489285714286,145.85816687345505L200.94514285714286,132.8517303466797L201.74264285714287,142.47723644971848L201.8607142857143,150.44965958595276L202.08028571428574,151.399718383948L202.21492857142857,121.69398005803424L202.30814285714285,142.68767422437668L202.64578571428572,154.77346893151602L203.19264285714286,146.9808474779129L203.28378571428573,137.50263726711273L203.7747142857143,129.6860555410385L203.91350000000003,146.7603813211123L204.39614285714285,144.67047468821207L204.58671428571427,146.80538302659988L204.68821428571428,125.1595333814621L204.90985714285713,137.28684242566428L205.40078571428572,151.5716778834661L205.61414285714287,150.0469535191854L205.7902142857143,151.2009618282318L205.82335714285713,148.8272889057795L206.61464285714285,158.81521171331406L206.64985714285714,150.93915716807047L206.8797857142857,141.61224599679312L206.91914285714287,145.79504257440567L207.0869285714286,158.45328148206073L207.21535714285713,150.3216409285863L207.63378571428572,129.79067659378052L207.80364285714288,146.3784998257955L208.07500000000002,152.51177277167636L209.04857142857142,147.9032534956932L209.36757142857144,141.22990147272745L209.409,154.87367655833563L209.83571428571426,143.47427801291147L210.19614285714286,150.22990262508392L210.50685714285714,161.23238589366278L210.54828571428573,129.51353923479715L210.5545,133.55579193433127L210.6829285714286,148.80009329319L210.73057142857144,150.94674146175385L210.7367857142857,148.78873443603516L211.30435714285713,145.44254875183105L211.48042857142858,155.83579754829407L211.53428571428572,158.62024144331613L211.7952857142857,147.22602999210358L211.9257857142857,151.21294782559076L212.7957857142857,152.67464166879654L212.91799999999998,142.30273908376694L212.92214285714286,148.3669855793317L212.98635714285714,140.3065400918325L213.13342857142857,143.46376901865005L213.61814285714286,149.6643686890602L213.81907142857142,158.48129765192667L214.33278571428573,152.18319819370905L215.2235,149.40366005897522L215.55492857142855,149.3329807718595L216.21571428571428,144.05578351020813L216.30685714285713,155.50379421313605L216.53885714285715,142.15329802036285L217.0525714285714,151.6161638100942L217.2742142857143,154.6742694179217L217.56214285714287,150.3165534734726L217.61807142857143,148.99350450436273L217.88114285714286,151.4612601796786L218.16492857142856,158.75280247131982L218.28092857142857,141.93101491530737L218.34721428571427,148.0774812499682L218.49428571428572,141.2231494585673L218.57092857142857,162.8694679935773L219.28142857142856,160.54271922508875L219.46578571428572,156.04598329464594L219.51342857142856,135.08670564492544L219.63771428571428,152.21682931979498L220.19492857142856,156.0606419642766L220.36064285714284,156.30009229977927L220.53464285714284,141.4868824283282L220.6175,140.91146077712378L220.67964285714288,144.73053361972174L220.81428571428572,135.84452545642853L220.88057142857141,150.0049527088801L221.68014285714287,149.60023627678552L221.96599999999998,144.07027220726013L222.11100000000002,153.89066066344577L222.256,140.54590837160745L222.50457142857144,160.45913960536322L222.59571428571428,140.48546846707663L222.8774285714286,135.80105936527252L222.9955,149.13391357660294L223.17985714285714,143.75537749131522L223.29171428571428,140.04355734586716L223.45742857142858,150.94111478328705L223.68528571428573,137.47388259569803L223.706,145.54408099253973L224.0022142857143,133.80465523401895L224.15342857142858,148.38558878501257L224.55114285714285,153.63506879409155L224.69614285714286,154.3061088124911L224.79764285714288,144.96338433027267L224.83492857142858,145.86082782347995L224.9675,152.41581445932388L225.27614285714284,130.9835910399755L225.765,154.13809971014658L225.89964285714285,146.2409451206525L226.345,155.98668630917865L226.83385714285714,162.34849617878595L226.87735714285714,155.4797518849373L227.05342857142858,154.4250720342L227.05757142857144,154.17579259475073L227.61685714285716,150.3650601307551L228.44542857142858,141.3977992137273L228.52621428571427,148.203788459301L228.87007142857144,153.40051249663034L229.02957142857142,146.43831259012222L229.0772142857143,152.14069332679114L229.41278571428572,142.6714213291804L229.63442857142857,153.38863786061603L229.70071428571427,144.52640827496845L229.75664285714288,153.46671974658966L229.7752857142857,140.68877911567688L229.92235714285715,157.93500578403473L230.0777142857143,150.41156228383383L230.24964285714285,140.55798814694086L230.41328571428573,143.62064198652902L230.6225,155.37142660220465L230.66392857142856,145.38560207684833L230.82135714285715,147.86852633953094L230.93942857142858,154.93656641244888L230.9622142857143,156.64677774906158L231.35992857142858,142.46309942007065L231.8405,157.08755181233087L231.88192857142857,147.94938639799753L232.62142857142857,144.27429205179214L232.63592857142856,142.6645696759224L232.98392857142858,158.11347699165344L233.05435714285713,132.023916999499L233.12064285714285,155.29664452870688L233.23250000000002,142.3187692562739L233.41892857142858,140.0742696324984L233.82285714285715,150.2751680811246L233.88707142857143,142.00282539923987L234.00099999999998,146.14079024394354L234.07350000000002,138.46564914782843L234.0942142857143,140.08543507258096L234.49814285714285,148.9113725821177L234.72807142857144,151.32979518175125L235.02842857142858,142.72845592101416L235.14235714285715,136.18610000610352L235.5815,154.31982970237732L236.03307142857142,144.54620714982352L236.71457142857145,161.13440549373627L236.83471428571428,156.1265678803126L237.60114285714283,147.2487828731537L237.81657142857142,154.30870529015857L237.84557142857142,141.64930001894632L237.8849285714286,144.7344722946485L237.96985714285714,138.8602727254232L237.99885714285713,141.68137208620706L238.02992857142857,153.53692428270975L238.05685714285715,171.0249340136846L238.13764285714285,148.96881745258966L238.22050000000002,129.36487770080566L238.23914285714287,142.7408697803815L238.3572142857143,151.19858221213022L238.40692857142858,151.7541698217392L238.75907142857145,151.1773883899053L238.76321428571427,150.4827514886856L239.1132857142857,139.04363210995993L239.47785714285712,159.8165963689486L239.66842857142856,157.47352437178293L239.81757142857143,141.38758327563605L239.84657142857142,150.1055061419805L240.24635714285714,158.61510709921518L240.72071428571428,155.57772056261697L240.8387857142857,146.22448122501373L241.09357142857144,151.64089188973108L241.45814285714286,119.40512931346893L241.66528571428572,143.49146868785223L241.87864285714286,156.44721821943918L242.5705,156.9747076034546L243.93971428571427,143.38569885492325L244.02257142857144,147.97309464216232L244.09092857142858,158.005954682827L244.4720714285714,148.3894981543223L245.35864285714285,157.13616396983463L245.64242857142855,145.3613663315773L246.20999999999998,145.35808410247168L246.703,161.28948495785394L247.0012857142857,155.5906619230906L247.00335714285714,160.35514569282532L247.12349999999998,146.54742912451425L247.5295,150.93391732374826L247.53778571428572,150.39326385656992L247.70142857142855,153.41868197917938L248.2027142857143,153.33959197998047L248.70192857142857,143.94875939687094L248.96707142857142,122.33776585261026L249.03542857142858,150.8714318871498L249.2052857142857,158.23810205856958L249.43728571428574,144.83412897586823L249.56157142857145,156.2367863059044L249.78528571428572,155.94462688763937L249.85985714285715,159.10645679632822L249.89921428571427,155.3355037768682L250.09807142857142,152.22659981250763L250.1685,147.45651866992313L250.18921428571429,147.43173197905222L250.5517142857143,139.7785290678342L251.04471428571426,152.67549739281336L251.12964285714287,150.94252145290375L251.31192857142858,151.04356135924658L251.77178571428573,134.3370679616928L251.84635714285716,149.64489217599234L252.0887142857143,128.79966612656912L252.48021428571428,148.599724928538L252.53821428571428,150.9717684586843L253.41442857142857,160.42196836074191L253.68785714285713,147.45452588796616L254.0897142857143,147.75730566183725L254.17049999999998,152.38450433810553L254.58271428571427,135.68588829040527L255.45271428571428,131.3296317656835L255.7447857142857,160.79723850886026L256.0057857142857,160.0772991379102L256.3206428571429,148.36930072307587L256.8157142857143,147.92002216974893L257.462,149.59329084555307L257.4744285714286,136.25895377000174L257.8079285714286,146.58543264865875L257.8245,143.99080123504004L258.31335714285717,149.86403371890384L258.55571428571426,148.02399849891663L259.1274285714286,156.73683391014734L259.2372142857143,138.33417828877765L259.9767142857143,155.53639378150305L260.0015714285714,150.93348946173984L260.5028571428571,146.69726288318634L260.5132142857143,143.7030435204506L260.5277142857143,132.81791166464487L260.7472857142857,146.14424830675125L261.08078571428575,153.64712512493134L261.26721428571426,142.04207148154578L261.6525,137.47171398003894L261.80164285714284,147.02526307106018L261.9383571428571,142.1878083149592L262.2925714285714,150.23417538404465L262.3940714285714,153.70207315683365L262.4727857142857,152.3811986645063L262.54321428571427,137.35364751021066L262.62192857142855,153.54698783159256L262.7027142857143,164.18983842929205L262.8332142857143,161.45811533927917L262.943,140.65879360834757L263.02378571428574,140.80743755896887L263.10457142857143,158.4881786108017L263.13357142857143,150.0206253528595L263.1687857142857,145.83914752801257L263.3925,155.01272584994635L263.43392857142857,146.19093801577884L263.50435714285715,144.76814444859824L263.6245,153.75937149922052L264.38678571428574,149.38679760694504L264.49242857142855,144.68197421232858L264.78035714285716,143.61304597059885L264.9709285714286,138.82904465993246L265.02064285714283,132.72950247923532L265.4763571428571,148.13456859191257L265.53642857142853,152.35185788075128L266.49135714285717,148.09690501292545L267.0237142857143,146.66066602865854L267.08378571428574,153.14708924293518L267.21014285714284,145.87083276112875L267.8398571428571,149.36630125840506L268.1402142857143,153.3370130856832L268.1878571428571,153.1984033783277L268.3515,150.5332157611847L269.2422142857143,158.94572134812674L269.27328571428575,153.9452277223269L269.28364285714287,157.25011006991068" style="fill: none;" fill="none"></path></g></g></g></g></g></g><g transform="translate(40, 177)" clip-path="url(#clip_1)"><clipPath id="clip_1"><rect width="290" height="23"></rect></clipPath><g><g><line x1="0" y1="0" x2="0" y2="5" style="visibility: inherit;" fill="rgb(0, 0, 0)" stroke="rgb(204, 204, 204)" stroke-width="1px"></line><line x1="20.71428571428571" y1="0" x2="20.71428571428571" y2="5" style="visibility: inherit;" fill="rgb(0, 0, 0)" stroke="rgb(204, 204, 204)" stroke-width="1px"></line><line x1="41.42857142857142" y1="0" x2="41.42857142857142" y2="5" style="visibility: inherit;" fill="rgb(0, 0, 0)" stroke="rgb(204, 204, 204)" stroke-width="1px"></line><line x1="62.14285714285714" y1="0" x2="62.14285714285714" y2="5" style="visibility: inherit;" fill="rgb(0, 0, 0)" stroke="rgb(204, 204, 204)" stroke-width="1px"></line><line x1="82.85714285714285" y1="0" x2="82.85714285714285" y2="5" style="visibility: inherit;" fill="rgb(0, 0, 0)" stroke="rgb(204, 204, 204)" stroke-width="1px"></line><line x1="103.57142857142857" y1="0" x2="103.57142857142857" y2="5" style="visibility: inherit;" fill="rgb(0, 0, 0)" stroke="rgb(204, 204, 204)" stroke-width="1px"></line><line x1="124.28571428571428" y1="0" x2="124.28571428571428" y2="5" style="visibility: inherit;" fill="rgb(0, 0, 0)" stroke="rgb(204, 204, 204)" stroke-width="1px"></line><line x1="145" y1="0" x2="145" y2="5" style="visibility: inherit;" fill="rgb(0, 0, 0)" stroke="rgb(204, 204, 204)" stroke-width="1px"></line><line x1="165.7142857142857" y1="0" x2="165.7142857142857" y2="5" style="visibility: inherit;" fill="rgb(0, 0, 0)" stroke="rgb(204, 204, 204)" stroke-width="1px"></line><line x1="186.42857142857144" y1="0" x2="186.42857142857144" y2="5" style="visibility: inherit;" fill="rgb(0, 0, 0)" stroke="rgb(204, 204, 204)" stroke-width="1px"></line><line x1="207.14285714285714" y1="0" x2="207.14285714285714" y2="5" style="visibility: inherit;" fill="rgb(0, 0, 0)" stroke="rgb(204, 204, 204)" stroke-width="1px"></line><line x1="227.85714285714286" y1="0" x2="227.85714285714286" y2="5" style="visibility: inherit;" fill="rgb(0, 0, 0)" stroke="rgb(204, 204, 204)" stroke-width="1px"></line><line x1="248.57142857142856" y1="0" x2="248.57142857142856" y2="5" style="visibility: inherit;" fill="rgb(0, 0, 0)" stroke="rgb(204, 204, 204)" stroke-width="1px"></line><line x1="269.2857142857143" y1="0" x2="269.2857142857143" y2="5" style="visibility: inherit;" fill="rgb(0, 0, 0)" stroke="rgb(204, 204, 204)" stroke-width="1px"></line><line x1="290" y1="0" x2="290" y2="5" style="visibility: inherit;" fill="rgb(0, 0, 0)" stroke="rgb(204, 204, 204)" stroke-width="1px"></line></g><g transform="translate(0, 8)"><text x="0" y="0" dx="0em" dy="0.95em" style="text-anchor: middle; visibility: hidden; font-family: Roboto, sans-serif; font-size: 12px; font-weight: 200;" fill="rgb(255, 255, 255)" stroke="none" stroke-width="1px">-10k</text><text x="20.71428571428571" y="0" dx="0em" dy="0.95em" style="text-anchor: middle; visibility: inherit; font-family: Roboto, sans-serif; font-size: 12px; font-weight: 200;" fill="rgb(255, 255, 255)" stroke="none" stroke-width="1px">0</text><text x="41.42857142857142" y="0" dx="0em" dy="0.95em" style="text-anchor: middle; visibility: hidden; font-family: Roboto, sans-serif; font-size: 12px; font-weight: 200;" fill="rgb(255, 255, 255)" stroke="none" stroke-width="1px">10k</text><text x="62.14285714285714" y="0" dx="0em" dy="0.95em" style="text-anchor: middle; visibility: inherit; font-family: Roboto, sans-serif; font-size: 12px; font-weight: 200;" fill="rgb(255, 255, 255)" stroke="none" stroke-width="1px">20k</text><text x="82.85714285714285" y="0" dx="0em" dy="0.95em" style="text-anchor: middle; visibility: hidden; font-family: Roboto, sans-serif; font-size: 12px; font-weight: 200;" fill="rgb(255, 255, 255)" stroke="none" stroke-width="1px">30k</text><text x="103.57142857142857" y="0" dx="0em" dy="0.95em" style="text-anchor: middle; visibility: inherit; font-family: Roboto, sans-serif; font-size: 12px; font-weight: 200;" fill="rgb(255, 255, 255)" stroke="none" stroke-width="1px">40k</text><text x="124.28571428571428" y="0" dx="0em" dy="0.95em" style="text-anchor: middle; visibility: hidden; font-family: Roboto, sans-serif; font-size: 12px; font-weight: 200;" fill="rgb(255, 255, 255)" stroke="none" stroke-width="1px">50k</text><text x="145" y="0" dx="0em" dy="0.95em" style="text-anchor: middle; visibility: inherit; font-family: Roboto, sans-serif; font-size: 12px; font-weight: 200;" fill="rgb(255, 255, 255)" stroke="none" stroke-width="1px">60k</text><text x="165.7142857142857" y="0" dx="0em" dy="0.95em" style="text-anchor: middle; visibility: hidden; font-family: Roboto, sans-serif; font-size: 12px; font-weight: 200;" fill="rgb(255, 255, 255)" stroke="none" stroke-width="1px">70k</text><text x="186.42857142857144" y="0" dx="0em" dy="0.95em" style="text-anchor: middle; visibility: inherit; font-family: Roboto, sans-serif; font-size: 12px; font-weight: 200;" fill="rgb(255, 255, 255)" stroke="none" stroke-width="1px">80k</text><text x="207.14285714285714" y="0" dx="0em" dy="0.95em" style="text-anchor: middle; visibility: hidden; font-family: Roboto, sans-serif; font-size: 12px; font-weight: 200;" fill="rgb(255, 255, 255)" stroke="none" stroke-width="1px">90k</text><text x="227.85714285714286" y="0" dx="0em" dy="0.95em" style="text-anchor: middle; visibility: inherit; font-family: Roboto, sans-serif; font-size: 12px; font-weight: 200;" fill="rgb(255, 255, 255)" stroke="none" stroke-width="1px">100k</text><text x="248.57142857142856" y="0" dx="0em" dy="0.95em" style="text-anchor: middle; visibility: hidden; font-family: Roboto, sans-serif; font-size: 12px; font-weight: 200;" fill="rgb(255, 255, 255)" stroke="none" stroke-width="1px">110k</text><text x="269.2857142857143" y="0" dx="0em" dy="0.95em" style="text-anchor: middle; visibility: inherit; font-family: Roboto, sans-serif; font-size: 12px; font-weight: 200;" fill="rgb(255, 255, 255)" stroke="none" stroke-width="1px">120k</text><text x="290" y="0" dx="0em" dy="0.95em" style="text-anchor: middle; visibility: hidden; font-family: Roboto, sans-serif; font-size: 12px; font-weight: 200;" fill="rgb(255, 255, 255)" stroke="none" stroke-width="1px">130k</text></g><line x1="0" y1="0" x2="290" y2="0" fill="rgb(0, 0, 0)" stroke="rgb(204, 204, 204)" stroke-width="1px"></line></g></g></g></g></svg>