<svg viewBox="0 0 330 200" xmlns="http://www.w3.org/2000/svg"><g><g><g><g><g><line x1="50" y1="177" x2="45" y2="177" style="visibility: inherit;" fill="rgb(0, 0, 0)" stroke="rgb(204, 204, 204)" stroke-width="1px"></line><line x1="50" y1="164.3571428571429" x2="45" y2="164.3571428571429" style="visibility: inherit;" fill="rgb(0, 0, 0)" stroke="rgb(204, 204, 204)" stroke-width="1px"></line><line x1="50" y1="151.71428571428572" x2="45" y2="151.71428571428572" style="visibility: inherit;" fill="rgb(0, 0, 0)" stroke="rgb(204, 204, 204)" stroke-width="1px"></line><line x1="50" y1="139.07142857142856" x2="45" y2="139.07142857142856" style="visibility: inherit;" fill="rgb(0, 0, 0)" stroke="rgb(204, 204, 204)" stroke-width="1px"></line><line x1="50" y1="126.42857142857144" x2="45" y2="126.42857142857144" style="visibility: inherit;" fill="rgb(0, 0, 0)" stroke="rgb(204, 204, 204)" stroke-width="1px"></line><line x1="50" y1="113.78571428571429" x2="45" y2="113.78571428571429" style="visibility: inherit;" fill="rgb(0, 0, 0)" stroke="rgb(204, 204, 204)" stroke-width="1px"></line><line x1="50" y1="101.14285714285718" x2="45" y2="101.14285714285718" style="visibility: inherit;" fill="rgb(0, 0, 0)" stroke="rgb(204, 204, 204)" stroke-width="1px"></line><line x1="50" y1="88.5" x2="45" y2="88.5" style="visibility: inherit;" fill="rgb(0, 0, 0)" stroke="rgb(204, 204, 204)" stroke-width="1px"></line><line x1="50" y1="75.85714285714286" x2="45" y2="75.85714285714286" style="visibility: inherit;" fill="rgb(0, 0, 0)" stroke="rgb(204, 204, 204)" stroke-width="1px"></line><line x1="50" y1="63.21428571428571" x2="45" y2="63.21428571428571" style="visibility: inherit;" fill="rgb(0, 0, 0)" stroke="rgb(204, 204, 204)" stroke-width="1px"></line><line x1="50" y1="50.571428571428605" x2="45" y2="50.571428571428605" style="visibility: inherit;" fill="rgb(0, 0, 0)" stroke="rgb(204, 204, 204)" stroke-width="1px"></line><line x1="50" y1="37.92857142857145" x2="45" y2="37.92857142857145" style="visibility: inherit;" fill="rgb(0, 0, 0)" stroke="rgb(204, 204, 204)" stroke-width="1px"></line><line x1="50" y1="25.285714285714313" x2="45" y2="25.285714285714313" style="visibility: inherit;" fill="rgb(0, 0, 0)" stroke="rgb(204, 204, 204)" stroke-width="1px"></line><line x1="50" y1="12.642857142857157" x2="45" y2="12.642857142857157" style="visibility: inherit;" fill="rgb(0, 0, 0)" stroke="rgb(204, 204, 204)" stroke-width="1px"></line><line x1="50" y1="0" x2="45" y2="0" style="visibility: inherit;" fill="rgb(0, 0, 0)" stroke="rgb(204, 204, 204)" stroke-width="1px"></line></g><g transform="translate(40, 0)"><text x="0" y="177" dx="0em" dy="0.3em" style="text-anchor: end; visibility: hidden; font-family: Roboto, sans-serif; font-size: 12px; font-weight: 200;" fill="rgb(255, 255, 255)" stroke="none" stroke-width="1px">0.65</text><text x="0" y="164.3571428571429" dx="0em" dy="0.3em" style="text-anchor: end; visibility: inherit; font-family: Roboto, sans-serif; font-size: 12px; font-weight: 200;" fill="rgb(255, 255, 255)" stroke="none" stroke-width="1px">0.7</text><text x="0" y="151.71428571428572" dx="0em" dy="0.3em" style="text-anchor: end; visibility: hidden; font-family: Roboto, sans-serif; font-size: 12px; font-weight: 200;" fill="rgb(255, 255, 255)" stroke="none" stroke-width="1px">0.75</text><text x="0" y="139.07142857142856" dx="0em" dy="0.3em" style="text-anchor: end; visibility: inherit; font-family: Roboto, sans-serif; font-size: 12px; font-weight: 200;" fill="rgb(255, 255, 255)" stroke="none" stroke-width="1px">0.8</text><text x="0" y="126.42857142857144" dx="0em" dy="0.3em" style="text-anchor: end; visibility: hidden; font-family: Roboto, sans-serif; font-size: 12px; font-weight: 200;" fill="rgb(255, 255, 255)" stroke="none" stroke-width="1px">0.85</text><text x="0" y="113.78571428571429" dx="0em" dy="0.3em" style="text-anchor: end; visibility: inherit; font-family: Roboto, sans-serif; font-size: 12px; font-weight: 200;" fill="rgb(255, 255, 255)" stroke="none" stroke-width="1px">0.9</text><text x="0" y="101.14285714285718" dx="0em" dy="0.3em" style="text-anchor: end; visibility: hidden; font-family: Roboto, sans-serif; font-size: 12px; font-weight: 200;" fill="rgb(255, 255, 255)" stroke="none" stroke-width="1px">0.95</text><text x="0" y="88.5" dx="0em" dy="0.3em" style="text-anchor: end; visibility: inherit; font-family: Roboto, sans-serif; font-size: 12px; font-weight: 200;" fill="rgb(255, 255, 255)" stroke="none" stroke-width="1px">1</text><text x="0" y="75.85714285714286" dx="0em" dy="0.3em" style="text-anchor: end; visibility: hidden; font-family: Roboto, sans-serif; font-size: 12px; font-weight: 200;" fill="rgb(255, 255, 255)" stroke="none" stroke-width="1px">1.05</text><text x="0" y="63.21428571428571" dx="0em" dy="0.3em" style="text-anchor: end; visibility: inherit; font-family: Roboto, sans-serif; font-size: 12px; font-weight: 200;" fill="rgb(255, 255, 255)" stroke="none" stroke-width="1px">1.1</text><text x="0" y="50.571428571428605" dx="0em" dy="0.3em" style="text-anchor: end; visibility: hidden; font-family: Roboto, sans-serif; font-size: 12px; font-weight: 200;" fill="rgb(255, 255, 255)" stroke="none" stroke-width="1px">1.15</text><text x="0" y="37.92857142857145" dx="0em" dy="0.3em" style="text-anchor: end; visibility: inherit; font-family: Roboto, sans-serif; font-size: 12px; font-weight: 200;" fill="rgb(255, 255, 255)" stroke="none" stroke-width="1px">1.2</text><text x="0" y="25.285714285714313" dx="0em" dy="0.3em" style="text-anchor: end; visibility: hidden; font-family: Roboto, sans-serif; font-size: 12px; font-weight: 200;" fill="rgb(255, 255, 255)" stroke="none" stroke-width="1px">1.25</text><text x="0" y="12.642857142857157" dx="0em" dy="0.3em" style="text-anchor: end; visibility: inherit; font-family: Roboto, sans-serif; font-size: 12px; font-weight: 200;" fill="rgb(255, 255, 255)" stroke="none" stroke-width="1px">1.3</text><text x="0" y="0" dx="0em" dy="0.3em" style="text-anchor: end; visibility: hidden; font-family: Roboto, sans-serif; font-size: 12px; font-weight: 200;" fill="rgb(255, 255, 255)" stroke="none" stroke-width="1px">1.35</text></g><line x1="50" y1="0" x2="50" y2="177" fill="rgb(0, 0, 0)" stroke="rgb(204, 204, 204)" stroke-width="1px"></line></g></g><g transform="translate(50, 0)" clip-path="url(#clip_0)"><clipPath id="clip_0"><rect width="280" height="177"></rect></clipPath><g><g><g><line x1="0" y1="0" x2="0" y2="177" fill="rgb(0, 0, 0)" stroke="rgb(189, 189, 189)" stroke-width="1px" opacity="0.25"></line><line x1="20" y1="0" x2="20" y2="177" fill="rgb(0, 0, 0)" stroke="rgb(189, 189, 189)" stroke-width="1px" opacity="0.25"></line><line x1="40" y1="0" x2="40" y2="177" fill="rgb(0, 0, 0)" stroke="rgb(189, 189, 189)" stroke-width="1px" opacity="0.25"></line><line x1="60" y1="0" x2="60" y2="177" fill="rgb(0, 0, 0)" stroke="rgb(189, 189, 189)" stroke-width="1px" opacity="0.25"></line><line x1="80" y1="0" x2="80" y2="177" fill="rgb(0, 0, 0)" stroke="rgb(189, 189, 189)" stroke-width="1px" opacity="0.25"></line><line x1="100" y1="0" x2="100" y2="177" fill="rgb(0, 0, 0)" stroke="rgb(189, 189, 189)" stroke-width="1px" opacity="0.25"></line><line x1="120" y1="0" x2="120" y2="177" fill="rgb(0, 0, 0)" stroke="rgb(189, 189, 189)" stroke-width="1px" opacity="0.25"></line><line x1="140" y1="0" x2="140" y2="177" fill="rgb(0, 0, 0)" stroke="rgb(189, 189, 189)" stroke-width="1px" opacity="0.25"></line><line x1="160" y1="0" x2="160" y2="177" fill="rgb(0, 0, 0)" stroke="rgb(189, 189, 189)" stroke-width="1px" opacity="0.25"></line><line x1="180" y1="0" x2="180" y2="177" fill="rgb(0, 0, 0)" stroke="rgb(189, 189, 189)" stroke-width="1px" opacity="0.25"></line><line x1="200" y1="0" x2="200" y2="177" fill="rgb(0, 0, 0)" stroke="rgb(189, 189, 189)" stroke-width="1px" opacity="0.25"></line><line x1="220" y1="0" x2="220" y2="177" fill="rgb(0, 0, 0)" stroke="rgb(189, 189, 189)" stroke-width="1px" opacity="0.25"></line><line x1="240" y1="0" x2="240" y2="177" fill="rgb(0, 0, 0)" stroke="rgb(189, 189, 189)" stroke-width="1px" opacity="0.25"></line><line x1="260" y1="0" x2="260" y2="177" fill="rgb(0, 0, 0)" stroke="rgb(189, 189, 189)" stroke-width="1px" opacity="0.25"></line><line x1="280" y1="0" x2="280" y2="177" fill="rgb(0, 0, 0)" stroke="rgb(189, 189, 189)" stroke-width="1px" opacity="0.25"></line></g><g><line x1="0" y1="177" x2="280" y2="177" fill="rgb(0, 0, 0)" stroke="rgb(189, 189, 189)" stroke-width="1px" opacity="0.25"></line><line x1="0" y1="164.3571428571429" x2="280" y2="164.3571428571429" fill="rgb(0, 0, 0)" stroke="rgb(189, 189, 189)" stroke-width="1px" opacity="0.25"></line><line x1="0" y1="151.71428571428572" x2="280" y2="151.71428571428572" fill="rgb(0, 0, 0)" stroke="rgb(189, 189, 189)" stroke-width="1px" opacity="0.25"></line><line x1="0" y1="139.07142857142856" x2="280" y2="139.07142857142856" fill="rgb(0, 0, 0)" stroke="rgb(189, 189, 189)" stroke-width="1px" opacity="0.25"></line><line x1="0" y1="126.42857142857144" x2="280" y2="126.42857142857144" fill="rgb(0, 0, 0)" stroke="rgb(189, 189, 189)" stroke-width="1px" opacity="0.25"></line><line x1="0" y1="113.78571428571429" x2="280" y2="113.78571428571429" fill="rgb(0, 0, 0)" stroke="rgb(189, 189, 189)" stroke-width="1px" opacity="0.25"></line><line x1="0" y1="101.14285714285718" x2="280" y2="101.14285714285718" fill="rgb(0, 0, 0)" stroke="rgb(189, 189, 189)" stroke-width="1px" opacity="0.25"></line><line x1="0" y1="88.5" x2="280" y2="88.5" fill="rgb(0, 0, 0)" stroke="rgb(189, 189, 189)" stroke-width="1px" opacity="0.25"></line><line x1="0" y1="75.85714285714286" x2="280" y2="75.85714285714286" fill="rgb(0, 0, 0)" stroke="rgb(189, 189, 189)" stroke-width="1px" opacity="0.25"></line><line x1="0" y1="63.21428571428571" x2="280" y2="63.21428571428571" fill="rgb(0, 0, 0)" stroke="rgb(189, 189, 189)" stroke-width="1px" opacity="0.25"></line><line x1="0" y1="50.571428571428605" x2="280" y2="50.571428571428605" fill="rgb(0, 0, 0)" stroke="rgb(189, 189, 189)" stroke-width="1px" opacity="0.25"></line><line x1="0" y1="37.92857142857145" x2="280" y2="37.92857142857145" fill="rgb(0, 0, 0)" stroke="rgb(189, 189, 189)" stroke-width="1px" opacity="0.25"></line><line x1="0" y1="25.285714285714313" x2="280" y2="25.285714285714313" fill="rgb(0, 0, 0)" stroke="rgb(189, 189, 189)" stroke-width="1px" opacity="0.25"></line><line x1="0" y1="12.642857142857157" x2="280" y2="12.642857142857157" fill="rgb(0, 0, 0)" stroke="rgb(189, 189, 189)" stroke-width="1px" opacity="0.25"></line><line x1="0" y1="0" x2="280" y2="0" fill="rgb(0, 0, 0)" stroke="rgb(189, 189, 189)" stroke-width="1px" opacity="0.25"></line></g></g></g><g><g><line x1="0" y1="341.35714285714283" x2="280" y2="341.35714285714283" fill="rgb(0, 0, 0)" stroke="rgb(153, 153, 153)" stroke-width="1.5px"></line></g></g><g><g><line x1="20" y1="0" x2="20" y2="177" fill="rgb(0, 0, 0)" stroke="rgb(153, 153, 153)" stroke-width="1.5px"></line></g></g><g><g><g><g><g><path stroke="rgb(255, 112, 67)" stroke-width="2px" d="M20.334,-11.637505595173131L20.458000000000002,15.372002442446101L20.468,107.2229071147427L20.546,191.71784721745234L20.947999999999997,60.636139425441804L21.072,103.23134741001182L21.157999999999998,98.98686969642445L21.172,-150.04155998783224L21.294,-14.817027294224204L21.428,112.14827994515176L21.616,88.20339231168256L22.028,96.40163220002493L22.665999999999997,24.036065625171886L22.674,-44.91878179167829L22.784,-63.289258905692705L22.872000000000003,71.56893838760644L23.382,132.4752349296629L23.468,94.00692461115223L23.474,83.55131961231334L23.754,89.88496251743403L23.834,173.83225827648272L24.072,174.08224552640957L24.398,165.44340894054397L24.613999999999997,227.48249743795878L27.34,227.9849987933138L27.482,172.3868076123119L27.628,217.49290186907507L30.717999999999996,189.4708830967809L31.445999999999998,163.73297783973976L31.616,136.04198454165606L31.728,122.3665403267341L31.814,155.72318844612212L31.98,150.17043455695213L32.4,170.13859651581524L32.437999999999995,169.4960124174804L32.577999999999996,190.43950800351095L33.932,192.70801988320864L34.31,150.07778165812252L34.763999999999996,130.2754442645181L34.92,146.1115422425226L34.926,169.44607655357368L35.022,149.52145270710105L35.596,170.25651275552545L35.666,184.37564133240548L35.982,181.78610151021513L36.132000000000005,167.14957249425294L36.36,159.53768870986966L36.44199999999999,170.4550127985667L36.726,190.79309853841696L36.754000000000005,162.14236984807152L36.996,132.15132553160643L37.016000000000005,130.36012223742964L37.202,125.7665036811811L37.756,174.13719265512634L37.870000000000005,149.76305637186258L37.986,123.36854791809698L38.519999999999996,117.91024323973235L38.936,125.10421015936326L39.108000000000004,106.37088991474027L39.13399999999999,124.12841126654526L39.396,131.04566615422954L39.68600000000001,132.70894481386688L39.814,115.22935005896574L40.552,110.6770356536874L40.566,113.35388375254003L40.798,97.66841591981539L40.958,109.0221951681481L41.044000000000004,141.6495349130183L41.214000000000006,151.84589600263365L41.56,138.69022086508636L41.803999999999995,129.13694764438097L41.81,127.91193507810982L41.932,109.1140718859467L41.948,95.12672320446143L42.04,97.217587637974L42.204,126.58515417035242L42.838,132.7530361858357L42.944,160.39458697465014L43.064,154.6636886477374L43.132000000000005,153.94612695795573L43.37,150.88294345153733L43.518,139.26465643652298L43.938,119.57243137739057L43.948,103.05429436502601L44.328,121.11937002809069L44.580000000000005,113.89836909370639L45.342,102.17595429248395L45.754000000000005,102.8350751444165L45.878,113.87970381729305L46.068000000000005,121.86719876039669L46.122,116.33317129829996L46.804,124.30652336319544L47.092000000000006,131.46901599022473L47.194,119.34294849478268L47.239999999999995,104.8337667132288L47.62,99.79068878219884L48.16,109.04545360674565L48.442,82.22273617564844L48.588,85.4239989817606L48.675999999999995,83.67299930796679L48.894,64.46133821676423L49.275999999999996,75.19157252506848L49.336,91.62506932920648L49.374,100.01187792194318L49.558,101.13240070292524L49.618,113.76178390472631L49.746,104.54709432365769L49.784000000000006,109.52127371591834L50.946,127.26936174165995L51.014,125.3221874553157L51.48,118.11957768565716L51.528,102.6253454785382L52.232,92.28285887501791L52.498000000000005,84.47681401340884L52.641999999999996,109.21460651259854L53.617999999999995,111.61980064282133L53.714,93.42559425233533L54.132,100.38442504865024L54.194,78.3468612391903L54.634,93.46511867484094L54.678000000000004,72.76835979383715L55.086,89.1022857917468L55.114,70.61912927501406L55.172,96.9305468306465L56.902,93.76637453469772L58.232000000000006,84.96384022102356L58.338,60.63536997374397L59.062,62.958316852497674L59.28,68.88292762457759L59.308,71.5584733296599L59.462,74.62525010333883L59.692,68.75616782868336L59.99,68.23264892250384L60.106,52.97311097847616L60.124,60.26524647752757L60.275999999999996,58.81901351108059L60.488,69.45545191463171L60.504000000000005,78.34403638522485L60.646,77.90422701781532L60.879999999999995,61.165909133314074L61.078,69.0251122895064L61.08,63.42100042685677L61.156000000000006,57.78949483641018L61.558,53.46149943458712L61.564,54.09147770346383L61.662,59.925152392036786L61.71,70.00625603504945L62.160000000000004,68.1837818279912L62.288,74.34712097972928L62.464,89.06635278421821L62.638,92.2327711290183L62.782,83.90597326025313L63.046,84.51641743971165L63.696,94.33928369381835L64.49,94.22362644356635L64.584,88.51740350056974L64.66,82.06428212447254L64.71600000000001,92.30363057823098L64.944,60.59127045988856L65.67999999999999,60.52806776015995L66.276,58.396491235275995L66.296,66.16471377955673L66.384,67.47134312870472L66.436,77.23482436978527L66.572,75.25384878882846L66.722,77.26756289889435L66.854,77.76279072678956L67.08,64.38911229629016L67.34,52.19688689692605L67.362,40.77221555359575L67.402,56.77798440450591L67.876,74.1311784818846L68.158,71.363006544501L68.294,46.21159291835623L68.56400000000001,50.18067997183458L68.568,47.56647367000786L68.644,53.22542641762445L68.69,82.37225664294176L69.242,67.20059702775727L69.438,79.2406715136536L69.454,95.55216163458466L69.802,85.22191180368347L69.868,82.40594225531014L70.016,77.44707144144293L70.506,88.18607840018768L70.664,85.46089843302205L70.782,75.52352589856272L71.62400000000001,61.21379224354436L71.694,55.42038013531555L71.842,76.48792242829846L72.132,78.59655363114727L72.30999999999999,79.20121656763924L72.606,76.8223830941393L72.94,60.84574644038949L73.594,61.36995313669026L73.596,71.7325231984117L73.658,58.91221873831756L74.28399999999999,66.05328277017736L74.30799999999999,69.65481027097567L74.316,85.15252216962188L74.318,87.27241991089963L74.548,66.2979669868012L75.01,47.526304085709576L75.206,42.38845627628101L75.24000000000001,56.574084091064236L75.27600000000001,59.934988207062524L75.65,61.79094125416309L75.832,57.21944978842141L75.93599999999999,56.427549400553524L76.87599999999999,57.17288395595363L76.902,31.27550989714918L77.086,51.25527223543918L77.144,63.325009867273224L77.94,42.95294722089231L77.992,57.978523807170895L78.124,36.30050350385908L78.402,54.91285517565353L78.526,52.433083101054294L78.94200000000001,48.52449015102915L78.974,70.2437539911738L79.12199999999999,53.94593730071015L79.22200000000001,36.60839154847332L79.658,42.897253044754365L80.01,40.858508496469305L80.062,49.771337196052315L80.184,57.2953170941337L80.348,71.3327940331395L80.48599999999999,64.07685011612918L80.654,55.464812549448716L80.918,52.50617384122756L80.94000000000001,50.532023227596866L81.224,54.52164953901874L81.412,48.449532942841394L81.44,38.52264569300328L82.812,58.24403736479401L82.886,65.60935397012848L83.39200000000001,64.29010355595756L83.616,61.401618852673344L83.76,57.425219554663414L83.872,54.737769914756946L83.89,44.74871519221877L84.008,40.70661445098103L84.348,42.294751223035306L84.414,49.90586679260679L84.87,35.55166828254737L85.084,40.34635843663486L85.31400000000001,51.36686120782879L85.524,61.57668424374894L85.788,48.51504182567701L85.804,34.554606504315565L86.068,42.38045437587338L86.30399999999999,43.702910024925046L86.358,39.15412952499966L86.36200000000001,47.52837971106737L86.542,36.93378483805401L86.682,26.61752623904892L86.75,32.69328708829546L86.806,47.956018018445306L87.456,34.743679034202984L87.474,37.10544093612498L87.49799999999999,47.02386264898582L87.536,41.693638360745105L87.57,29.402831576017377L87.678,44.584029551253536L87.70200000000001,51.549369669926286L87.75200000000001,34.196328241382744L87.82600000000001,28.016738202851425L88.03399999999999,-2.257575134995124L88.07199999999999,19.032881949293788L88.282,46.420263131826054L88.724,32.17830356892367L88.76599999999999,52.603211272235406L88.87599999999999,64.19162358210171L89.05000000000001,59.369809359788704L89.198,62.49705779495909L89.56599999999999,43.17056318998466L90.666,37.38212203482295L90.708,45.421964914880945L90.72399999999999,42.98178855172049L90.75399999999999,34.65240353613138L90.966,18.84896963654523L91.146,35.37354578012223L91.542,35.76969978982889L91.556,38.57714849916766L91.698,41.08606276806224L91.906,46.138340825074216L91.94,50.70938391682361L92.074,40.5595451341169L92.49199999999999,45.0900055086841L92.55,38.84317436059553L93.258,46.852671415194145L93.318,36.11325567569819L93.534,31.45184859824644L93.638,34.109438133535406L93.7,32.92544157045941L93.81400000000001,30.236594969174718L94.40400000000001,33.9152986781078L94.91,29.753587089555097L94.97800000000001,37.61419808677578L95.528,40.26226600466646L95.75200000000001,47.069268270228L96.384,40.85228334045887L96.878,52.63307251183931L96.91,34.51367564843483L97.44,45.09049776871269L97.68,37.621294867783696L97.962,49.31503087814611L98.01,33.60996111950855L98.592,35.35061507655133L99.404,46.90355291760872L99.46,23.675249971303234L99.562,24.603454349847397L99.756,19.17461996665022L99.81800000000001,26.175220392204107L99.828,23.562605445248565L100.03999999999999,16.963218495900172L100.592,6.694552523713709L101,16.169836132845678L101.294,24.856722707735642L101.32600000000001,19.70304194231627L101.334,19.52090335741944L101.4,21.72402831314899L101.44,13.223941202497704L101.58600000000001,24.459133251118093L102.08,25.222280400587177L102.488,23.317650992798118L102.542,26.76598977649991L102.682,21.26883066486757L103.078,25.598044451253855L103.11,36.834220211270946L104.026,30.923374561236987L104.268,31.668905543801376L104.48800000000001,28.027891616533573L104.9,27.960124099558815L104.936,17.664793854964113L105.35600000000001,9.390275424045079L105.96199999999999,28.487572542024708L106.556,30.58452432311871L107.036,28.93885907335033L107.106,29.128396277445223L107.214,36.245066543453405L107.278,24.41973791975932L107.422,34.597953313771434L107.476,34.40947334760301L107.48400000000001,34.810599474870386L107.61,28.098750284854212L107.986,18.952987064702608L108.146,18.90955757826423L108.39999999999999,12.187816815809695L108.41399999999999,15.542898595388799L108.50200000000001,32.903492878197994L108.608,44.95519933464153L109.17,39.98262075827306L109.604,38.09880791878742L109.632,47.9547224550863L109.928,46.30572594545515L110.208,38.68800836750065L110.62,30.54262038097836L110.638,21.26227397593634L110.744,29.41354399077335L111.014,31.704937291201254L111.31599999999999,39.188826883213345L112.066,40.64485370351901L112.17999999999999,39.725978836534864L112.33800000000001,47.2514132547233L112.41,37.296577045023255L112.636,28.454720388216508L112.668,37.1253714180452L112.826,25.315881501906563L112.998,22.266855103536532L114.482,23.8740939003526L114.60199999999999,28.303763760124756L114.642,24.80980557466966L114.978,33.563965647440284L115.17,37.43039375570397L115.276,44.05726399608071L115.338,37.91205662839183L115.41000000000001,24.21648190401957L115.488,22.22902762028216L115.76400000000001,14.461214574684803L115.894,12.229431212593031L115.94000000000001,34.66461299696501L116.152,47.27642720075386L116.362,54.83239901399916L116.45400000000001,55.881689594774706L117.044,39.385165855384294L117.68799999999999,37.80023498838929L117.964,41.060640328731346L118.544,29.3903664414579L118.65199999999999,18.374298491235L118.702,37.14584066417291L118.954,41.150857146829665L119.116,37.48450562219551L119.238,35.241216559090915L120.012,47.523182958547615L120.112,45.65082073137507L120.298,30.71101001967484L120.33000000000001,37.07218218912949L120.38999999999999,40.86443355380797L120.536,38.774438417720056L121.25800000000001,23.1955127798975L121.638,29.559081545763533L121.95800000000001,24.574561658846775L122.26799999999999,38.65748707596167L122.454,34.39999990548914L122.564,27.587699530979208L122.684,25.09700185479616L123.5,22.43712531920269L123.596,21.85183123160425L123.612,32.18856267917428L123.908,40.239495939457335L124.002,37.979235310648825L124.134,34.162427944376184L124.474,33.64608558731753L124.584,28.84227217693188L124.70599999999999,22.65535548602975L125.02,37.77693616912031L125.056,26.91251305252899L125.364,22.116924967573468L125.60400000000001,27.54669570952182L125.812,22.555019596820777L125.878,27.295073122402584L126.184,20.0365487366356L126.214,39.50668772804791L126.936,39.30638368916208L127.41199999999999,25.87579900872865L127.426,21.233424792941214L127.434,23.880875828588902L127.442,24.415067667541713L127.724,34.84567500211895L127.812,44.97464357734298L128.144,39.05321327315403L128.174,32.29067664509711L128.216,35.05002433586113L128.246,23.31122840276442L128.482,13.410329649974285L129.294,20.900523193470548L129.382,29.649469271263357L129.614,29.696892294264405L129.874,29.718401179214574L129.964,21.247497175293443L130.386,11.782656439636535L130.598,21.722679953869832L130.604,21.227066229724606L130.656,17.497034282054756L130.718,21.923096346341175L131.076,16.85819122215492L131.08599999999998,18.174707224660857L131.102,17.99399067630563L131.426,14.656108545994236L131.532,11.313020056839376L131.932,19.8702108301852L132.182,25.946660355729136L132.608,25.305145765374046L132.674,27.234984208448445L133.01399999999998,29.951927343873116L133.042,25.54701033993068L133.216,26.28900157923746L133.57399999999998,27.675270353561377L133.64000000000001,26.142633002454907L133.998,24.826948503952742L134.59799999999998,27.749240560370765L134.61,35.38810539426692L134.968,28.281794807975675L135.51999999999998,27.61315456728054L136.59,30.132735005361152L136.88,27.744025545409396L137.112,48.268976891009956L137.282,47.79956351584903L137.438,21.69756225523525L137.49200000000002,29.643790322065545L137.526,39.60040181557121L138.06,46.481996157985485L138.528,27.91340607698911L138.62199999999999,22.04556303030516L138.864,20.38243275509896L139.28,41.55194759316647L139.34,37.97518938578182L139.474,30.853816370094798L140.172,29.1503630348167L140.358,24.864439731639163L140.37,21.77272745886961L140.41400000000002,30.042646757565752L140.59400000000002,20.93033830630946L140.95000000000002,9.634216725960085L142.244,15.275909251906475L142.41,23.222621705580245L142.55200000000002,22.70383414755032L142.876,26.818591294891803L143.068,35.83354742590445L143.36,18.209049656431194L144.27800000000002,14.333470358259522L144.43800000000002,23.204602031763052L145.03199999999998,13.267343204531446L145.094,21.18500695988056L145.10999999999999,20.83747280712776L145.74800000000002,28.83730358696923L146.04799999999997,25.235887864418224L146.44,23.705061637870916L146.716,23.98727899147676L146.85600000000002,32.70657642013282L146.85799999999998,33.48398376472098L147.026,28.60032506565635L147.342,38.48933513033625L147.73,26.20438421920167L147.97600000000003,17.910292765146142L148.19600000000003,19.810836657840838L148.45,20.88926149221078L149.02200000000002,21.14520597260574L149.042,28.46422711662708L149.37400000000002,15.213302003967616L149.778,9.906136365736828L150,10.26510109935807L150.108,9.058722786428481L150.49,27.70583362291998L150.58399999999997,23.431879183543753L150.75,18.400646089336792L150.9,15.260201177575798L150.96200000000002,23.423401530389317L151.20200000000003,14.164397766814103L151.286,4.982645446434937L151.418,15.781757969569083L151.814,17.89205740625322L152.098,17.607516444702338L152.596,13.420018643894869L153.294,14.259255964016376L153.574,21.808199588672494L153.89600000000002,13.704969270698856L153.952,9.1878299173039L154.042,21.57828128843865L154.88,16.579007407227184L154.94799999999998,17.485459155814393L155.026,22.66381626715284L156.526,18.21568840378539L156.562,23.930787668430927L156.75600000000003,32.74379480401355L156.858,50.018341309375224L157.024,33.62452360952131L157.18,22.33123273402423L157.858,27.123411726312813L157.976,19.17091189959207L158.342,13.43254769016157L158.37,19.385849098803234L158.91,14.143702430647748L158.952,16.140362584748914L159.32399999999998,10.886664461162532L159.438,19.690851975974713L159.596,13.43266513913709L159.83,26.67886651991848L160.916,21.253572217118165L160.924,14.979545990095806L160.986,12.01112038035595L161.16000000000003,17.072604393086948L161.31199999999998,20.845705487545462L161.82999999999998,19.731437002549267L161.992,19.798978083858145L162.62800000000001,24.129684301334162L162.856,11.755986861230873L163.108,18.2914371016105L163.16,31.34527662700721L163.392,38.47889156268677L163.7,34.67580237208648L163.812,28.562663108563328L163.91400000000002,43.125386583225314L163.95800000000003,31.125463120589504L164.024,30.654494012010847L164.074,8.400086810954072L164.394,11.096232604586557L164.54999999999998,15.687627688580248L164.594,25.260938009937696L164.59799999999998,38.24633881783837L164.802,45.18412471273496L164.808,35.00583165987278L165.116,30.884418220798963L165.44600000000003,28.48739768780691L165.74599999999998,12.452910242780575L166.018,15.24800227098227L166.358,33.735305999081454L166.636,26.801546660536342L167.578,13.778802242646673L167.588,14.165428560749971L167.68200000000002,19.71310835671715L167.80200000000002,18.609428881871775L167.848,25.51779650235829L168.02200000000002,27.99093396841852L168.374,22.784004473393008L168.388,14.678451872377256L169.73000000000002,11.133004961316962L169.802,26.874158573604994L170.27999999999997,22.617000462940933L170.34199999999998,22.06761974405577L170.93800000000002,25.080961752090577L170.974,10.120363904499674L171.134,14.712201765115394L171.258,15.353875820683344L171.394,15.995336220428678L171.856,21.44582668375605L172.112,26.36027258125497L172.19799999999998,33.117124334755076L172.436,31.683125934471207L172.862,27.839795552857147L172.964,31.216931470987785L173.252,38.19509197825222L173.346,39.243061299731266L173.41,38.767490690884365L173.57999999999998,16.8213010704144L173.812,26.67495334939763L173.82600000000002,34.18798698831987L173.84799999999998,29.898656151078175L174.396,30.502531398166468L174.648,23.380224735549938L174.92,20.87266124121487L175.06,18.342347507668364L175.286,17.2950881408751L175.604,17.2191799079495L175.80200000000002,18.88200306522695L176.27,13.362628777874304L176.416,14.097438062971799L176.53,19.65147927149892L177.55,27.010961984918232L177.686,22.304089681359713L177.84,19.48802048754422L177.868,7.986412279556573L177.946,13.34316237562493L178.01000000000002,13.86563050283293L178.618,16.96422076287705L178.836,16.624702079330092L179.194,30.567907394906385L179.24,19.583848118235707L179.624,10.367276930481255L179.674,24.919222961637853L179.95,33.413382826142204L179.996,26.357000800988374L180.06199999999998,33.354845712112436L180.07,25.589031795662617L180.2,19.582022276947626L180.32999999999998,15.958693897043636L180.702,4.088394591399986L180.78,9.983302535697621L180.81199999999998,15.539087478994812L181.1,16.960568892338983L181.152,16.893206438988745L181.226,22.095679733667392L181.652,19.41342171043968L181.734,21.261291061193393L181.892,17.727255392113292L181.992,7.3840382317367L182.03,13.943803507410124L182.234,27.539600531395756L182.762,15.631105463926744L182.988,22.905344606175877L183.058,23.568880044149015L183.90400000000002,6.8289907369517255L184.16,17.937489798703538L185.472,19.06619082495751L185.54,18.521236591880868L185.662,16.00714197954262L185.698,27.053115083834996L185.848,20.29929202611364L186.15,17.667790771131717L186.254,27.45243339234037L186.534,30.220969887677363L187.02,20.570502748210487L187.524,15.814799834220338L187.846,33.37413963781943L187.94199999999998,26.089152547078545L188.32999999999998,17.838814671252518L188.394,16.020726628635646L188.41000000000003,15.239610395494559L188.788,5.233491568194504L188.818,7.40744987887882L188.95,2.681166960800733L189.202,17.290214480505284L189.37199999999999,16.650967440504818L189.48,18.68773897805323L189.636,16.13057900346137L190.04,14.680996682079995L190.104,23.661567832812814L190.178,18.285439605414528L190.338,10.206945406053599L190.64,21.071785837120576L191.01600000000002,27.71181640692675L191.078,22.786021549086005L191.144,21.992286367932532L191.372,19.022851973434594L191.498,24.64050662582449L191.97,31.581082218423372L192.028,24.046116181334746L192.90400000000002,15.69614167186587L193.28400000000002,21.04799081105062L193.298,15.675144121073389L193.56,21.07500007792535L193.58599999999998,23.872463809855997L193.678,26.1899116747599L193.73000000000002,17.877072901309855L194.016,26.97379386045842L194.786,22.415647487408922L194.9,15.438203909053895L195.11200000000002,23.090876133644688L195.24200000000002,25.654307043537806L195.332,23.332094408094648L195.65800000000002,19.75511721876163L196.186,25.489170459975767L196.274,26.37448350331529L196.74800000000002,28.390752729509085L196.882,12.36467183293075L197.348,13.250816747655382L197.53199999999998,12.727260340602824L197.63,25.09577229410081L197.844,22.5872468705924L198.318,2.8920848973449544L198.524,2.5322635127391004L198.69400000000002,14.60339667859248L198.726,22.616336707760595L199.48999999999998,16.375418239953525L199.524,17.784016423468692L199.746,22.352802628390673L199.78400000000002,16.25286643835381L199.94600000000003,18.934830481603612L200.07,21.91949064932245L200.47400000000002,29.21393789207414L200.638,20.823126204940515L200.9,23.544545229582283L201.84,30.483575486639392L202.148,31.294510095842828L202.188,24.465046489808994L202.6,31.241945303509805L202.948,19.030184168407896L203.248,15.19637847044867L203.288,28.545491471198357L203.29399999999998,33.939699215561134L203.418,19.084840949951747L203.464,24.768876317233214L203.47,26.374628838609986L204.018,25.483217661464213L204.18800000000002,25.893435908572034L204.24,24.805320630117276L204.492,-1.4351501986377717L204.618,-6.9161179719222705L205.458,4.031223905044188L205.576,20.489665886649185L205.57999999999998,21.713724990080145L205.642,19.121816847642208L205.784,18.215359665448307L206.25199999999998,9.416641644278913L206.446,18.744802665836374L206.942,16.318280852257118L207.802,19.206227845373512L208.12199999999999,25.961698803302177L208.76,33.36533080432891L208.84799999999998,26.996450189401944L209.072,22.412674735746315L209.56799999999998,19.39097849431473L209.782,22.569893618413268L210.06,16.773592422682867L210.114,25.807800345076163L210.368,22.223742557182646L210.642,8.998738659135203L210.75400000000002,10.648136020471558L210.81799999999998,25.745854824388807L210.96,13.967071092744728L211.034,9.698245465443858L211.72,12.50041253718345L211.898,15.660066280593446L211.944,30.047108837264755L212.064,26.852771626037025L212.60199999999998,19.446154814349928L212.76199999999997,12.613611489509795L212.93,-3.75104468466326L213.01000000000002,16.139397687732814L213.07000000000002,10.926404693223535L213.20000000000002,23.944326585487172L213.26399999999998,25.491031212609972L214.036,30.203642325828245L214.31199999999998,24.88396345041555L214.452,11.82798189540979L214.59199999999998,24.063778422851147L214.832,8.419048990356236L214.92,17.526773888624668L215.192,25.25668546398187L215.306,25.652064597502722L215.484,28.11324879878486L215.59199999999998,23.05897716579785L215.752,23.90158802720958L215.972,19.168954015775572L215.992,15.347703093037332L216.27800000000002,26.327543517199327L216.424,23.36390385472182L216.808,22.29649011927315L216.94799999999998,28.734684723157766L217.04600000000002,20.976131170372796L217.082,20.62176680102216L217.21,16.00336248256474L217.50799999999998,19.50110686680587L217.98,7.053539734249763L218.10999999999999,4.341733144705528L218.54,12.238124020516496L219.012,6.045412194161584L219.054,16.278976123673818L219.22400000000002,15.44239087854127L219.228,19.611024955068387L219.768,11.518536327062375L220.568,17.76634460725515L220.646,11.38165495248092L220.978,12.103760479314115L221.132,15.697099051216757L221.178,19.66920108875013L221.50199999999998,20.311166088038348L221.716,15.865773299913439L221.78,15.840733396757127L221.834,21.207751999092064L221.85199999999998,19.969620267709978L221.994,11.699113556412808L222.144,11.909515520562042L222.31,13.10983335157848L222.46800000000002,22.155100766475133L222.67000000000002,18.980291632719204L222.71,24.114091542393115L222.862,9.66989250772439L222.976,6.199566441393527L222.99800000000002,9.81011451170413L223.382,19.541110646894097L223.846,8.70023186251046L223.886,11.714235982479122L224.6,16.86700752533084L224.614,11.8948122825761L224.95,10.368302477817716L225.01799999999997,6.844407011266004L225.082,13.284497900040535L225.19,17.13439731790517L225.37,17.319803655962637L225.76,16.961288130772434L225.822,22.05613155155917L225.932,33.166502493557545L226.002,41.458441268168215L226.022,30.366825123798545L226.412,20.285304708242588L226.63400000000001,17.075747042104265L226.924,17.526914341486616L227.03400000000002,20.283790735062563L227.458,16.038898828506145L227.894,25.477813678141818L228.55200000000002,19.425236417574123L228.668,11.40192685093686L229.408,13.61713750955333L229.61599999999999,24.98993319662819L229.64399999999998,25.963412339982707L229.68200000000002,5.905820879636593L229.76399999999998,8.084159353212677L229.79199999999997,8.382893808556775L229.822,7.677500055101328L229.848,3.8248193537395156L229.926,6.8351243796212815L230.006,14.751614952392597L230.024,16.878219165985122L230.138,11.869611885725636L230.186,12.91112251844191L230.526,11.774090802978867L230.53,18.0165204673307L230.868,22.845664481478718L231.22,25.550983744102258L231.404,24.668647532860103L231.548,21.02990711385846L231.576,12.9335261758599L231.962,5.522061743353406L232.42,12.535895176112872L232.534,14.162007991898212L232.78,18.00852358775455L233.132,18.528294623800548L233.332,13.565254697319324L233.538,9.504588527663708L234.20600000000002,12.301060085832164L235.528,20.40326746509529L235.608,27.392151554518442L235.674,25.849875065314333L236.042,30.407807814086624L236.898,27.711910417168117L237.172,22.366223246150515L237.72,25.618052946844532L238.196,20.712576844967426L238.48399999999998,23.990584973840992L238.486,20.398806250984666L238.60199999999998,17.465943157525306L238.994,19.88058571295744L239.00199999999998,12.22524472469744L239.16,4.322347476450572L239.644,11.045915000828295L240.126,12.266238014386822L240.38199999999998,18.238790583900638L240.448,9.24971004435373L240.612,11.66009500091644L240.836,14.662122666203649L240.95600000000002,8.428960873020202L241.172,12.132508321602657L241.244,11.732371519974029L241.28199999999998,10.300751854419577L241.474,11.35156314595078L241.542,9.980246522737204L241.56199999999998,17.651333619099752L241.912,31.96368366842555L242.38799999999998,27.10978676638908L242.47,24.27820753738998L242.64600000000002,27.11680643030581L243.09,37.59675222965658L243.162,38.320059296342365L243.39600000000002,34.07328206283437L243.774,31.75883541267102L243.82999999999998,32.77965984712916L244.676,19.398677503889093L244.94,20.9607816398805L245.328,12.072597515793005L245.40599999999998,11.824399819159435L245.80399999999997,4.480776055479709L246.64399999999998,23.583378870723312L246.926,14.477099711219184L247.178,20.978588565897766L247.48200000000003,9.264544845732846L247.96,21.30175688333084L248.584,14.91450733565207L248.596,10.426476746252996L248.918,8.903336331347298L248.934,12.17189079656751L249.406,21.979189473341105L249.64,22.22250199195756L250.192,10.961214780074407L250.298,12.744245276692471L251.012,14.147034330104143L251.036,9.61559957951653L251.51999999999998,18.421992842497506L251.53,20.504940030318902L251.544,30.841062598687984L251.756,22.77387341540527L252.078,26.362497068107412L252.25799999999998,14.658187055300159L252.63,18.86162036197304L252.774,23.253192495242555L252.90599999999998,17.857434819132102L253.248,14.44613996317819L253.34599999999998,11.533429290733906L253.422,14.841072060480712L253.49,18.088935457357795L253.56599999999997,8.862117544142107L253.644,16.65893978623779L253.77,14.666199884446712L253.87599999999998,28.175140610032926L253.954,21.770933016270877L254.032,14.871132619799374L254.06,19.145250713258875L254.09400000000002,18.791718078341592L254.31,9.034722194399652L254.35,25.140667004013384L254.418,23.904107773165187L254.53400000000002,16.9059729428821L255.27,26.414211305227752L255.372,15.935661525873488L255.65,16.81637343333765L255.834,22.232125455963793L255.882,32.81006815295539L256.322,22.8477535110098L256.38,23.911690635593224L257.302,22.693393702318048L257.816,21.408822724228965L257.874,17.754379289749803L257.996,24.02802761297779L258.604,24.042762857939127L258.894,20.896387787874847L258.94,20.51621516479033L259.098,24.497534247407625L259.958,22.03819867246365L259.988,18.38644727801521L259.998,15.8094947177569" style="fill: none;" fill="none"></path></g></g></g></g><g opacity="0.2"><g><g><g><path stroke="rgb(255, 112, 67)" stroke-width="2px" d="M20.334,-142.43184573309762L20.458000000000002,41.301130158560625L20.468,215.23957100936346L20.947999999999997,-120.69705186571395L21.072,164.14317635127478L21.157999999999998,92.79838044302805L21.172,-517.3101224899291L21.428,301.905301209007L21.616,52.36424507413592L22.028,108.68293082714081L22.665999999999997,-84.42722123009818L23.382,223.82911266599382L23.468,36.30656882694792L23.474,67.86825616019114L23.754,99.3853018283844L23.834,299.7522074793066L24.072,174.45722462449757L24.398,152.4851909024375L24.613999999999997,320.54097144305706L27.34,247.55537392411912L27.482,88.98952102661133L27.628,285.1520431637764L30.69,188.2548600605556L30.717999999999996,151.599411044802L31.445999999999998,125.12611995424544L31.616,94.50549459457397L31.728,101.85337400436401L31.814,205.7581606251853L31.98,141.84130372319905L32.4,200.09083945410592L32.437999999999995,168.53213626997814L32.577999999999996,221.85475138255526L33.422,200.6516635588237L33.708,172.23151659965515L33.932,197.53194665908813L34.31,86.13242432049344L34.763999999999996,100.57193817411151L34.92,169.86568920952934L34.926,204.4478780201503L35.022,119.6345169373921L35.596,201.35910282816207L35.982,177.9017917769296L36.132000000000005,145.19477897030967L36.36,148.11986303329468L36.44199999999999,186.8309989316123L36.726,221.30022714819228L36.754000000000005,119.1662768125534L36.996,87.16475905690875L37.016000000000005,127.67331729616438L37.202,118.8760758468083L37.756,246.69322611604417L37.870000000000005,113.201851946967L37.986,83.77678523744856L38.519999999999996,109.72278622218542L38.936,135.89516053880965L39.108000000000004,78.2709095478058L39.13399999999999,150.76469329425268L39.396,141.42154848575592L39.68600000000001,135.20386280332295L39.814,89.00995792661398L40.552,103.84856404576983L40.566,117.36915590081897L40.798,74.14021417072843L40.958,126.05286404064725L41.044000000000004,190.59054453032357L41.214000000000006,167.14043763705664L41.56,118.95670815876554L41.803999999999995,114.80703781332289L41.81,126.0744162287031L41.932,80.91727709770204L41.948,74.14570018223355L42.04,100.3538842882429L42.204,170.63650396892L42.838,142.00485920906067L42.944,201.8569131578718L43.064,146.06734115736828L43.132000000000005,152.8697844232832L43.37,146.2881681919098L43.518,121.83722591400146L43.938,90.03409378869193L43.948,78.27708884647916L44.328,148.21698352268766L44.580000000000005,103.06686769212996L45.342,84.5923320906503L45.754000000000005,103.82375642231534L45.878,130.44664682660786L46.068000000000005,133.8484411750521L46.122,108.03213010515486L46.804,136.2665514605386L47.092000000000006,142.2127549307687L47.194,101.15384725161962L47.239999999999995,83.06999404089792L47.62,92.22607188565391L48.16,122.92760084356581L48.442,41.988660029002624L48.588,90.22589319092887L48.675999999999995,81.0464997972761L48.894,35.64384657996043L49.275999999999996,91.28692398752486L49.336,116.27531453541349L49.374,112.59209081104825L49.558,102.81318487439837L49.618,132.70585870742798L49.746,90.72505995205472L49.784000000000006,116.9825428043093L50.946,153.89149378027236L51.014,122.40142602579935L51.48,107.31566303116935L51.528,79.38399716785977L52.232,76.76912896973747L52.498000000000005,72.76774672099523L52.641999999999996,146.32129526138306L53.617999999999995,115.22759183815549L53.714,66.13428466660638L54.132,110.82267124312266L54.194,45.290515525000444L54.634,116.14250482831683L54.678000000000004,41.72322147233148L55.086,113.60317478861128L55.114,42.894394499914995L55.172,136.3976731640952L56.902,89.02011609077454L58.232000000000006,71.76003875051227L58.338,24.142664602824645L59.062,66.44273717062815L59.28,77.76984378269742L59.308,75.57179188728334L59.462,79.22541526385717L59.692,59.952544416700114L59.99,67.44737056323461L60.106,30.08380406243463L60.124,71.20344972610475L60.275999999999996,56.64966406141009L60.488,85.41010951995851L60.504000000000005,91.6769130911146L60.646,77.24451296670097L60.879999999999995,36.058432306562175L61.078,80.813917023795L61.08,55.01483263288226L61.156000000000006,49.342236450740295L61.558,46.96950633185252L61.564,55.03644510677885L61.662,68.67566442489625L61.71,85.1279114995684L62.160000000000004,65.45007051740374L62.288,83.59212970733644L62.464,111.14520049095154L62.638,96.98239864621844L62.782,71.41577645710538L63.046,85.43208370889937L63.696,109.07358307497843L64.49,94.05014056818827L64.584,79.95806908607484L64.66,72.38460006032672L64.71600000000001,107.66265325886863L64.944,13.022730282374816L65.67999999999999,60.433263710566955L66.276,55.199126447950114L66.296,77.8170475959778L66.384,69.43128715242659L66.436,91.88004623140608L66.572,72.28238541739329L66.722,80.2881340639932L66.854,78.5056324686323L67.08,44.328594650541056L67.34,33.908548797879924L67.362,23.635208538600402L67.402,80.78663768087115L67.876,100.16096959795271L68.158,67.21074863842557L68.294,8.484472479139079L68.56400000000001,56.134310552052106L68.568,43.64516421726774L68.644,61.71385553904944L68.69,126.0925019809178L69.242,44.44310760498049L69.438,97.30078324249814L69.454,120.0193968159812L69.802,69.72653705733164L69.868,78.18198793275016L70.016,70.0087652206421L70.506,104.2945888383048L70.664,81.37312848227366L70.782,60.61746709687372L71.62400000000001,39.74919176101687L71.694,46.73026197297235L71.842,108.0892358677728L72.132,81.75950043542045L72.30999999999999,80.10821097237724L72.606,73.25413288388934L72.94,36.88079145976477L73.594,62.15626318114146L73.596,87.27637829099383L73.658,39.681762048176374L74.28399999999999,76.76487881796702L74.30799999999999,75.05710152217321L74.316,108.39909001759122L74.318,90.45226652281626L74.548,34.83628760065352L75.01,19.36880973407202L75.206,34.681684562138166L75.24000000000001,77.85252581323897L75.27600000000001,64.97634438105993L75.65,64.57487082481386L75.832,50.3622125898089L75.93599999999999,55.23969881875177L76.87599999999999,58.29088578905379L76.902,-7.570551191057455L77.086,81.22491574287416L77.144,81.42961631502425L77.94,12.394853251321003L77.992,80.51688868658884L78.124,3.7834730488913566L78.402,82.83138268334525L78.526,48.71342498915538L78.94200000000001,42.66160072599141L78.974,102.82264975139074L79.12199999999999,29.49921226501467L79.22200000000001,10.602072920118083L79.658,52.33054528917586L80.01,37.80039167404177L80.062,63.14058024542674L80.184,68.58128694125585L80.348,92.38900944164823L80.48599999999999,53.19293424061369L80.654,42.54675619942804L80.918,48.06821577889581L80.94000000000001,47.57079730715071L81.224,60.50608900615149L81.412,39.34135804857527L81.44,23.63231481824605L82.812,87.82612487248014L82.886,76.65732887813024L83.39200000000001,62.31122793470111L83.616,57.06889179774695L83.76,51.4606206076486L83.872,50.70659545489722L83.89,29.76513310841154L84.008,34.64346333912443L84.348,44.67695638111662L84.414,61.322540146963945L84.87,14.020370517458252L85.084,47.53839366776605L85.31400000000001,67.89761536461968L85.524,76.89141879762923L85.788,28.922578198569173L85.804,13.613953522273498L86.068,54.119226183210124L86.30399999999999,45.68659349850248L86.358,32.33095877511163L86.36200000000001,60.089754990169006L86.542,21.041892528533957L86.682,11.14313834054132L86.75,41.8069283621652L86.806,70.85011441367014L87.456,14.925170557839557L87.474,40.64808378900801L87.49799999999999,61.901495218277L87.536,33.69830192838399L87.57,10.9666213989258L87.678,67.35582651410785L87.70200000000001,61.997379847935285L87.75200000000001,8.166766098567443L87.82600000000001,18.747353145054422L88.03399999999999,-47.66904514176502L88.07199999999999,50.968567575727214L88.282,87.5013349056244L88.724,10.81536422457017L88.76599999999999,83.24057282720294L88.87599999999999,81.57424204690116L89.05000000000001,52.137088026319255L89.198,67.18793044771468L89.56599999999999,14.18082128252305L90.666,28.699460302080443L90.708,57.481729234967936L90.72399999999999,39.321524006979814L90.75399999999999,22.15832601274764L90.966,-4.856181212833944L91.146,60.160409995487775L91.542,36.36393080438887L91.556,42.788321563175764L91.698,44.84943417140418L91.906,53.71675791059222L91.94,57.565948554447736L92.074,25.334786960056864L92.49199999999999,51.88569607053485L92.55,29.472927638462625L93.258,58.86691699709212L93.318,20.004132066454222L93.534,24.459737982068766L93.638,38.09582243646895L93.7,31.14944672584536L93.81400000000001,26.20332506724768L94.40400000000001,39.4333542415074L94.91,23.511019706726096L94.97800000000001,49.40511458260675L95.528,44.23436788150244L95.75200000000001,57.27977166857039L96.384,31.526805945805155L96.878,70.30425626891001L96.91,7.334580353328185L97.44,60.955730949129396L97.68,26.417490516390135L97.962,66.85563489368985L98.01,10.052356481552144L98.592,37.9615960121155L99.404,64.23295967919488L99.46,-11.167204448154989L99.562,25.995760917663596L99.756,11.03136839185445L99.81800000000001,36.676121030535036L99.828,19.643683024815164L100.03999999999999,7.064138071877644L100.592,-8.70844643456592L101,30.38276154654368L101.294,37.88705257007056L101.32600000000001,11.972520794187297L101.334,19.247695480074217L101.4,25.028715746743366L101.44,0.4738105365208526L101.58600000000001,41.31192132404875L102.08,26.36700112479075L102.488,20.46070688111444L102.542,31.93849795205255L102.682,13.023091997419108L103.078,32.091865130833234L103.11,53.68848385129657L104.026,22.057106086186014L104.268,32.78720201764791L104.48800000000001,22.566370725631735L104.9,27.8584728240967L104.936,2.2217984880720008L105.35600000000001,-3.021502222333619L105.96199999999999,57.13351821899416L106.556,33.72995199475972L107.036,26.470361198697795L107.106,29.412702083587668L107.214,46.920071942465654L107.278,6.681744984218078L107.422,49.86527640478953L107.476,34.126753398350324L107.48400000000001,35.412288665771506L107.61,18.030976499829997L107.986,5.2343422344753L108.146,18.84441334860667L108.39999999999999,2.1052056721278882L108.41399999999999,20.575521264757445L108.50200000000001,58.944384302411784L108.608,63.032759019306745L109.17,32.52375289372038L109.604,35.273088659559L109.632,62.73859425953459L109.928,43.8322311810085L110.208,27.26143200056895L110.62,18.324538401195007L110.638,7.341754368373351L110.744,41.64044901302885L111.014,35.142027241843095L111.31599999999999,50.41466127123152L112.066,42.82889393397742L112.17999999999999,38.34766653605872L112.33800000000001,58.53956488200598L112.41,22.364322730473123L112.636,15.191935403006429L112.668,50.13134796278819L112.826,7.601646627698648L112.998,17.693315505981467L114.482,26.28495209557672L114.60199999999999,34.94826854978292L114.642,19.568868296487018L114.978,46.695205756596174L115.17,43.23003591809957L115.276,53.997569356645876L115.338,28.694245576858542L115.41000000000001,3.673119817461303L115.488,19.247846194676004L115.76400000000001,2.8094950062888175L115.894,8.881756169455423L115.94000000000001,68.31738567352296L116.152,66.19414850643705L116.362,66.16635673386712L116.45400000000001,57.45562546593805L117.044,14.640380246298685L117.68799999999999,35.42283868789675L117.964,45.95124833924432L118.544,11.88495561054777L118.65199999999999,1.8501965659005526L118.702,65.30315392357964L118.954,47.15838187081476L119.116,31.984978335244342L119.238,31.87628296443396L120.012,65.94613255773272L120.112,42.84227739061629L120.298,8.30129395212449L120.33000000000001,46.61394044331144L120.38999999999999,46.552810600825744L120.536,35.639445713588195L121.25800000000001,-0.17287567683626381L121.638,39.10443469456266L121.95800000000001,17.097781828471618L122.26799999999999,59.781875201634016L122.454,28.013769149780295L122.564,17.369248969214315L122.684,21.360955340521688L123.5,18.44731051581248L123.596,20.973890100206663L123.612,47.69365985052928L123.908,52.31589582988196L124.002,34.58884436743602L124.134,28.437216894967243L124.474,32.871572051729494L124.584,21.636552061353434L124.70599999999999,13.374980449676533L125.02,60.459307193756125L125.056,10.615878377641968L125.364,14.923542840140218L125.60400000000001,35.691351822444396L125.812,15.067505427769266L125.878,34.40515341077535L126.184,9.148762157985168L126.214,68.71189621516638L126.936,39.005927630833234L127.41199999999999,5.7299219880785515L127.426,14.26986346926011L127.434,27.852052382060485L127.442,25.216355425970907L127.724,50.49158600398474L127.812,60.16809644017901L128.144,30.171067816870565L128.174,22.146871703011676L128.216,39.18904587200712L128.246,5.703034503119364L128.482,-1.4410184792109786L129.294,32.13581350871497L129.382,42.772888387952555L129.614,29.76802682876589L129.874,29.75066450663977L129.964,8.541141169411823L130.386,-2.414604663848838L130.598,36.63271522521975L130.604,20.483645643506755L130.656,11.901986360549946L130.718,28.562189442770833L131.076,9.26083353587561L131.08599999999998,20.149481228419738L131.102,17.722915853772868L131.426,9.6492853505271L131.532,6.298387323107055L131.932,32.70599699020388L132.182,35.06133464404517L132.608,24.34287387984141L132.674,30.129741873059977L133.01399999999998,34.02734204701017L133.042,18.939634834017088L133.216,27.40198843819757L133.57399999999998,29.75467351504736L133.64000000000001,23.843676975795226L133.998,22.85342175619944L134.59799999999998,32.13267864499776L134.61,46.846402645111105L134.968,17.622328928538757L135.51999999999998,26.610194206237814L136.59,33.91210566248213L136.88,24.160961355481852L137.112,79.05640390941076L137.282,47.095443453107585L137.438,-17.455439635685508L137.49200000000002,41.56313242231099L137.526,54.53531905582975L138.06,56.80438767160689L138.528,0.060520955494485995L138.62199999999999,13.243798460279216L138.864,17.88773734228953L139.28,73.3062198502677L139.34,32.610052074704875L139.474,20.17175684656417L140.172,26.595183031899616L140.358,18.435554776872923L140.37,17.13515904971533L140.41400000000002,42.447525705610026L140.59400000000002,7.261875629425068L140.95000000000002,-7.309965644563925L142.244,23.738448040826007L142.41,35.14269038609098L142.55200000000002,21.925652810505472L142.876,32.990727015904035L143.068,49.355981622423464L143.36,-8.227696997778729L144.27800000000002,8.520101411002054L144.43800000000002,36.51129954201837L145.03199999999998,-1.6385450363158787L145.094,33.061502592904255L145.10999999999999,20.316171577998595L145.74800000000002,40.837049756731325L146.04799999999997,19.833764280591716L146.44,21.408822298049948L146.716,24.410605021885477L146.85600000000002,45.7855225631169L146.85799999999998,34.65009478160315L147.026,21.274837017059347L147.342,53.32285022735598L147.73,7.776957852499857L147.97600000000003,5.469155584062865L148.19600000000003,22.661652496882873L148.45,22.506898743765706L149.02200000000002,21.52912269319808L149.042,39.44275883265906L149.37400000000002,-4.663085665021607L149.778,1.9453879083906043L150,10.803548199789896L150.108,7.249155317034057L150.49,55.67649987765723L150.58399999999997,17.02094752447947L150.75,10.853796448026408L150.9,10.549533809934367L150.96200000000002,35.66820205960958L151.20200000000003,0.2758921214512725L151.286,-8.789983034133872L151.418,31.980426754270304L151.814,21.057506561279318L152.098,17.180705002376037L152.596,7.138771942683654L153.294,15.518111944198628L153.574,33.13161502565657L153.89600000000002,1.5501237937382597L153.952,2.412120887211405L154.042,40.16395834514075L154.88,9.080096585410013L154.94799999999998,18.84513677869527L155.026,30.43135193416052L156.526,11.54349660873415L156.562,32.50343656539919L156.75600000000003,45.96330550738745L156.858,75.9301610674177L157.024,9.033797059740357L157.18,5.391296420778564L157.858,34.311680214745685L157.976,7.242162159511047L158.342,4.825001376015828L158.37,28.315801211765848L158.91,6.280482428414509L158.952,19.135352815900553L159.32399999999998,3.0061172757830192L159.438,32.89713324819295L159.596,4.045384883880635L159.83,46.548168591090636L160.916,13.115630762917682L160.924,5.568506649562316L160.986,7.558481965746215L161.16000000000003,24.664830412183512L161.31199999999998,26.505357129233236L161.82999999999998,18.060034275054953L161.992,19.90028970582147L162.62800000000001,30.62574362754824L162.856,-6.8045592989240316L163.108,28.094612462180013L163.16,50.9260359151023L163.392,49.17931396620616L163.7,28.971168586186014L163.812,19.392954213278646L163.91400000000002,64.96947179521834L163.95800000000003,13.125577926635762L164.024,29.948040349142904L164.074,-24.981523990631064L164.394,15.140451295035238L164.54999999999998,22.57472031457086L164.594,39.6209034919739L164.59799999999998,57.72444002968927L164.802,55.590803555079894L164.808,19.73839208057951L165.116,24.702298062188312L165.44600000000003,24.891866888318766L165.74599999999998,-11.598820924758872L166.018,19.44064031328475L166.358,61.46626159123014L166.636,16.400907652718708L167.578,-5.755314384187948L167.588,14.74536803790503L167.68200000000002,28.034628050667926L167.80200000000002,16.953909669603636L167.848,35.88034793308805L168.02200000000002,31.70064016750883L168.374,14.973610230854593L168.388,2.5201229708535555L169.73000000000002,5.814834594726582L169.802,50.48588899203711L170.27999999999997,16.231263296944782L170.34199999999998,21.243548665727904L170.93800000000002,29.60097476414274L170.974,-12.320532866886678L171.134,21.59995855603902L171.258,16.31638690403532L171.394,16.95752682004659L171.856,29.62156237874715L172.112,33.73194142750334L172.19799999999998,43.252401965005085L172.436,29.53212833404543L172.862,22.074799980436076L172.964,36.282635348183796L173.252,48.662332739148844L173.346,40.81501528194975L173.41,38.054134777614074L173.57999999999998,-16.09798336029049L173.812,41.45543176787242L173.82600000000002,45.45753744670325L173.84799999999998,23.46465989521574L174.396,31.40834426879885L174.648,12.696764741625122L174.92,17.11131599971228L175.06,14.546876907348652L175.286,15.72419909068518L175.604,17.105317558561076L175.80200000000002,21.376237801143127L176.27,5.083567346845377L176.416,15.199651990618042L176.53,27.982541084289572L177.55,38.0501860550472L177.686,15.24378122602193L177.84,15.263916696820964L177.868,-9.266000032424888L177.946,21.378287519727458L178.01000000000002,14.649332693644958L178.618,21.612106152943216L178.836,16.1154240540096L179.194,51.482715368270895L179.24,3.107759203229654L179.624,-3.4575798511504736L179.674,46.74714200837274L179.95,46.154622622898664L179.996,15.772427763257731L180.06199999999998,43.851613078798586L180.07,13.940310920987834L180.2,10.571507998875223L180.32999999999998,10.523701327187702L180.702,-13.71705436706539L180.78,18.825664452144103L180.81199999999998,23.87276489394053L181.1,19.092791012355285L181.152,16.79216275896346L181.226,29.899389675685363L181.652,15.390034675598164L181.734,24.033095087323893L181.892,12.426201888493143L181.992,-8.130787508828288L182.03,23.783451420920247L182.234,47.9332960673741L182.762,-2.2316371372767745L182.988,33.81670331954958L183.058,24.564183201108683L183.90400000000002,-18.28084322384424L184.16,34.60023839133128L185.472,20.75924236433848L185.54,17.70380524226599L185.662,12.236000061035176L185.698,43.62207474027364L185.848,10.168557439531616L186.15,13.720538888658814L186.254,42.12939732415338L186.534,34.37377463068282L187.02,6.0948020390102124L187.524,8.681245463235065L187.846,59.71314934321814L187.94199999999998,15.161671910967163L188.32999999999998,5.463307857513447L188.394,13.293594564710368L188.41000000000003,14.067936045782938L188.788,-9.775686672755617L188.818,10.668387344905334L188.95,-4.408257416316408L189.202,39.20378576006209L189.37199999999999,15.692096880504089L189.48,21.742896284375895L189.636,12.294839041573688L190.04,12.506623200007873L190.104,37.13242455891203L190.178,10.221247264317117L190.338,-1.9107958929879156L190.64,37.36904648372107L191.01600000000002,37.671862261635944L191.078,15.397329262324767L191.144,20.80168359620233L191.372,14.568700381687723L191.498,33.06698860440938L191.97,41.99194560732161L192.028,12.743667125701924L192.90400000000002,3.171179907662556L193.28400000000002,29.075764519827718L193.298,7.615874086107543L193.56,29.174784013203226L193.58599999999998,28.068659407751912L193.678,29.66608347211568L193.73000000000002,5.407814741134663L194.016,40.618875299181276L194.786,15.578427927834674L194.9,4.9720385415213615L195.11200000000002,34.569884470530944L195.24200000000002,29.499453408377523L195.332,19.84877545492991L195.65800000000002,14.389651434762165L196.186,34.09025032179698L196.274,27.702453068324523L196.74800000000002,31.415156568799723L196.882,-11.674449511936727L197.348,14.580034119742288L197.53199999999998,11.941925730024089L197.63,43.64854022434782L197.844,18.82445873532979L198.318,-26.650658062526123L198.524,1.9925314358302806L198.69400000000002,32.71009642737254L198.726,34.63574675151282L199.48999999999998,7.014040538242899L199.524,19.896913698741393L199.746,29.2059819357736L199.78400000000002,7.1029621532985425L199.94600000000003,22.957776546478293L200.07,26.396480900900716L200.47400000000002,40.155608756201616L200.638,8.236908674240132L200.9,27.6266737665449L201.84,40.8921208722251L202.148,32.51091200964793L202.188,14.220851080758258L202.6,41.407293524060954L202.948,0.712542465754943L203.248,9.445669923509888L203.288,48.569160972322756L203.29399999999998,42.03101083210539L203.418,-3.1974464484623217L203.464,33.29492936815535L203.47,28.78325762067525L204.018,24.14610089574544L204.18800000000002,26.508763279233683L204.24,23.173147712435057L204.492,-40.79585644177026L204.618,-15.137569631848999L205.458,20.452236720493875L205.576,45.177328859056765L205.57999999999998,23.549813645226642L205.642,15.23395463398527L205.784,16.85567389215743L206.25199999999998,-3.7814353874751387L206.446,32.73704419817244L206.942,12.678498131888285L207.802,23.538148335048156L208.12199999999999,36.094905240195146L208.76,44.470778805868974L208.84799999999998,17.443129267011393L209.072,15.537011555263L209.56799999999998,14.858434132167297L209.782,27.338266304561095L210.06,8.079140629087199L210.114,39.359112228666056L210.368,16.847655875342245L210.642,-10.838767187935954L210.75400000000002,13.122232062476053L210.81799999999998,48.392433030264726L210.96,-3.701104504721477L211.034,3.295007024492553L211.72,16.703663144792845L211.898,20.399546895708372L211.944,51.62767267227175L212.064,22.061265809195394L212.60199999999998,8.336229596819214L212.76199999999997,2.3647965022496122L212.93,-28.298028945922812L213.01000000000002,45.97506124632701L213.07000000000002,3.1069152014596346L213.20000000000002,43.47120942388265L213.26399999999998,27.81108815329417L214.036,37.27255899565562L214.31199999999998,16.904445137296428L214.452,-7.755990437098879L214.59199999999998,42.41747321401326L214.832,-15.048045158386191L214.92,31.188361236027323L215.192,36.851552827017656L215.306,26.245133297784015L215.484,31.80502510070803L215.59199999999998,15.47756971631734L215.752,25.16550431932723L215.972,12.070002998624553L215.992,9.61582670892991L216.27800000000002,42.797304153442404L216.424,18.918444361005534L216.808,20.695369516100218L216.94799999999998,38.39197662898474L217.04600000000002,9.33830084119527L217.082,20.090220246996214L217.21,9.075756004878478L217.50799999999998,24.747723443167562L217.98,-11.617810964584312L218.10999999999999,0.274023260389078L218.54,24.08271033423289L219.012,-3.243655545370891L219.054,31.62932201794218L219.22400000000002,14.187513010842487L219.228,25.86397606985911L219.768,-0.6201966149466154L220.568,27.13805702754431L220.646,1.804620470319498L220.978,13.186918769563965L221.132,21.08710690907072L221.178,25.62735414505007L221.50199999999998,21.274113586970763L221.716,9.197684117725931L221.78,15.803173542022725L221.834,29.258279902594442L221.85199999999998,18.11242267063688L221.994,-0.7066465105329185L222.144,12.22511846678599L222.31,14.910310098103128L222.46800000000002,35.72300188882013L222.67000000000002,14.218077932085327L222.71,31.81479140690397L222.862,-11.996406044278809L222.976,0.9940773418971751L222.99800000000002,15.225936617170085L223.382,34.13760484967916L223.846,-7.561086314065104L223.886,16.235242162432005L224.6,24.596164839608356L224.614,4.436519418443969L224.95,8.078537770680033L225.01799999999997,1.558563811438455L225.082,22.94463423320227L225.19,22.90924644470217L225.37,17.597913163048908L225.76,16.423514842987082L225.822,29.69839668273928L225.932,49.8320589065552L226.002,53.89634943008425L226.022,13.729400907244019L226.412,5.16302408490865L226.63400000000001,12.26141054289683L226.924,18.203665290560057L227.03400000000002,24.41910532542639L227.458,9.67156096867155L227.894,39.63618595259532L228.55200000000002,10.346370526722513L228.668,-0.6330374990190442L229.408,16.939953497477966L229.61599999999999,42.049126727240434L229.64399999999998,27.423631055014486L229.68200000000002,-24.18056631088253L229.76399999999998,11.351667063576862L229.79199999999997,8.830995491572814L229.822,6.61940942491807L229.848,-1.9542016983031834L229.926,11.35058191844397L230.006,26.62635081154962L230.024,20.068125486373923L230.138,4.356700965336405L230.186,14.473388467516235L230.526,10.068543229784302L230.53,27.38016496385848L230.868,30.089380502700827L231.22,29.608962638037557L231.404,23.345143215996906L231.548,15.571796485355936L231.576,0.78895476886206L231.962,-5.595134905406374L232.42,23.056645325252013L232.534,16.601177215576193L232.78,23.77829698153906L233.132,19.307951177869548L233.332,6.120694807597594L233.538,3.413589273180297L234.20600000000002,16.495767423084818L235.528,32.55657853399007L235.608,37.875477688653156L235.674,23.536460331508117L236.042,37.24470693724498L236.898,23.668064321790446L237.172,14.347692489624043L237.72,30.49579749788558L238.196,13.354362692151774L238.48399999999998,28.907597167151327L238.486,15.011138166700114L238.60199999999998,13.066648517336182L238.994,23.50254954610555L239.00199999999998,0.7422332423074129L239.16,-7.531998395919761L239.644,21.131266287394958L240.126,14.09672253472467L240.38199999999998,27.197619438171408L240.448,-4.233910764966676L240.612,15.275672435760518L240.836,19.16516416413446L240.95600000000002,-0.9207818167550055L241.172,17.68782949447634L241.244,11.132166317531066L241.28199999999998,8.153322356087848L241.474,12.927780083247619L241.542,7.923271587916808L241.56199999999998,29.157964263643553L241.912,53.432208742414225L242.38799999999998,19.82894141333445L242.47,20.030838693891276L242.64600000000002,31.374704769679504L243.09,53.31667092868262L243.162,39.40501989637105L243.39600000000002,27.703116212572386L243.774,28.2871654374259L243.82999999999998,34.31089649881636L244.676,-0.67279601097103L244.94,23.303937843867736L245.328,-1.2596786703382163L245.40599999999998,11.452103274209186L245.80399999999997,-6.534659590039918L246.64399999999998,52.2372830935887L246.926,0.8176809719630931L247.178,30.73082184791567L247.48200000000003,-8.306520734514486L247.96,39.357574939727805L248.584,5.333633014134012L248.596,3.694430862154296L248.918,6.618625708988748L248.934,17.074722494397868L249.406,36.69013748850142L249.64,22.587470769882223L250.192,-5.930716037750205L250.298,15.418791021619548L251.012,16.25121791022166L251.036,2.8184474536351103L251.51999999999998,31.631582736969015L251.53,23.629360812050983L251.544,46.345246451241636L251.756,10.673089640481159L252.078,31.745432547160583L252.25799999999998,-2.8982779639107674L252.63,25.16677032198226L252.774,29.84055069514685L252.90599999999998,9.763798304966532L253.248,9.329197679247192L253.34599999999998,7.164363282067463L253.422,19.802536215100993L253.49,22.96073055267336L253.56599999999997,-4.978109325681397L253.644,28.35417314938139L253.77,11.67709003176011L253.87599999999998,48.43855169841223L253.954,12.164621625627808L254.032,4.52143202509202L254.06,25.556427853448078L254.09400000000002,18.261419125965677L254.31,-5.6007716315133065L254.35,49.29958421843394L254.418,22.049268926892985L254.53400000000002,6.408770697457478L255.27,40.67656884874617L255.372,0.21783685684206067L255.65,18.137441294533893L255.834,30.355753489903055L255.882,48.67698219844275L256.322,7.904281548091369L256.38,25.507596322468363L257.302,20.865948302405233L257.816,19.48196625709536L257.874,12.272714138031025L257.996,33.43850009781976L258.604,24.06486572538106L258.894,16.176825182778522L258.94,19.945956230163596L259.098,30.469512871333556L259.958,18.34919531004771L259.988,12.90882018634253L259.998,11.944065877369486" style="fill: none;" fill="none"></path></g></g></g></g></g></g><g transform="translate(50, 177)" clip-path="url(#clip_1)"><clipPath id="clip_1"><rect width="280" height="23"></rect></clipPath><g><g><line x1="0" y1="0" x2="0" y2="5" style="visibility: inherit;" fill="rgb(0, 0, 0)" stroke="rgb(204, 204, 204)" stroke-width="1px"></line><line x1="20" y1="0" x2="20" y2="5" style="visibility: inherit;" fill="rgb(0, 0, 0)" stroke="rgb(204, 204, 204)" stroke-width="1px"></line><line x1="40" y1="0" x2="40" y2="5" style="visibility: inherit;" fill="rgb(0, 0, 0)" stroke="rgb(204, 204, 204)" stroke-width="1px"></line><line x1="60" y1="0" x2="60" y2="5" style="visibility: inherit;" fill="rgb(0, 0, 0)" stroke="rgb(204, 204, 204)" stroke-width="1px"></line><line x1="80" y1="0" x2="80" y2="5" style="visibility: inherit;" fill="rgb(0, 0, 0)" stroke="rgb(204, 204, 204)" stroke-width="1px"></line><line x1="100" y1="0" x2="100" y2="5" style="visibility: inherit;" fill="rgb(0, 0, 0)" stroke="rgb(204, 204, 204)" stroke-width="1px"></line><line x1="120" y1="0" x2="120" y2="5" style="visibility: inherit;" fill="rgb(0, 0, 0)" stroke="rgb(204, 204, 204)" stroke-width="1px"></line><line x1="140" y1="0" x2="140" y2="5" style="visibility: inherit;" fill="rgb(0, 0, 0)" stroke="rgb(204, 204, 204)" stroke-width="1px"></line><line x1="160" y1="0" x2="160" y2="5" style="visibility: inherit;" fill="rgb(0, 0, 0)" stroke="rgb(204, 204, 204)" stroke-width="1px"></line><line x1="180" y1="0" x2="180" y2="5" style="visibility: inherit;" fill="rgb(0, 0, 0)" stroke="rgb(204, 204, 204)" stroke-width="1px"></line><line x1="200" y1="0" x2="200" y2="5" style="visibility: inherit;" fill="rgb(0, 0, 0)" stroke="rgb(204, 204, 204)" stroke-width="1px"></line><line x1="220" y1="0" x2="220" y2="5" style="visibility: inherit;" fill="rgb(0, 0, 0)" stroke="rgb(204, 204, 204)" stroke-width="1px"></line><line x1="240" y1="0" x2="240" y2="5" style="visibility: inherit;" fill="rgb(0, 0, 0)" stroke="rgb(204, 204, 204)" stroke-width="1px"></line><line x1="260" y1="0" x2="260" y2="5" style="visibility: inherit;" fill="rgb(0, 0, 0)" stroke="rgb(204, 204, 204)" stroke-width="1px"></line><line x1="280" y1="0" x2="280" y2="5" style="visibility: inherit;" fill="rgb(0, 0, 0)" stroke="rgb(204, 204, 204)" stroke-width="1px"></line></g><g transform="translate(0, 8)"><text x="0" y="0" dx="0em" dy="0.95em" style="text-anchor: middle; visibility: hidden; font-family: Roboto, sans-serif; font-size: 12px; font-weight: 200;" fill="rgb(255, 255, 255)" stroke="none" stroke-width="1px">-10k</text><text x="20" y="0" dx="0em" dy="0.95em" style="text-anchor: middle; visibility: inherit; font-family: Roboto, sans-serif; font-size: 12px; font-weight: 200;" fill="rgb(255, 255, 255)" stroke="none" stroke-width="1px">0</text><text x="40" y="0" dx="0em" dy="0.95em" style="text-anchor: middle; visibility: hidden; font-family: Roboto, sans-serif; font-size: 12px; font-weight: 200;" fill="rgb(255, 255, 255)" stroke="none" stroke-width="1px">10k</text><text x="60" y="0" dx="0em" dy="0.95em" style="text-anchor: middle; visibility: inherit; font-family: Roboto, sans-serif; font-size: 12px; font-weight: 200;" fill="rgb(255, 255, 255)" stroke="none" stroke-width="1px">20k</text><text x="80" y="0" dx="0em" dy="0.95em" style="text-anchor: middle; visibility: hidden; font-family: Roboto, sans-serif; font-size: 12px; font-weight: 200;" fill="rgb(255, 255, 255)" stroke="none" stroke-width="1px">30k</text><text x="100" y="0" dx="0em" dy="0.95em" style="text-anchor: middle; visibility: inherit; font-family: Roboto, sans-serif; font-size: 12px; font-weight: 200;" fill="rgb(255, 255, 255)" stroke="none" stroke-width="1px">40k</text><text x="120" y="0" dx="0em" dy="0.95em" style="text-anchor: middle; visibility: hidden; font-family: Roboto, sans-serif; font-size: 12px; font-weight: 200;" fill="rgb(255, 255, 255)" stroke="none" stroke-width="1px">50k</text><text x="140" y="0" dx="0em" dy="0.95em" style="text-anchor: middle; visibility: inherit; font-family: Roboto, sans-serif; font-size: 12px; font-weight: 200;" fill="rgb(255, 255, 255)" stroke="none" stroke-width="1px">60k</text><text x="160" y="0" dx="0em" dy="0.95em" style="text-anchor: middle; visibility: hidden; font-family: Roboto, sans-serif; font-size: 12px; font-weight: 200;" fill="rgb(255, 255, 255)" stroke="none" stroke-width="1px">70k</text><text x="180" y="0" dx="0em" dy="0.95em" style="text-anchor: middle; visibility: inherit; font-family: Roboto, sans-serif; font-size: 12px; font-weight: 200;" fill="rgb(255, 255, 255)" stroke="none" stroke-width="1px">80k</text><text x="200" y="0" dx="0em" dy="0.95em" style="text-anchor: middle; visibility: hidden; font-family: Roboto, sans-serif; font-size: 12px; font-weight: 200;" fill="rgb(255, 255, 255)" stroke="none" stroke-width="1px">90k</text><text x="220" y="0" dx="0em" dy="0.95em" style="text-anchor: middle; visibility: inherit; font-family: Roboto, sans-serif; font-size: 12px; font-weight: 200;" fill="rgb(255, 255, 255)" stroke="none" stroke-width="1px">100k</text><text x="240" y="0" dx="0em" dy="0.95em" style="text-anchor: middle; visibility: hidden; font-family: Roboto, sans-serif; font-size: 12px; font-weight: 200;" fill="rgb(255, 255, 255)" stroke="none" stroke-width="1px">110k</text><text x="260" y="0" dx="0em" dy="0.95em" style="text-anchor: middle; visibility: inherit; font-family: Roboto, sans-serif; font-size: 12px; font-weight: 200;" fill="rgb(255, 255, 255)" stroke="none" stroke-width="1px">120k</text><text x="280" y="0" dx="0em" dy="0.95em" style="text-anchor: middle; visibility: hidden; font-family: Roboto, sans-serif; font-size: 12px; font-weight: 200;" fill="rgb(255, 255, 255)" stroke="none" stroke-width="1px">130k</text></g><line x1="0" y1="0" x2="280" y2="0" fill="rgb(0, 0, 0)" stroke="rgb(204, 204, 204)" stroke-width="1px"></line></g></g></g></g></svg>